G04 Layer_Color=32768*
%FSLAX25Y25*%
%MOIN*%
G70*
G01*
G75*
%ADD132C,0.01968*%
%ADD160C,0.00394*%
D132*
X854947Y314400D02*
X858222D01*
X496778Y344253D02*
X500053D01*
D160*
X193710Y501267D02*
X207490D01*
X193710Y480007D02*
X207490D01*
Y501267D01*
X193710Y480007D02*
Y501267D01*
X200600Y488668D02*
Y492605D01*
X198632Y490637D02*
X202569D01*
X152631D02*
X156569D01*
X154600Y488668D02*
Y492605D01*
X147710Y480007D02*
Y501267D01*
X161490Y480007D02*
Y501267D01*
X147710Y480007D02*
X161490D01*
X147710Y501267D02*
X161490D01*
X163710D02*
X177490D01*
X163710Y480007D02*
X177490D01*
Y501267D01*
X163710Y480007D02*
Y501267D01*
X170600Y488668D02*
Y492605D01*
X168631Y490637D02*
X172569D01*
X389531Y276319D02*
X393468D01*
X391500Y274350D02*
Y278287D01*
X398390Y265689D02*
Y286949D01*
X384610Y265689D02*
Y286949D01*
X398390D01*
X384610Y265689D02*
X398390D01*
X354610Y286949D02*
X368390D01*
X354610Y265689D02*
X368390D01*
Y286949D01*
X354610Y265689D02*
Y286949D01*
X361500Y274350D02*
Y278287D01*
X359531Y276319D02*
X363469D01*
X203031Y174000D02*
X206968D01*
X205000Y172031D02*
Y175969D01*
X198110Y163370D02*
Y184630D01*
X211890Y163370D02*
Y184630D01*
X198110Y163370D02*
X211890D01*
X198110Y184630D02*
X211890D01*
X275010Y185130D02*
X288790D01*
X275010Y163870D02*
X288790D01*
Y185130D01*
X275010Y163870D02*
Y185130D01*
X281900Y172531D02*
Y176469D01*
X279931Y174500D02*
X283869D01*
X307300Y109531D02*
Y113469D01*
X305331Y111500D02*
X309268D01*
X296670Y104610D02*
X317930D01*
X296670Y118390D02*
X317930D01*
Y104610D02*
Y118390D01*
X296670Y104610D02*
Y118390D01*
X212610Y184630D02*
X226390D01*
X212610Y163370D02*
X226390D01*
Y184630D01*
X212610Y163370D02*
Y184630D01*
X219500Y172031D02*
Y175969D01*
X217531Y174000D02*
X221468D01*
X372700Y154782D02*
Y158719D01*
X370731Y156750D02*
X374669D01*
X362070Y163640D02*
X383330D01*
X362070Y149861D02*
X383330D01*
X362070D02*
Y163640D01*
X383330Y149861D02*
Y163640D01*
X767996Y193651D02*
Y206249D01*
X801854Y193651D02*
Y206249D01*
X767996D02*
X801854D01*
X767996Y193651D02*
X801854D01*
X782956Y199950D02*
X786893D01*
X784925Y197982D02*
Y201919D01*
X655925Y175582D02*
Y179518D01*
X653956Y177550D02*
X657893D01*
X638996Y183849D02*
X672854D01*
X638996Y171251D02*
X672854D01*
X638996D02*
Y183849D01*
X672854Y171251D02*
Y183849D01*
X681996Y193651D02*
Y206249D01*
X715854Y193651D02*
Y206249D01*
X681996D02*
X715854D01*
X681996Y193651D02*
X715854D01*
X696956Y199950D02*
X700893D01*
X698925Y197982D02*
Y201919D01*
Y220481D02*
Y224418D01*
X696956Y222450D02*
X700893D01*
X681996Y216151D02*
X715854D01*
X681996Y228749D02*
X715854D01*
Y216151D02*
Y228749D01*
X681996Y216151D02*
Y228749D01*
Y238651D02*
Y251249D01*
X715854Y238651D02*
Y251249D01*
X681996D02*
X715854D01*
X681996Y238651D02*
X715854D01*
X696956Y244950D02*
X700893D01*
X698925Y242982D02*
Y246919D01*
X698925Y175582D02*
Y179518D01*
X696956Y177550D02*
X700893D01*
X681996Y183849D02*
X715854D01*
X681996Y171251D02*
X715854D01*
X681996D02*
Y183849D01*
X715854Y171251D02*
Y183849D01*
X638996Y216151D02*
Y228749D01*
X672854Y216151D02*
Y228749D01*
X638996D02*
X672854D01*
X638996Y216151D02*
X672854D01*
X653956Y222450D02*
X657893D01*
X655925Y220481D02*
Y224418D01*
Y242982D02*
Y246919D01*
X653956Y244950D02*
X657893D01*
X638996Y238651D02*
X672854D01*
X638996Y251249D02*
X672854D01*
Y238651D02*
Y251249D01*
X638996Y238651D02*
Y251249D01*
Y193651D02*
Y206249D01*
X672854Y193651D02*
Y206249D01*
X638996D02*
X672854D01*
X638996Y193651D02*
X672854D01*
X653956Y199950D02*
X657893D01*
X655925Y197982D02*
Y201919D01*
X784925Y220481D02*
Y224418D01*
X782956Y222450D02*
X786893D01*
X767996Y216151D02*
X801854D01*
X767996Y228749D02*
X801854D01*
Y216151D02*
Y228749D01*
X767996Y216151D02*
Y228749D01*
X724996Y238651D02*
Y251249D01*
X758854Y238651D02*
Y251249D01*
X724996D02*
X758854D01*
X724996Y238651D02*
X758854D01*
X739956Y244950D02*
X743893D01*
X741925Y242982D02*
Y246919D01*
X784925Y175582D02*
Y179518D01*
X782956Y177550D02*
X786893D01*
X767996Y183849D02*
X801854D01*
X767996Y171251D02*
X801854D01*
X767996D02*
Y183849D01*
X801854Y171251D02*
Y183849D01*
X724996Y216151D02*
Y228749D01*
X758854Y216151D02*
Y228749D01*
X724996D02*
X758854D01*
X724996Y216151D02*
X758854D01*
X739956Y222450D02*
X743893D01*
X741925Y220481D02*
Y224418D01*
X784925Y242982D02*
Y246919D01*
X782956Y244950D02*
X786893D01*
X767996Y238651D02*
X801854D01*
X767996Y251249D02*
X801854D01*
Y238651D02*
Y251249D01*
X767996Y238651D02*
Y251249D01*
X758854Y171251D02*
Y183849D01*
X724996Y171251D02*
Y183849D01*
Y171251D02*
X758854D01*
X724996Y183849D02*
X758854D01*
X739956Y177550D02*
X743893D01*
X741925Y175582D02*
Y179518D01*
X741925Y197982D02*
Y201919D01*
X739956Y199950D02*
X743893D01*
X724996Y193651D02*
X758854D01*
X724996Y206249D02*
X758854D01*
Y193651D02*
Y206249D01*
X724996Y193651D02*
Y206249D01*
X532237Y258953D02*
X574363D01*
X532237Y303047D02*
X574363D01*
X532237Y258953D02*
Y303047D01*
X574363Y258953D02*
Y303047D01*
X553300Y279031D02*
Y282968D01*
X551332Y281000D02*
X555268D01*
X369610Y265689D02*
X383390D01*
X369610Y286949D02*
X383390D01*
X369610Y265689D02*
Y286949D01*
X383390Y265689D02*
Y286949D01*
X376500Y274350D02*
Y278287D01*
X374532Y276319D02*
X378468D01*
X339110Y265689D02*
X352890D01*
X339110Y286949D02*
X352890D01*
X339110Y265689D02*
Y286949D01*
X352890Y265689D02*
Y286949D01*
X346000Y274350D02*
Y278287D01*
X344032Y276319D02*
X347969D01*
X575130Y131010D02*
Y144790D01*
X553870Y131010D02*
Y144790D01*
Y131010D02*
X575130D01*
X553870Y144790D02*
X575130D01*
X562532Y137900D02*
X566468D01*
X564500Y135932D02*
Y139868D01*
X445610Y125230D02*
X459390D01*
X445610Y103970D02*
X459390D01*
Y125230D01*
X445610Y103970D02*
Y125230D01*
X452500Y112631D02*
Y116569D01*
X450531Y114600D02*
X454468D01*
M02*
