G04 Layer_Color=12632256*
%FSLAX25Y25*%
%MOIN*%
G70*
G01*
G75*
%ADD113R,0.09449X0.09449*%
%ADD114C,0.09449*%
%ADD115C,0.05905*%
%ADD116R,0.05905X0.05905*%
%ADD117C,0.04724*%
%ADD118C,0.06000*%
%ADD119C,0.05500*%
%ADD120C,0.03937*%
%ADD121C,0.11811*%
G04:AMPARAMS|DCode=122|XSize=78.74mil|YSize=157.48mil|CornerRadius=19.68mil|HoleSize=0mil|Usage=FLASHONLY|Rotation=270.000|XOffset=0mil|YOffset=0mil|HoleType=Round|Shape=RoundedRectangle|*
%AMROUNDEDRECTD122*
21,1,0.07874,0.11811,0,0,270.0*
21,1,0.03937,0.15748,0,0,270.0*
1,1,0.03937,-0.05905,-0.01968*
1,1,0.03937,-0.05905,0.01968*
1,1,0.03937,0.05905,0.01968*
1,1,0.03937,0.05905,-0.01968*
%
%ADD122ROUNDEDRECTD122*%
G04:AMPARAMS|DCode=123|XSize=157.48mil|YSize=78.74mil|CornerRadius=19.68mil|HoleSize=0mil|Usage=FLASHONLY|Rotation=270.000|XOffset=0mil|YOffset=0mil|HoleType=Round|Shape=RoundedRectangle|*
%AMROUNDEDRECTD123*
21,1,0.15748,0.03937,0,0,270.0*
21,1,0.11811,0.07874,0,0,270.0*
1,1,0.03937,-0.01968,-0.05905*
1,1,0.03937,-0.01968,0.05905*
1,1,0.03937,0.01968,0.05905*
1,1,0.03937,0.01968,-0.05905*
%
%ADD123ROUNDEDRECTD123*%
%ADD124R,0.05905X0.05905*%
%ADD125C,0.07874*%
%ADD126C,0.06653*%
%ADD127C,0.19685*%
%ADD128C,0.05905*%
D113*
X120010Y117610D02*
D03*
D114*
Y137295D02*
D03*
D115*
X622015Y100000D02*
D03*
X629889D02*
D03*
X637763D02*
D03*
X622015Y123400D02*
D03*
X629889D02*
D03*
X637763D02*
D03*
X341500Y127800D02*
D03*
Y137800D02*
D03*
X622204Y146800D02*
D03*
X630078D02*
D03*
X637952D02*
D03*
X645826D02*
D03*
X614330D02*
D03*
D116*
X645637Y100000D02*
D03*
Y123400D02*
D03*
X653700Y146800D02*
D03*
D117*
X328900Y229800D02*
D03*
Y199800D02*
D03*
D118*
X645100Y263700D02*
D03*
Y296600D02*
D03*
D119*
X238200Y122800D02*
D03*
Y142800D02*
D03*
D120*
X760700Y145000D02*
D03*
Y135000D02*
D03*
Y125000D02*
D03*
X700700Y115000D02*
D03*
Y125000D02*
D03*
Y135000D02*
D03*
Y145000D02*
D03*
D121*
X848425Y94488D02*
D03*
X104331D02*
D03*
X104331Y530315D02*
D03*
X848425D02*
D03*
D122*
X115110Y162173D02*
D03*
D123*
X102118Y180283D02*
D03*
X126921D02*
D03*
D124*
X341500Y117800D02*
D03*
D125*
X786500Y144974D02*
D03*
Y129974D02*
D03*
Y114974D02*
D03*
X836500D02*
D03*
Y129974D02*
D03*
Y144974D02*
D03*
Y327000D02*
D03*
Y507000D02*
D03*
Y492000D02*
D03*
Y477000D02*
D03*
Y462000D02*
D03*
Y447000D02*
D03*
Y432000D02*
D03*
Y417000D02*
D03*
Y402000D02*
D03*
Y387000D02*
D03*
Y372000D02*
D03*
Y357000D02*
D03*
Y342000D02*
D03*
X786500Y327000D02*
D03*
Y342000D02*
D03*
Y357000D02*
D03*
Y372000D02*
D03*
Y387000D02*
D03*
Y402000D02*
D03*
Y417000D02*
D03*
Y432000D02*
D03*
Y447000D02*
D03*
Y462000D02*
D03*
Y477000D02*
D03*
Y492000D02*
D03*
Y507000D02*
D03*
D126*
X134500Y479937D02*
D03*
X123319Y474484D02*
D03*
X134500Y469031D02*
D03*
X123319Y463579D02*
D03*
X134500Y458126D02*
D03*
X123319Y452673D02*
D03*
X134500Y447221D02*
D03*
X123319Y441768D02*
D03*
X134500Y436315D02*
D03*
Y392693D02*
D03*
Y403598D02*
D03*
Y414504D02*
D03*
Y425410D02*
D03*
Y381787D02*
D03*
Y370882D02*
D03*
Y359976D02*
D03*
Y349071D02*
D03*
Y338165D02*
D03*
Y327260D02*
D03*
Y316354D02*
D03*
Y305449D02*
D03*
Y294543D02*
D03*
Y283638D02*
D03*
X123319Y289091D02*
D03*
Y299996D02*
D03*
Y310902D02*
D03*
Y321807D02*
D03*
Y332713D02*
D03*
Y343618D02*
D03*
Y354524D02*
D03*
Y365429D02*
D03*
Y376335D02*
D03*
Y387240D02*
D03*
Y398146D02*
D03*
Y409051D02*
D03*
Y419957D02*
D03*
Y430862D02*
D03*
D127*
X128909Y507417D02*
D03*
Y256157D02*
D03*
D128*
X824000Y180500D02*
D03*
X814000D02*
D03*
X824000Y190500D02*
D03*
X814000D02*
D03*
X824000Y200500D02*
D03*
X814000D02*
D03*
X824000Y210500D02*
D03*
X814000D02*
D03*
X824000Y220500D02*
D03*
X814000D02*
D03*
X824000Y230500D02*
D03*
X814000D02*
D03*
X824000Y240500D02*
D03*
X814000D02*
D03*
X824000Y250500D02*
D03*
X814000D02*
D03*
X824000Y260500D02*
D03*
X814000D02*
D03*
X824000Y270500D02*
D03*
X814000D02*
D03*
M02*
