G04 Layer_Color=255*
%FSLAX25Y25*%
%MOIN*%
G70*
G01*
G75*
%ADD18R,0.12992X0.05512*%
%ADD19R,0.05512X0.12992*%
%ADD20O,0.07087X0.02756*%
%ADD21R,0.11811X0.07874*%
%ADD22R,0.08661X0.04331*%
%ADD23R,0.04331X0.08661*%
%ADD24R,0.23622X0.06299*%
%ADD25R,0.14961X0.05512*%
%ADD26R,0.03200X0.02000*%
%ADD27R,0.02000X0.03200*%
%ADD28R,0.04000X0.05000*%
%ADD29R,0.06000X0.05000*%
%ADD30R,0.05000X0.04000*%
%ADD31O,0.01968X0.05905*%
%ADD32R,0.02756X0.03937*%
%ADD33R,0.07874X0.07874*%
%ADD34R,0.01968X0.03937*%
%ADD35R,0.03937X0.02756*%
%ADD36O,0.02400X0.07400*%
%ADD37O,0.02362X0.07874*%
%ADD38R,0.05000X0.06000*%
%ADD39O,0.06693X0.01378*%
%ADD40R,0.07874X0.07874*%
%ADD41O,0.05118X0.01575*%
%ADD42O,0.07480X0.01181*%
%ADD43O,0.01181X0.07480*%
%ADD44R,0.07087X0.06299*%
%ADD45R,0.11811X0.07874*%
%ADD46R,0.13780X0.07874*%
%ADD47R,0.06299X0.07087*%
%ADD48O,0.08000X0.02400*%
%ADD49O,0.02400X0.08000*%
%ADD50R,0.12205X0.09449*%
%ADD51R,0.01181X0.06800*%
%ADD52O,0.01181X0.06800*%
%ADD53O,0.03937X0.09842*%
%ADD54R,0.15748X0.07874*%
%ADD55R,0.05905X0.01181*%
%ADD56O,0.05905X0.01181*%
%ADD57C,0.02000*%
%ADD58R,0.01181X0.06299*%
%ADD59R,0.06299X0.01181*%
%ADD60R,0.07874X0.09842*%
%ADD61R,0.01968X0.15000*%
%ADD62O,0.01575X0.05118*%
%ADD63R,0.05905X0.06693*%
%ADD113R,0.09449X0.09449*%
%ADD114C,0.09449*%
%ADD115C,0.05905*%
%ADD116R,0.05905X0.05905*%
%ADD117C,0.04724*%
%ADD118C,0.06000*%
%ADD119C,0.05500*%
%ADD120C,0.03937*%
%ADD121C,0.11811*%
G04:AMPARAMS|DCode=122|XSize=78.74mil|YSize=157.48mil|CornerRadius=19.68mil|HoleSize=0mil|Usage=FLASHONLY|Rotation=270.000|XOffset=0mil|YOffset=0mil|HoleType=Round|Shape=RoundedRectangle|*
%AMROUNDEDRECTD122*
21,1,0.07874,0.11811,0,0,270.0*
21,1,0.03937,0.15748,0,0,270.0*
1,1,0.03937,-0.05905,-0.01968*
1,1,0.03937,-0.05905,0.01968*
1,1,0.03937,0.05905,0.01968*
1,1,0.03937,0.05905,-0.01968*
%
%ADD122ROUNDEDRECTD122*%
G04:AMPARAMS|DCode=123|XSize=157.48mil|YSize=78.74mil|CornerRadius=19.68mil|HoleSize=0mil|Usage=FLASHONLY|Rotation=270.000|XOffset=0mil|YOffset=0mil|HoleType=Round|Shape=RoundedRectangle|*
%AMROUNDEDRECTD123*
21,1,0.15748,0.03937,0,0,270.0*
21,1,0.11811,0.07874,0,0,270.0*
1,1,0.03937,-0.01968,-0.05905*
1,1,0.03937,-0.01968,0.05905*
1,1,0.03937,0.01968,0.05905*
1,1,0.03937,0.01968,-0.05905*
%
%ADD123ROUNDEDRECTD123*%
%ADD124R,0.05905X0.05905*%
%ADD125C,0.07874*%
%ADD126C,0.06653*%
%ADD127C,0.19685*%
%ADD128C,0.05905*%
D18*
X200600Y498117D02*
D03*
Y483157D02*
D03*
X154600D02*
D03*
Y498117D02*
D03*
X170600D02*
D03*
Y483157D02*
D03*
X391500Y283799D02*
D03*
Y268839D02*
D03*
X361500Y283799D02*
D03*
Y268839D02*
D03*
X205000Y166520D02*
D03*
Y181480D02*
D03*
X281900Y181980D02*
D03*
Y167020D02*
D03*
X219500Y181480D02*
D03*
Y166520D02*
D03*
X376500Y268839D02*
D03*
Y283799D02*
D03*
X346000Y268839D02*
D03*
Y283799D02*
D03*
X452500Y122080D02*
D03*
Y107120D02*
D03*
D19*
X314780Y111500D02*
D03*
X299820D02*
D03*
X365220Y156750D02*
D03*
X380180D02*
D03*
X571980Y137900D02*
D03*
X557020D02*
D03*
D20*
X771350Y202450D02*
D03*
Y197450D02*
D03*
X798500Y202450D02*
D03*
Y197450D02*
D03*
X642350Y180050D02*
D03*
Y175050D02*
D03*
X669500Y180050D02*
D03*
Y175050D02*
D03*
X685350Y202450D02*
D03*
Y197450D02*
D03*
X712500Y202450D02*
D03*
Y197450D02*
D03*
Y219950D02*
D03*
Y224950D02*
D03*
X685350Y219950D02*
D03*
Y224950D02*
D03*
Y247450D02*
D03*
Y242450D02*
D03*
X712500Y247450D02*
D03*
Y242450D02*
D03*
X685350Y180050D02*
D03*
Y175050D02*
D03*
X712500Y180050D02*
D03*
Y175050D02*
D03*
X642350Y224950D02*
D03*
Y219950D02*
D03*
X669500Y224950D02*
D03*
Y219950D02*
D03*
Y242450D02*
D03*
Y247450D02*
D03*
X642350Y242450D02*
D03*
Y247450D02*
D03*
Y202450D02*
D03*
Y197450D02*
D03*
X669500Y202450D02*
D03*
Y197450D02*
D03*
X798500Y219950D02*
D03*
Y224950D02*
D03*
X771350Y219950D02*
D03*
Y224950D02*
D03*
X728350Y247450D02*
D03*
Y242450D02*
D03*
X755500Y247450D02*
D03*
Y242450D02*
D03*
X771350Y180050D02*
D03*
Y175050D02*
D03*
X798500Y180050D02*
D03*
Y175050D02*
D03*
X728350Y224950D02*
D03*
Y219950D02*
D03*
X755500Y224950D02*
D03*
Y219950D02*
D03*
X798500Y242450D02*
D03*
Y247450D02*
D03*
X771350Y242450D02*
D03*
Y247450D02*
D03*
X755500Y175050D02*
D03*
Y180050D02*
D03*
X728350Y175050D02*
D03*
Y180050D02*
D03*
X755500Y197450D02*
D03*
Y202450D02*
D03*
X728350Y197450D02*
D03*
Y202450D02*
D03*
D21*
X276400Y116000D02*
D03*
Y143559D02*
D03*
D22*
X583100Y525200D02*
D03*
Y515200D02*
D03*
Y505200D02*
D03*
X548100Y525200D02*
D03*
Y515200D02*
D03*
Y505200D02*
D03*
D23*
X411300Y414237D02*
D03*
X421300D02*
D03*
X431300D02*
D03*
X411300Y379237D02*
D03*
X421300D02*
D03*
X431300D02*
D03*
D24*
X140084Y121200D02*
D03*
X181916D02*
D03*
D25*
X236620Y175500D02*
D03*
X264380D02*
D03*
D26*
X612923Y200115D02*
D03*
X620223D02*
D03*
X612923Y203215D02*
D03*
X620223D02*
D03*
X612923Y206415D02*
D03*
X620223Y206315D02*
D03*
X612923Y209515D02*
D03*
X620223D02*
D03*
Y223115D02*
D03*
X612923D02*
D03*
X620223Y219915D02*
D03*
X612923Y220015D02*
D03*
X620223Y216815D02*
D03*
X612923D02*
D03*
X620223Y213715D02*
D03*
X612923D02*
D03*
X157923Y272352D02*
D03*
X165223D02*
D03*
X157923Y275452D02*
D03*
X165223D02*
D03*
X157923Y278652D02*
D03*
X165223Y278552D02*
D03*
X157923Y281752D02*
D03*
X165223D02*
D03*
Y307352D02*
D03*
X157923D02*
D03*
X165223Y304152D02*
D03*
X157923Y304252D02*
D03*
X165223Y301052D02*
D03*
X157923D02*
D03*
X165223Y297952D02*
D03*
X157923D02*
D03*
Y323552D02*
D03*
X165223D02*
D03*
X157923Y326652D02*
D03*
X165223D02*
D03*
X157923Y329852D02*
D03*
X165223Y329752D02*
D03*
X157923Y332952D02*
D03*
X165223D02*
D03*
Y358552D02*
D03*
X157923D02*
D03*
X165223Y355352D02*
D03*
X157923Y355452D02*
D03*
X165223Y352252D02*
D03*
X157923D02*
D03*
X165223Y349152D02*
D03*
X157923D02*
D03*
Y374752D02*
D03*
X165223D02*
D03*
X157923Y377852D02*
D03*
X165223D02*
D03*
X157923Y381052D02*
D03*
X165223Y380952D02*
D03*
X157923Y384152D02*
D03*
X165223D02*
D03*
Y409752D02*
D03*
X157923D02*
D03*
X165223Y406552D02*
D03*
X157923Y406652D02*
D03*
X165223Y403452D02*
D03*
X157923D02*
D03*
X165223Y400352D02*
D03*
X157923D02*
D03*
Y425952D02*
D03*
X165223D02*
D03*
X157923Y429052D02*
D03*
X165223D02*
D03*
X157923Y432252D02*
D03*
X165223Y432152D02*
D03*
X157923Y435352D02*
D03*
X165223D02*
D03*
Y460952D02*
D03*
X157923D02*
D03*
X165223Y457752D02*
D03*
X157923Y457852D02*
D03*
X165223Y454652D02*
D03*
X157923D02*
D03*
X165223Y451552D02*
D03*
X157923D02*
D03*
D27*
X557985Y243223D02*
D03*
Y250523D02*
D03*
X554885Y243223D02*
D03*
Y250523D02*
D03*
X551685Y243223D02*
D03*
X551785Y250523D02*
D03*
X548585Y243223D02*
D03*
Y250523D02*
D03*
X415785Y182923D02*
D03*
Y175623D02*
D03*
X418985Y182923D02*
D03*
X418885Y175623D02*
D03*
X422085Y182923D02*
D03*
Y175623D02*
D03*
X425185Y182923D02*
D03*
Y175623D02*
D03*
X557985Y311023D02*
D03*
Y318323D02*
D03*
X554885Y311023D02*
D03*
Y318323D02*
D03*
X551685Y311023D02*
D03*
X551785Y318323D02*
D03*
X548585Y311023D02*
D03*
Y318323D02*
D03*
X415785Y248123D02*
D03*
Y240823D02*
D03*
X418985Y248123D02*
D03*
X418885Y240823D02*
D03*
X422085Y248123D02*
D03*
Y240823D02*
D03*
X425185Y248123D02*
D03*
Y240823D02*
D03*
D28*
X575008Y370866D02*
D03*
X583508D02*
D03*
X583500Y379000D02*
D03*
X575000D02*
D03*
Y388583D02*
D03*
X583500D02*
D03*
X706500Y353500D02*
D03*
X715000D02*
D03*
X706500Y371000D02*
D03*
X715000D02*
D03*
X706500Y346000D02*
D03*
X715000D02*
D03*
X706500Y381500D02*
D03*
X715000D02*
D03*
X706500Y363500D02*
D03*
X715000D02*
D03*
X706500Y389000D02*
D03*
X715000D02*
D03*
Y328500D02*
D03*
X706500D02*
D03*
X715000Y336000D02*
D03*
X706500D02*
D03*
X752000Y509500D02*
D03*
X760500D02*
D03*
X752000Y407500D02*
D03*
X760500D02*
D03*
X752000Y399500D02*
D03*
X760500D02*
D03*
X752000Y423500D02*
D03*
X760500D02*
D03*
X752000Y415500D02*
D03*
X760500D02*
D03*
X752000Y439500D02*
D03*
X760500D02*
D03*
X752000Y431500D02*
D03*
X760500D02*
D03*
X752000Y455000D02*
D03*
X760500D02*
D03*
X752000Y446500D02*
D03*
X760500D02*
D03*
X752000Y471000D02*
D03*
X760500D02*
D03*
X752000Y463000D02*
D03*
X760500D02*
D03*
X752000Y486500D02*
D03*
X760500D02*
D03*
X752000Y478500D02*
D03*
X760500D02*
D03*
X752000Y502000D02*
D03*
X760500D02*
D03*
X752000Y494000D02*
D03*
X760500D02*
D03*
X700000Y407500D02*
D03*
X691500D02*
D03*
X700000Y400000D02*
D03*
X691500D02*
D03*
X700000Y423500D02*
D03*
X691500D02*
D03*
X700000Y416000D02*
D03*
X691500D02*
D03*
X700000Y439500D02*
D03*
X691500D02*
D03*
X700000Y432000D02*
D03*
X691500D02*
D03*
X700000Y455500D02*
D03*
X691500D02*
D03*
X700000Y448000D02*
D03*
X691500D02*
D03*
X700000Y471000D02*
D03*
X691500D02*
D03*
X700000Y463500D02*
D03*
X691500D02*
D03*
X700000Y502000D02*
D03*
X691500D02*
D03*
X700000Y510000D02*
D03*
X691500D02*
D03*
X700000Y517500D02*
D03*
X691500D02*
D03*
Y494500D02*
D03*
X700000D02*
D03*
X691500Y479000D02*
D03*
X700000D02*
D03*
X691500Y486500D02*
D03*
X700000D02*
D03*
X684000Y328500D02*
D03*
X675500D02*
D03*
X684000Y336000D02*
D03*
X675500D02*
D03*
X684000Y346000D02*
D03*
X675500D02*
D03*
X684000Y353500D02*
D03*
X675500D02*
D03*
X684000Y363500D02*
D03*
X675500D02*
D03*
X684000Y371000D02*
D03*
X675500D02*
D03*
X684000Y381000D02*
D03*
X675500D02*
D03*
X684000Y388500D02*
D03*
X675500D02*
D03*
X752000Y517500D02*
D03*
X760500D02*
D03*
X640743Y355724D02*
D03*
X649243D02*
D03*
X640743Y363224D02*
D03*
X649243D02*
D03*
X640743Y370724D02*
D03*
X649243D02*
D03*
X640743Y378224D02*
D03*
X649243D02*
D03*
X557600Y433581D02*
D03*
X566100D02*
D03*
X557600Y442540D02*
D03*
X566100D02*
D03*
X557500Y455000D02*
D03*
X566000D02*
D03*
X557500Y462650D02*
D03*
X566000D02*
D03*
X291500Y479037D02*
D03*
X300000D02*
D03*
X291500Y471437D02*
D03*
X300000D02*
D03*
X263000Y472937D02*
D03*
X254500D02*
D03*
X263000Y493437D02*
D03*
X254500D02*
D03*
X234500Y472937D02*
D03*
X226000D02*
D03*
X234500Y493437D02*
D03*
X226000D02*
D03*
X540800Y231301D02*
D03*
X532300D02*
D03*
X540800Y240400D02*
D03*
X532300D02*
D03*
X600600Y525200D02*
D03*
X592100D02*
D03*
X600600Y515200D02*
D03*
X592100D02*
D03*
X600600Y505200D02*
D03*
X592100D02*
D03*
X407700Y182800D02*
D03*
X399200D02*
D03*
X221177Y108600D02*
D03*
X229677D02*
D03*
X221177Y101100D02*
D03*
X229677D02*
D03*
X319400Y164100D02*
D03*
X310900D02*
D03*
X319400Y171100D02*
D03*
X310900D02*
D03*
X405800Y268500D02*
D03*
X414300D02*
D03*
X400224Y311518D02*
D03*
X391724D02*
D03*
X361437Y311900D02*
D03*
X352937D02*
D03*
X406400Y148600D02*
D03*
X397901D02*
D03*
X406400Y157500D02*
D03*
X397901D02*
D03*
X415500Y148600D02*
D03*
X424001D02*
D03*
X415500Y157500D02*
D03*
X424001D02*
D03*
X570200Y250400D02*
D03*
X578700D02*
D03*
X573600Y127200D02*
D03*
X565100D02*
D03*
X556200D02*
D03*
X564700D02*
D03*
X449500Y129800D02*
D03*
X458000D02*
D03*
X570200Y242800D02*
D03*
X578700D02*
D03*
X336700Y149200D02*
D03*
X345200D02*
D03*
X336700Y157350D02*
D03*
X345200D02*
D03*
X336700Y165500D02*
D03*
X345200D02*
D03*
X399200Y175600D02*
D03*
X407700D02*
D03*
X683500Y129167D02*
D03*
X675000D02*
D03*
X683500Y139833D02*
D03*
X675000D02*
D03*
X683500Y118500D02*
D03*
X675000D02*
D03*
X683500Y150500D02*
D03*
X675000D02*
D03*
X234500Y442937D02*
D03*
X226000D02*
D03*
X234500Y412937D02*
D03*
X226000D02*
D03*
X234500Y382937D02*
D03*
X226000D02*
D03*
X234500Y352937D02*
D03*
X226000D02*
D03*
X234500Y322937D02*
D03*
X226000D02*
D03*
X234500Y292937D02*
D03*
X226000D02*
D03*
X234500Y463437D02*
D03*
X226000D02*
D03*
X234500Y433437D02*
D03*
X226000D02*
D03*
X234500Y403437D02*
D03*
X226000D02*
D03*
X234500Y373437D02*
D03*
X226000D02*
D03*
X234500Y343437D02*
D03*
X226000D02*
D03*
X234500Y313437D02*
D03*
X226000D02*
D03*
X234500Y262937D02*
D03*
X226000D02*
D03*
X234500Y283437D02*
D03*
X226000D02*
D03*
X263000Y442937D02*
D03*
X254500D02*
D03*
X263000Y412937D02*
D03*
X254500D02*
D03*
X263000Y382937D02*
D03*
X254500D02*
D03*
X263000Y352937D02*
D03*
X254500D02*
D03*
X263000Y322937D02*
D03*
X254500D02*
D03*
X263000Y463437D02*
D03*
X254500D02*
D03*
X263000Y433437D02*
D03*
X254500D02*
D03*
X263000Y403437D02*
D03*
X254500D02*
D03*
X263000Y373437D02*
D03*
X254500D02*
D03*
X263000Y343437D02*
D03*
X254500D02*
D03*
X263500Y283437D02*
D03*
X255000D02*
D03*
X263500Y262937D02*
D03*
X255000D02*
D03*
X263500Y313437D02*
D03*
X255000D02*
D03*
X263500Y292937D02*
D03*
X255000D02*
D03*
X291500Y291437D02*
D03*
X300000D02*
D03*
X291500Y321437D02*
D03*
X300000D02*
D03*
X291500Y351437D02*
D03*
X300000D02*
D03*
X291500Y381437D02*
D03*
X300000D02*
D03*
X291500Y411437D02*
D03*
X300000D02*
D03*
X291500Y441437D02*
D03*
X300000D02*
D03*
X291500Y449037D02*
D03*
X300000D02*
D03*
X291500Y419037D02*
D03*
X300000D02*
D03*
X291500Y389037D02*
D03*
X300000D02*
D03*
X291500Y359037D02*
D03*
X300000D02*
D03*
X291500Y329137D02*
D03*
X300000D02*
D03*
X292000Y269037D02*
D03*
X300500D02*
D03*
X292000Y299037D02*
D03*
X300500D02*
D03*
X292000Y261437D02*
D03*
X300500D02*
D03*
X181100Y498137D02*
D03*
X189600D02*
D03*
X181100Y483137D02*
D03*
X189600D02*
D03*
X526500Y418500D02*
D03*
X518000D02*
D03*
D29*
X585465Y398425D02*
D03*
X574465D02*
D03*
X542800Y318500D02*
D03*
X531800D02*
D03*
X527500Y364000D02*
D03*
X516500D02*
D03*
X541700Y250500D02*
D03*
X530700D02*
D03*
X527500Y374000D02*
D03*
X516500D02*
D03*
X527500Y411000D02*
D03*
X516500D02*
D03*
Y403000D02*
D03*
X527500D02*
D03*
D30*
X620562Y242400D02*
D03*
Y250900D02*
D03*
X613562Y242400D02*
D03*
Y250900D02*
D03*
X606562Y242400D02*
D03*
Y250900D02*
D03*
X599562Y242600D02*
D03*
Y251100D02*
D03*
X592520Y242600D02*
D03*
Y251100D02*
D03*
X585600Y242500D02*
D03*
Y251000D02*
D03*
X519900Y178600D02*
D03*
Y187100D02*
D03*
X512160Y178600D02*
D03*
Y187100D02*
D03*
X504420Y178600D02*
D03*
Y187100D02*
D03*
X496680Y178600D02*
D03*
Y187100D02*
D03*
X488940Y178600D02*
D03*
Y187100D02*
D03*
X481200Y178600D02*
D03*
Y187100D02*
D03*
X472900Y183900D02*
D03*
Y175400D02*
D03*
X458900Y183900D02*
D03*
Y175400D02*
D03*
X451900Y183900D02*
D03*
Y175400D02*
D03*
X444900Y183900D02*
D03*
Y175400D02*
D03*
X437900Y183900D02*
D03*
Y175400D02*
D03*
X519200Y135100D02*
D03*
Y126600D02*
D03*
X583385Y105786D02*
D03*
Y114286D02*
D03*
X561733Y105985D02*
D03*
Y114486D02*
D03*
X539866Y105985D02*
D03*
Y114486D02*
D03*
X517300Y105886D02*
D03*
Y114385D02*
D03*
X745000Y517500D02*
D03*
Y509000D02*
D03*
Y486000D02*
D03*
Y477500D02*
D03*
Y501500D02*
D03*
Y493000D02*
D03*
X722500Y336500D02*
D03*
Y328000D02*
D03*
Y354000D02*
D03*
Y345500D02*
D03*
Y371500D02*
D03*
Y363000D02*
D03*
Y389500D02*
D03*
Y381000D02*
D03*
X730500Y336500D02*
D03*
Y328000D02*
D03*
Y354000D02*
D03*
Y345500D02*
D03*
Y371500D02*
D03*
Y363000D02*
D03*
Y389500D02*
D03*
Y381000D02*
D03*
X676000Y517500D02*
D03*
Y509000D02*
D03*
Y462500D02*
D03*
Y471000D02*
D03*
X684000Y399000D02*
D03*
Y407500D02*
D03*
Y447000D02*
D03*
Y455500D02*
D03*
Y462500D02*
D03*
Y471000D02*
D03*
Y493500D02*
D03*
Y502000D02*
D03*
Y423500D02*
D03*
Y415000D02*
D03*
Y439500D02*
D03*
Y431000D02*
D03*
Y486500D02*
D03*
Y478000D02*
D03*
X745000Y399500D02*
D03*
Y408000D02*
D03*
Y415500D02*
D03*
Y424000D02*
D03*
Y431500D02*
D03*
Y440000D02*
D03*
Y446500D02*
D03*
Y455000D02*
D03*
Y462000D02*
D03*
Y470500D02*
D03*
X737000Y509000D02*
D03*
Y517500D02*
D03*
Y399500D02*
D03*
Y408000D02*
D03*
Y415500D02*
D03*
Y424000D02*
D03*
Y431500D02*
D03*
Y440000D02*
D03*
Y446500D02*
D03*
Y455000D02*
D03*
Y462000D02*
D03*
Y470500D02*
D03*
Y477500D02*
D03*
Y486000D02*
D03*
X676000Y423500D02*
D03*
Y415000D02*
D03*
Y439500D02*
D03*
Y431000D02*
D03*
Y455500D02*
D03*
Y447000D02*
D03*
Y399000D02*
D03*
Y407500D02*
D03*
Y478000D02*
D03*
Y486500D02*
D03*
Y493500D02*
D03*
Y502000D02*
D03*
X737000Y493000D02*
D03*
Y501500D02*
D03*
X617600Y309200D02*
D03*
Y317700D02*
D03*
X611100Y309200D02*
D03*
Y317700D02*
D03*
X604600Y309200D02*
D03*
Y317700D02*
D03*
X598100Y309200D02*
D03*
Y317700D02*
D03*
X591500Y309200D02*
D03*
Y317700D02*
D03*
X585062Y309200D02*
D03*
Y317700D02*
D03*
X578600Y309200D02*
D03*
Y317700D02*
D03*
X529280Y348507D02*
D03*
Y340007D02*
D03*
X638583Y388351D02*
D03*
Y396851D02*
D03*
X300000Y485437D02*
D03*
Y493937D02*
D03*
X270500Y470937D02*
D03*
Y479437D02*
D03*
X307500D02*
D03*
Y470937D02*
D03*
X292500Y493937D02*
D03*
Y485437D02*
D03*
X307500D02*
D03*
Y493937D02*
D03*
X270500Y485437D02*
D03*
Y493937D02*
D03*
X255000Y487437D02*
D03*
Y478937D02*
D03*
X263500Y487437D02*
D03*
Y478937D02*
D03*
X233000Y487437D02*
D03*
Y478937D02*
D03*
X226500Y487437D02*
D03*
Y478937D02*
D03*
X361500Y299757D02*
D03*
Y291257D02*
D03*
X465900Y183900D02*
D03*
Y175400D02*
D03*
X394576Y440917D02*
D03*
Y449417D02*
D03*
X349760Y183352D02*
D03*
Y174852D02*
D03*
X364920D02*
D03*
Y183352D02*
D03*
X387660D02*
D03*
Y174852D02*
D03*
X178000Y174000D02*
D03*
Y182500D02*
D03*
X193000D02*
D03*
Y174000D02*
D03*
X185500Y182500D02*
D03*
Y174000D02*
D03*
X294200Y178600D02*
D03*
Y170100D02*
D03*
X301300Y178600D02*
D03*
Y170100D02*
D03*
X684000Y517500D02*
D03*
Y509000D02*
D03*
X380080Y183352D02*
D03*
Y174852D02*
D03*
X406300Y275500D02*
D03*
Y284000D02*
D03*
X431000Y248800D02*
D03*
Y240300D02*
D03*
X357340Y183352D02*
D03*
Y174852D02*
D03*
X199592Y100500D02*
D03*
Y109000D02*
D03*
X205500Y143700D02*
D03*
Y135200D02*
D03*
X206988Y108992D02*
D03*
Y100492D02*
D03*
X215059Y108992D02*
D03*
Y100492D02*
D03*
X338500Y98700D02*
D03*
Y107200D02*
D03*
X325500Y98700D02*
D03*
Y107200D02*
D03*
X332000Y98700D02*
D03*
Y107200D02*
D03*
X372500Y183352D02*
D03*
Y174852D02*
D03*
X376650Y326899D02*
D03*
Y318399D02*
D03*
X407300Y241800D02*
D03*
Y250300D02*
D03*
X339612Y326798D02*
D03*
Y318298D02*
D03*
X400920Y369737D02*
D03*
Y361237D02*
D03*
X407439Y369737D02*
D03*
Y361237D02*
D03*
X411800Y103000D02*
D03*
Y94500D02*
D03*
X418800D02*
D03*
Y103000D02*
D03*
X501900Y126600D02*
D03*
Y135100D02*
D03*
X441100Y115300D02*
D03*
Y123800D02*
D03*
Y114500D02*
D03*
Y106000D02*
D03*
X564100Y250900D02*
D03*
Y242400D02*
D03*
X430700Y175400D02*
D03*
Y183900D02*
D03*
X564000Y319300D02*
D03*
Y310800D02*
D03*
X212100Y495137D02*
D03*
Y486637D02*
D03*
X211313Y473737D02*
D03*
Y465237D02*
D03*
Y446537D02*
D03*
Y438037D02*
D03*
X211213Y419437D02*
D03*
Y410937D02*
D03*
X211313Y392337D02*
D03*
Y383837D02*
D03*
X211213Y364437D02*
D03*
Y355937D02*
D03*
Y337437D02*
D03*
Y328937D02*
D03*
X211713Y310437D02*
D03*
Y301937D02*
D03*
Y282937D02*
D03*
Y274437D02*
D03*
X226500Y456937D02*
D03*
Y448437D02*
D03*
Y427437D02*
D03*
Y418937D02*
D03*
Y397437D02*
D03*
Y388937D02*
D03*
Y367437D02*
D03*
Y358937D02*
D03*
Y337437D02*
D03*
Y328937D02*
D03*
Y307437D02*
D03*
Y298937D02*
D03*
Y277437D02*
D03*
Y268937D02*
D03*
X233000Y337437D02*
D03*
Y328937D02*
D03*
Y367437D02*
D03*
Y358937D02*
D03*
Y397437D02*
D03*
Y388937D02*
D03*
Y427437D02*
D03*
Y418937D02*
D03*
Y457437D02*
D03*
Y448937D02*
D03*
Y277437D02*
D03*
Y268937D02*
D03*
Y307437D02*
D03*
Y298937D02*
D03*
X255000Y457437D02*
D03*
Y448937D02*
D03*
Y427437D02*
D03*
Y418937D02*
D03*
Y397437D02*
D03*
Y388937D02*
D03*
Y367437D02*
D03*
Y358937D02*
D03*
Y337437D02*
D03*
Y328937D02*
D03*
X255500Y277437D02*
D03*
Y268937D02*
D03*
Y307437D02*
D03*
Y298937D02*
D03*
X263500Y337437D02*
D03*
Y328937D02*
D03*
Y367437D02*
D03*
Y358937D02*
D03*
Y397437D02*
D03*
Y388937D02*
D03*
Y427437D02*
D03*
Y418937D02*
D03*
Y457437D02*
D03*
Y448937D02*
D03*
X270500Y440937D02*
D03*
Y449437D02*
D03*
Y410937D02*
D03*
Y419437D02*
D03*
Y380937D02*
D03*
Y389437D02*
D03*
Y350937D02*
D03*
Y359437D02*
D03*
Y320937D02*
D03*
Y329437D02*
D03*
Y455437D02*
D03*
Y463937D02*
D03*
Y425437D02*
D03*
Y433937D02*
D03*
Y395437D02*
D03*
Y403937D02*
D03*
Y365437D02*
D03*
Y373937D02*
D03*
Y335437D02*
D03*
Y343937D02*
D03*
X307500Y455437D02*
D03*
Y463937D02*
D03*
Y425437D02*
D03*
Y433937D02*
D03*
Y395437D02*
D03*
Y403937D02*
D03*
Y365437D02*
D03*
Y373937D02*
D03*
Y335437D02*
D03*
Y343937D02*
D03*
Y305437D02*
D03*
Y313937D02*
D03*
Y449437D02*
D03*
Y440937D02*
D03*
Y419437D02*
D03*
Y410937D02*
D03*
Y389437D02*
D03*
Y380937D02*
D03*
Y359437D02*
D03*
Y350937D02*
D03*
Y329437D02*
D03*
Y320937D02*
D03*
Y299437D02*
D03*
Y290937D02*
D03*
Y275437D02*
D03*
Y283937D02*
D03*
Y269437D02*
D03*
Y260937D02*
D03*
X300000Y455437D02*
D03*
Y463937D02*
D03*
Y425437D02*
D03*
Y433937D02*
D03*
Y395437D02*
D03*
Y403937D02*
D03*
Y365437D02*
D03*
Y373937D02*
D03*
Y335437D02*
D03*
Y343937D02*
D03*
Y305437D02*
D03*
Y313937D02*
D03*
Y275437D02*
D03*
Y283937D02*
D03*
X292500Y463937D02*
D03*
Y455437D02*
D03*
Y433937D02*
D03*
Y425437D02*
D03*
Y403937D02*
D03*
Y395437D02*
D03*
Y373937D02*
D03*
Y365437D02*
D03*
Y343937D02*
D03*
Y335437D02*
D03*
Y313937D02*
D03*
Y305437D02*
D03*
Y283937D02*
D03*
Y275437D02*
D03*
X271000D02*
D03*
Y283937D02*
D03*
Y260937D02*
D03*
Y269437D02*
D03*
Y305437D02*
D03*
Y313937D02*
D03*
Y290937D02*
D03*
Y299437D02*
D03*
X264000Y277437D02*
D03*
Y268937D02*
D03*
Y307437D02*
D03*
Y298937D02*
D03*
X388200Y415437D02*
D03*
Y406937D02*
D03*
X395200Y415437D02*
D03*
Y406937D02*
D03*
X414200Y369763D02*
D03*
Y361263D02*
D03*
X421200Y369763D02*
D03*
Y361263D02*
D03*
X428200Y369763D02*
D03*
Y361263D02*
D03*
X435000Y361174D02*
D03*
Y369674D02*
D03*
X441500Y361174D02*
D03*
Y369674D02*
D03*
X394400Y361237D02*
D03*
Y369737D02*
D03*
X391500Y299757D02*
D03*
Y291257D02*
D03*
X413800Y275500D02*
D03*
Y284000D02*
D03*
X437900Y248800D02*
D03*
Y240300D02*
D03*
X444900Y248800D02*
D03*
Y240300D02*
D03*
X451900Y248800D02*
D03*
Y240300D02*
D03*
X458900Y248800D02*
D03*
Y240300D02*
D03*
X472900Y248800D02*
D03*
Y240300D02*
D03*
X465900Y248800D02*
D03*
Y240300D02*
D03*
X179900Y240600D02*
D03*
Y249100D02*
D03*
X187900D02*
D03*
Y240600D02*
D03*
X195900D02*
D03*
Y249100D02*
D03*
X628667Y506900D02*
D03*
Y515400D02*
D03*
X638000Y506900D02*
D03*
Y515400D02*
D03*
X610000Y506900D02*
D03*
Y515400D02*
D03*
X619000Y515500D02*
D03*
Y507000D02*
D03*
D31*
X525400Y125832D02*
D03*
X532881D02*
D03*
X525400Y135281D02*
D03*
X532881D02*
D03*
X529141Y125832D02*
D03*
X576726Y115213D02*
D03*
X569246D02*
D03*
X576726Y105764D02*
D03*
X569246D02*
D03*
X572986Y115213D02*
D03*
X554941Y115413D02*
D03*
X547460D02*
D03*
X554941Y105964D02*
D03*
X547460D02*
D03*
X551200Y115413D02*
D03*
X532940D02*
D03*
X525460D02*
D03*
X532940Y105964D02*
D03*
X525460D02*
D03*
X529200Y115413D02*
D03*
X510540Y115313D02*
D03*
X503060D02*
D03*
X510540Y105864D02*
D03*
X503060D02*
D03*
X506800Y115313D02*
D03*
X394068Y318698D02*
D03*
X401548D02*
D03*
X394068Y328147D02*
D03*
X401548D02*
D03*
X397808Y318698D02*
D03*
X355868Y318298D02*
D03*
X363348D02*
D03*
X355868Y327747D02*
D03*
X363348D02*
D03*
X359608Y318298D02*
D03*
X518000Y385500D02*
D03*
X525480D02*
D03*
X518000Y394949D02*
D03*
X525480D02*
D03*
X521740Y385500D02*
D03*
D32*
X613817Y167500D02*
D03*
X619329D02*
D03*
X613817Y173000D02*
D03*
X619329D02*
D03*
X158488Y466437D02*
D03*
X164000D02*
D03*
X613817Y195000D02*
D03*
X619329D02*
D03*
X613817Y189600D02*
D03*
X619329D02*
D03*
D33*
X742642Y332500D02*
D03*
X760358D02*
D03*
X742642Y350000D02*
D03*
X760358D02*
D03*
X742642Y385500D02*
D03*
X760358D02*
D03*
X742642Y367500D02*
D03*
X760358D02*
D03*
X710142Y403500D02*
D03*
X727858D02*
D03*
X710142Y419500D02*
D03*
X727858D02*
D03*
X710142Y435500D02*
D03*
X727858D02*
D03*
X710142Y451000D02*
D03*
X727858D02*
D03*
X710142Y467000D02*
D03*
X727858D02*
D03*
X710142Y498000D02*
D03*
X727858D02*
D03*
X382658Y140650D02*
D03*
X364942D02*
D03*
X710142Y513500D02*
D03*
X727858D02*
D03*
X710142Y482500D02*
D03*
X727858D02*
D03*
D34*
X691520Y330551D02*
D03*
X699000D02*
D03*
X695260Y340000D02*
D03*
X699000D02*
D03*
X691520D02*
D03*
Y347551D02*
D03*
X699000D02*
D03*
X695260Y357000D02*
D03*
X699000D02*
D03*
X691520D02*
D03*
Y364551D02*
D03*
X699000D02*
D03*
X695260Y374000D02*
D03*
X699000D02*
D03*
X691520D02*
D03*
Y391000D02*
D03*
X699000D02*
D03*
X695260D02*
D03*
X699000Y381551D02*
D03*
X691520D02*
D03*
D35*
X570800Y306688D02*
D03*
Y312200D02*
D03*
X540800D02*
D03*
Y306688D02*
D03*
X535800Y312200D02*
D03*
Y306688D02*
D03*
D36*
X584862Y269300D02*
D03*
X589862D02*
D03*
X594862D02*
D03*
X599862D02*
D03*
X604862D02*
D03*
X609862D02*
D03*
X614862D02*
D03*
X619862D02*
D03*
Y291300D02*
D03*
X614862D02*
D03*
X609862D02*
D03*
X604862D02*
D03*
X599862D02*
D03*
X594862D02*
D03*
X589862D02*
D03*
X584862D02*
D03*
X437200Y204100D02*
D03*
X442200D02*
D03*
X447200D02*
D03*
X452200D02*
D03*
X457200D02*
D03*
X462200D02*
D03*
X467200D02*
D03*
X472200D02*
D03*
Y226100D02*
D03*
X467200D02*
D03*
X462200D02*
D03*
X457200D02*
D03*
X452200D02*
D03*
X447200D02*
D03*
X442200D02*
D03*
X437200D02*
D03*
D37*
X535800Y262496D02*
D03*
X540800D02*
D03*
X545800D02*
D03*
X550800D02*
D03*
X555800D02*
D03*
X560800D02*
D03*
X565800D02*
D03*
X570800D02*
D03*
X535800Y299504D02*
D03*
X540800D02*
D03*
X545800D02*
D03*
X550800D02*
D03*
X555800D02*
D03*
X560800D02*
D03*
X565800D02*
D03*
X570800D02*
D03*
D38*
X629528Y398021D02*
D03*
Y387020D02*
D03*
X619800Y411700D02*
D03*
Y422700D02*
D03*
X610900D02*
D03*
Y411700D02*
D03*
X602000D02*
D03*
Y422700D02*
D03*
X593100Y411700D02*
D03*
Y422700D02*
D03*
X343676Y454517D02*
D03*
Y443517D02*
D03*
X386200Y448937D02*
D03*
Y437937D02*
D03*
X384437Y328399D02*
D03*
Y317399D02*
D03*
X347399Y328298D02*
D03*
Y317298D02*
D03*
X335176Y443517D02*
D03*
Y454517D02*
D03*
X347200Y425337D02*
D03*
Y414337D02*
D03*
X356100D02*
D03*
Y425337D02*
D03*
X365100D02*
D03*
Y414337D02*
D03*
X373900Y425337D02*
D03*
Y414337D02*
D03*
D39*
X597366Y375181D02*
D03*
Y372622D02*
D03*
Y370063D02*
D03*
Y367504D02*
D03*
Y364945D02*
D03*
Y362386D02*
D03*
Y359827D02*
D03*
Y357268D02*
D03*
X619807Y375181D02*
D03*
Y372622D02*
D03*
Y370063D02*
D03*
Y367504D02*
D03*
Y364945D02*
D03*
Y362386D02*
D03*
Y359827D02*
D03*
Y357268D02*
D03*
X181780Y282894D02*
D03*
Y280335D02*
D03*
Y277776D02*
D03*
Y275217D02*
D03*
Y272657D02*
D03*
Y270098D02*
D03*
Y267539D02*
D03*
Y264980D02*
D03*
X204221Y282894D02*
D03*
Y280335D02*
D03*
Y277776D02*
D03*
Y275217D02*
D03*
Y272657D02*
D03*
Y270098D02*
D03*
Y267539D02*
D03*
Y264980D02*
D03*
X181780Y364536D02*
D03*
Y361978D02*
D03*
Y359418D02*
D03*
Y356859D02*
D03*
Y354300D02*
D03*
Y351741D02*
D03*
Y349182D02*
D03*
Y346623D02*
D03*
X204221Y364536D02*
D03*
Y361978D02*
D03*
Y359418D02*
D03*
Y356859D02*
D03*
Y354300D02*
D03*
Y351741D02*
D03*
Y349182D02*
D03*
Y346623D02*
D03*
X181780Y473394D02*
D03*
Y470835D02*
D03*
Y468276D02*
D03*
Y465717D02*
D03*
Y463157D02*
D03*
Y460598D02*
D03*
Y458039D02*
D03*
Y455480D02*
D03*
X204221Y473394D02*
D03*
Y470835D02*
D03*
Y468276D02*
D03*
Y465717D02*
D03*
Y463157D02*
D03*
Y460598D02*
D03*
Y458039D02*
D03*
Y455480D02*
D03*
X181780Y446179D02*
D03*
Y443620D02*
D03*
Y441061D02*
D03*
Y438502D02*
D03*
Y435943D02*
D03*
Y433384D02*
D03*
Y430825D02*
D03*
Y428266D02*
D03*
X204221Y446179D02*
D03*
Y443620D02*
D03*
Y441061D02*
D03*
Y438502D02*
D03*
Y435943D02*
D03*
Y433384D02*
D03*
Y430825D02*
D03*
Y428266D02*
D03*
X181780Y418965D02*
D03*
Y416406D02*
D03*
Y413847D02*
D03*
Y411288D02*
D03*
Y408729D02*
D03*
Y406170D02*
D03*
Y403611D02*
D03*
Y401052D02*
D03*
X204221Y418965D02*
D03*
Y416406D02*
D03*
Y413847D02*
D03*
Y411288D02*
D03*
Y408729D02*
D03*
Y406170D02*
D03*
Y403611D02*
D03*
Y401052D02*
D03*
X181780Y391751D02*
D03*
Y389192D02*
D03*
Y386633D02*
D03*
Y384074D02*
D03*
Y381515D02*
D03*
Y378956D02*
D03*
Y376396D02*
D03*
Y373837D02*
D03*
X204221Y391751D02*
D03*
Y389192D02*
D03*
Y386633D02*
D03*
Y384074D02*
D03*
Y381515D02*
D03*
Y378956D02*
D03*
Y376396D02*
D03*
Y373837D02*
D03*
X181780Y337322D02*
D03*
Y334763D02*
D03*
Y332204D02*
D03*
Y329645D02*
D03*
Y327086D02*
D03*
Y324527D02*
D03*
Y321968D02*
D03*
Y319409D02*
D03*
X204221Y337322D02*
D03*
Y334763D02*
D03*
Y332204D02*
D03*
Y329645D02*
D03*
Y327086D02*
D03*
Y324527D02*
D03*
Y321968D02*
D03*
Y319409D02*
D03*
X181780Y310108D02*
D03*
Y307549D02*
D03*
Y304990D02*
D03*
Y302431D02*
D03*
Y299872D02*
D03*
Y297313D02*
D03*
Y294754D02*
D03*
Y292195D02*
D03*
X204221Y310108D02*
D03*
Y307549D02*
D03*
Y304990D02*
D03*
Y302431D02*
D03*
Y299872D02*
D03*
Y297313D02*
D03*
Y294754D02*
D03*
Y292195D02*
D03*
D40*
X244500Y492295D02*
D03*
Y474579D02*
D03*
X252100Y121142D02*
D03*
Y138858D02*
D03*
X244500Y282295D02*
D03*
Y264579D02*
D03*
Y312295D02*
D03*
Y294579D02*
D03*
Y342295D02*
D03*
Y324579D02*
D03*
Y372295D02*
D03*
Y354579D02*
D03*
Y402295D02*
D03*
Y384579D02*
D03*
Y432295D02*
D03*
Y414579D02*
D03*
Y462295D02*
D03*
Y444579D02*
D03*
D41*
X598517Y395495D02*
D03*
Y392929D02*
D03*
Y390362D02*
D03*
Y387795D02*
D03*
X617717Y395495D02*
D03*
Y390362D02*
D03*
Y387795D02*
D03*
Y392929D02*
D03*
D42*
X626957Y473764D02*
D03*
Y471795D02*
D03*
Y469827D02*
D03*
Y467858D02*
D03*
Y465890D02*
D03*
Y463921D02*
D03*
Y461953D02*
D03*
Y459984D02*
D03*
Y458016D02*
D03*
Y456047D02*
D03*
Y454079D02*
D03*
Y452110D02*
D03*
Y450142D02*
D03*
Y448173D02*
D03*
Y446205D02*
D03*
Y444236D02*
D03*
X584043D02*
D03*
Y446205D02*
D03*
Y448173D02*
D03*
Y450142D02*
D03*
Y452110D02*
D03*
Y454079D02*
D03*
Y456047D02*
D03*
Y458016D02*
D03*
Y459984D02*
D03*
Y461953D02*
D03*
Y463921D02*
D03*
Y465890D02*
D03*
Y467858D02*
D03*
Y469827D02*
D03*
Y471795D02*
D03*
Y473764D02*
D03*
X340043Y361673D02*
D03*
Y363642D02*
D03*
Y365610D02*
D03*
Y367579D02*
D03*
Y369547D02*
D03*
Y371516D02*
D03*
Y373484D02*
D03*
Y375453D02*
D03*
Y377421D02*
D03*
Y379390D02*
D03*
Y381358D02*
D03*
Y383327D02*
D03*
Y385295D02*
D03*
Y387264D02*
D03*
Y389232D02*
D03*
Y391201D02*
D03*
X382957D02*
D03*
Y389232D02*
D03*
Y387264D02*
D03*
Y385295D02*
D03*
Y383327D02*
D03*
Y381358D02*
D03*
Y379390D02*
D03*
Y377421D02*
D03*
Y375453D02*
D03*
Y373484D02*
D03*
Y371516D02*
D03*
Y369547D02*
D03*
Y367579D02*
D03*
Y365610D02*
D03*
Y363642D02*
D03*
Y361673D02*
D03*
D43*
X620264Y437543D02*
D03*
X618295D02*
D03*
X616327D02*
D03*
X614358D02*
D03*
X612390D02*
D03*
X610421D02*
D03*
X608453D02*
D03*
X606484D02*
D03*
X604516D02*
D03*
X602547D02*
D03*
X600579D02*
D03*
X598610D02*
D03*
X596642D02*
D03*
X594673D02*
D03*
X592705D02*
D03*
X590736D02*
D03*
Y480457D02*
D03*
X592705D02*
D03*
X594673D02*
D03*
X596642D02*
D03*
X598610D02*
D03*
X600579D02*
D03*
X602547D02*
D03*
X604516D02*
D03*
X606484D02*
D03*
X608453D02*
D03*
X610421D02*
D03*
X612390D02*
D03*
X614358D02*
D03*
X616327D02*
D03*
X618295D02*
D03*
X620264D02*
D03*
X346736Y397894D02*
D03*
X348705D02*
D03*
X350673D02*
D03*
X352642D02*
D03*
X354610D02*
D03*
X356579D02*
D03*
X358547D02*
D03*
X360516D02*
D03*
X362484D02*
D03*
X364453D02*
D03*
X366421D02*
D03*
X368390D02*
D03*
X370358D02*
D03*
X372327D02*
D03*
X374295D02*
D03*
X376264D02*
D03*
Y354980D02*
D03*
X374295D02*
D03*
X372327D02*
D03*
X370358D02*
D03*
X368390D02*
D03*
X366421D02*
D03*
X364453D02*
D03*
X362484D02*
D03*
X360516D02*
D03*
X358547D02*
D03*
X356579D02*
D03*
X354610D02*
D03*
X352642D02*
D03*
X350673D02*
D03*
X348705D02*
D03*
X346736D02*
D03*
D44*
X363000Y259500D02*
D03*
Y245500D02*
D03*
X351000Y259500D02*
D03*
Y245500D02*
D03*
X375000D02*
D03*
Y259500D02*
D03*
X387000Y245500D02*
D03*
Y259500D02*
D03*
D45*
X144000Y183000D02*
D03*
Y163000D02*
D03*
D46*
X164000Y182858D02*
D03*
Y165142D02*
D03*
D47*
X178500Y165000D02*
D03*
X192500D02*
D03*
D48*
X354176Y448917D02*
D03*
Y458917D02*
D03*
Y453917D02*
D03*
Y443917D02*
D03*
X376176Y458917D02*
D03*
Y453917D02*
D03*
Y448917D02*
D03*
Y443917D02*
D03*
D49*
X213000Y121700D02*
D03*
X218000D02*
D03*
X223000D02*
D03*
X228000D02*
D03*
X213000Y143700D02*
D03*
X223000D02*
D03*
X228000D02*
D03*
X218000D02*
D03*
D50*
X220526Y132673D02*
D03*
D51*
X404000Y200000D02*
D03*
D52*
X406559D02*
D03*
X409118D02*
D03*
X411677D02*
D03*
X414236D02*
D03*
X416795D02*
D03*
X419354D02*
D03*
X421913D02*
D03*
X424473D02*
D03*
X427032D02*
D03*
X404000Y229709D02*
D03*
X406559D02*
D03*
X409118D02*
D03*
X411677D02*
D03*
X414236D02*
D03*
X416795D02*
D03*
X419354D02*
D03*
X421913D02*
D03*
X424473D02*
D03*
X427032D02*
D03*
D53*
X310900Y153490D02*
D03*
X301884D02*
D03*
X319916D02*
D03*
X415600Y136991D02*
D03*
X406585D02*
D03*
X424616D02*
D03*
D54*
X310900Y127900D02*
D03*
X415600Y111400D02*
D03*
D55*
X468200Y136200D02*
D03*
D56*
Y133641D02*
D03*
Y131082D02*
D03*
Y128523D02*
D03*
Y125964D02*
D03*
Y123405D02*
D03*
Y120846D02*
D03*
Y118287D02*
D03*
Y115727D02*
D03*
Y113169D02*
D03*
X493609Y136200D02*
D03*
Y133641D02*
D03*
Y131082D02*
D03*
Y128523D02*
D03*
Y125964D02*
D03*
Y123405D02*
D03*
Y120846D02*
D03*
Y118287D02*
D03*
Y115727D02*
D03*
Y113169D02*
D03*
D57*
X535500Y216500D02*
D03*
D58*
X571374Y158579D02*
D03*
X573343D02*
D03*
X541847Y158579D02*
D03*
X563500D02*
D03*
X559563Y158579D02*
D03*
X565469Y158579D02*
D03*
X557594Y158579D02*
D03*
X569406Y218421D02*
D03*
X539878D02*
D03*
X581217Y158579D02*
D03*
X587122Y158579D02*
D03*
X579248Y158579D02*
D03*
X565469Y218421D02*
D03*
X547752Y218421D02*
D03*
X551689D02*
D03*
X549720D02*
D03*
X577280Y158579D02*
D03*
X561531Y158579D02*
D03*
X559563Y218421D02*
D03*
X583185Y158579D02*
D03*
X581217Y218421D02*
D03*
X563500D02*
D03*
X561531D02*
D03*
X583185D02*
D03*
X553657Y218421D02*
D03*
X539878Y158579D02*
D03*
X569406D02*
D03*
X585153Y158579D02*
D03*
X567437Y158579D02*
D03*
X555626Y158579D02*
D03*
X543815D02*
D03*
X567437Y218421D02*
D03*
X575311Y158579D02*
D03*
X573343Y218421D02*
D03*
X549720Y158579D02*
D03*
X547752Y158579D02*
D03*
X551689Y158579D02*
D03*
X553657D02*
D03*
X541847Y218421D02*
D03*
X545784D02*
D03*
Y158579D02*
D03*
X543815Y218421D02*
D03*
X555626D02*
D03*
X575311D02*
D03*
X557594D02*
D03*
X571374Y218421D02*
D03*
X585153Y218421D02*
D03*
X587122D02*
D03*
X579248D02*
D03*
X577280D02*
D03*
D59*
X533579Y210154D02*
D03*
Y166847D02*
D03*
X533579Y172752D02*
D03*
Y180626D02*
D03*
Y170783D02*
D03*
Y168815D02*
D03*
Y164878D02*
D03*
X593421Y196374D02*
D03*
Y200311D02*
D03*
Y204248D02*
D03*
Y212122D02*
D03*
X593421Y208185D02*
D03*
Y210154D02*
D03*
X593421Y206217D02*
D03*
Y186531D02*
D03*
Y192437D02*
D03*
X533579Y196374D02*
D03*
X533579Y186531D02*
D03*
X593421Y176689D02*
D03*
X533579D02*
D03*
Y174721D02*
D03*
X593421Y168815D02*
D03*
X533579Y178657D02*
D03*
X593421Y184563D02*
D03*
X533579Y188500D02*
D03*
Y198343D02*
D03*
X593421Y202279D02*
D03*
X533579Y212122D02*
D03*
X593421Y164878D02*
D03*
Y172752D02*
D03*
X593421Y170783D02*
D03*
Y166847D02*
D03*
X593421Y180626D02*
D03*
Y178657D02*
D03*
Y174721D02*
D03*
X533579Y192437D02*
D03*
Y190469D02*
D03*
Y182595D02*
D03*
X533579Y208185D02*
D03*
Y206217D02*
D03*
X533579Y184563D02*
D03*
Y202279D02*
D03*
Y204248D02*
D03*
Y200311D02*
D03*
X533579Y194405D02*
D03*
X593421D02*
D03*
Y198343D02*
D03*
Y190469D02*
D03*
X593421Y182595D02*
D03*
X593421Y188500D02*
D03*
D60*
X391535Y89567D02*
D03*
X356496D02*
D03*
Y111221D02*
D03*
X391535D02*
D03*
D61*
X367717Y111614D02*
D03*
X370866D02*
D03*
X374016D02*
D03*
X377165D02*
D03*
X380315D02*
D03*
D62*
X282633Y322778D02*
D03*
X277500D02*
D03*
X280067D02*
D03*
X285200D02*
D03*
X277500Y341978D02*
D03*
X280067D02*
D03*
X282633D02*
D03*
X285200D02*
D03*
X282633Y352778D02*
D03*
X277500D02*
D03*
X280067D02*
D03*
X285200D02*
D03*
X277500Y371978D02*
D03*
X280067D02*
D03*
X282633D02*
D03*
X285200D02*
D03*
X282633Y382778D02*
D03*
X277500D02*
D03*
X280067D02*
D03*
X285200D02*
D03*
X277500Y401978D02*
D03*
X280067D02*
D03*
X282633D02*
D03*
X285200D02*
D03*
X282633Y412778D02*
D03*
X277500D02*
D03*
X280067D02*
D03*
X285200D02*
D03*
X277500Y431978D02*
D03*
X280067D02*
D03*
X282633D02*
D03*
X285200D02*
D03*
X282633Y442778D02*
D03*
X277500D02*
D03*
X280067D02*
D03*
X285200D02*
D03*
X277500Y461978D02*
D03*
X280067D02*
D03*
X282633D02*
D03*
X285200D02*
D03*
X282633Y472778D02*
D03*
X277500D02*
D03*
X280067D02*
D03*
X285200D02*
D03*
X277500Y491978D02*
D03*
X280067D02*
D03*
X282633D02*
D03*
X285200D02*
D03*
X283133Y262778D02*
D03*
X278000D02*
D03*
X280567D02*
D03*
X285700D02*
D03*
X278000Y281978D02*
D03*
X280567D02*
D03*
X283133D02*
D03*
X285700D02*
D03*
X283133Y292778D02*
D03*
X278000D02*
D03*
X280567D02*
D03*
X285700D02*
D03*
X278000Y311978D02*
D03*
X280567D02*
D03*
X283133D02*
D03*
X285700D02*
D03*
D63*
X357000Y236307D02*
D03*
X364874D02*
D03*
X372748D02*
D03*
X380622D02*
D03*
Y193000D02*
D03*
X372748D02*
D03*
X364874D02*
D03*
X357000D02*
D03*
D113*
X120010Y117610D02*
D03*
D114*
Y137295D02*
D03*
D115*
X622015Y100000D02*
D03*
X629889D02*
D03*
X637763D02*
D03*
X622015Y123400D02*
D03*
X629889D02*
D03*
X637763D02*
D03*
X341500Y127800D02*
D03*
Y137800D02*
D03*
X622204Y146800D02*
D03*
X630078D02*
D03*
X637952D02*
D03*
X645826D02*
D03*
X614330D02*
D03*
D116*
X645637Y100000D02*
D03*
Y123400D02*
D03*
X653700Y146800D02*
D03*
D117*
X328900Y229800D02*
D03*
Y199800D02*
D03*
D118*
X645100Y263700D02*
D03*
Y296600D02*
D03*
D119*
X238200Y122800D02*
D03*
Y142800D02*
D03*
D120*
X760700Y145000D02*
D03*
Y135000D02*
D03*
Y125000D02*
D03*
X700700Y115000D02*
D03*
Y125000D02*
D03*
Y135000D02*
D03*
Y145000D02*
D03*
D121*
X848425Y94488D02*
D03*
X104331D02*
D03*
X104331Y530315D02*
D03*
X848425D02*
D03*
D122*
X115110Y162173D02*
D03*
D123*
X102118Y180283D02*
D03*
X126921D02*
D03*
D124*
X341500Y117800D02*
D03*
D125*
X786500Y144974D02*
D03*
Y129974D02*
D03*
Y114974D02*
D03*
X836500D02*
D03*
Y129974D02*
D03*
Y144974D02*
D03*
Y327000D02*
D03*
Y507000D02*
D03*
Y492000D02*
D03*
Y477000D02*
D03*
Y462000D02*
D03*
Y447000D02*
D03*
Y432000D02*
D03*
Y417000D02*
D03*
Y402000D02*
D03*
Y387000D02*
D03*
Y372000D02*
D03*
Y357000D02*
D03*
Y342000D02*
D03*
X786500Y327000D02*
D03*
Y342000D02*
D03*
Y357000D02*
D03*
Y372000D02*
D03*
Y387000D02*
D03*
Y402000D02*
D03*
Y417000D02*
D03*
Y432000D02*
D03*
Y447000D02*
D03*
Y462000D02*
D03*
Y477000D02*
D03*
Y492000D02*
D03*
Y507000D02*
D03*
D126*
X134500Y479937D02*
D03*
X123319Y474484D02*
D03*
X134500Y469031D02*
D03*
X123319Y463579D02*
D03*
X134500Y458126D02*
D03*
X123319Y452673D02*
D03*
X134500Y447221D02*
D03*
X123319Y441768D02*
D03*
X134500Y436315D02*
D03*
Y392693D02*
D03*
Y403598D02*
D03*
Y414504D02*
D03*
Y425410D02*
D03*
Y381787D02*
D03*
Y370882D02*
D03*
Y359976D02*
D03*
Y349071D02*
D03*
Y338165D02*
D03*
Y327260D02*
D03*
Y316354D02*
D03*
Y305449D02*
D03*
Y294543D02*
D03*
Y283638D02*
D03*
X123319Y289091D02*
D03*
Y299996D02*
D03*
Y310902D02*
D03*
Y321807D02*
D03*
Y332713D02*
D03*
Y343618D02*
D03*
Y354524D02*
D03*
Y365429D02*
D03*
Y376335D02*
D03*
Y387240D02*
D03*
Y398146D02*
D03*
Y409051D02*
D03*
Y419957D02*
D03*
Y430862D02*
D03*
D127*
X128909Y507417D02*
D03*
Y256157D02*
D03*
D128*
X824000Y180500D02*
D03*
X814000D02*
D03*
X824000Y190500D02*
D03*
X814000D02*
D03*
X824000Y200500D02*
D03*
X814000D02*
D03*
X824000Y210500D02*
D03*
X814000D02*
D03*
X824000Y220500D02*
D03*
X814000D02*
D03*
X824000Y230500D02*
D03*
X814000D02*
D03*
X824000Y240500D02*
D03*
X814000D02*
D03*
X824000Y250500D02*
D03*
X814000D02*
D03*
X824000Y260500D02*
D03*
X814000D02*
D03*
X824000Y270500D02*
D03*
X814000D02*
D03*
M02*
