G04 Layer_Color=16711935*
%FSLAX25Y25*%
%MOIN*%
G70*
G01*
G75*
%ADD160C,0.00394*%
D160*
X781775Y201525D02*
G03*
X781775Y201525I-1969J0D01*
G01*
X663011Y175975D02*
G03*
X663011Y175975I-1969J0D01*
G01*
X695775Y201525D02*
G03*
X695775Y201525I-1969J0D01*
G01*
Y224025D02*
G03*
X695775Y224025I-1969J0D01*
G01*
Y246525D02*
G03*
X695775Y246525I-1969J0D01*
G01*
X706011Y175975D02*
G03*
X706011Y175975I-1969J0D01*
G01*
X652775Y224025D02*
G03*
X652775Y224025I-1969J0D01*
G01*
Y246525D02*
G03*
X652775Y246525I-1969J0D01*
G01*
Y201525D02*
G03*
X652775Y201525I-1969J0D01*
G01*
X781775Y224025D02*
G03*
X781775Y224025I-1969J0D01*
G01*
X738775Y246525D02*
G03*
X738775Y246525I-1969J0D01*
G01*
X792011Y175975D02*
G03*
X792011Y175975I-1969J0D01*
G01*
X738775Y224025D02*
G03*
X738775Y224025I-1969J0D01*
G01*
X781775Y246525D02*
G03*
X781775Y246525I-1969J0D01*
G01*
X749011Y175975D02*
G03*
X749011Y175975I-1969J0D01*
G01*
X738775Y201525D02*
G03*
X738775Y201525I-1969J0D01*
G01*
X538536Y269779D02*
G03*
X538536Y269779I-1969J0D01*
G01*
X193907Y500086D02*
X207293D01*
X193907Y481188D02*
X207293D01*
Y500086D01*
X193907Y481188D02*
Y500086D01*
X147907Y481188D02*
Y500086D01*
X161293Y481188D02*
Y500086D01*
X147907Y481188D02*
X161293D01*
X147907Y500086D02*
X161293D01*
X163907D02*
X177293D01*
X163907Y481188D02*
X177293D01*
Y500086D01*
X163907Y481188D02*
Y500086D01*
X398193Y266870D02*
Y285768D01*
X384807Y266870D02*
Y285768D01*
X398193D01*
X384807Y266870D02*
X398193D01*
X354807Y285768D02*
X368193D01*
X354807Y266870D02*
X368193D01*
Y285768D01*
X354807Y266870D02*
Y285768D01*
X198307Y164551D02*
Y183449D01*
X211693Y164551D02*
Y183449D01*
X198307Y164551D02*
X211693D01*
X198307Y183449D02*
X211693D01*
X275207Y183949D02*
X288593D01*
X275207Y165051D02*
X288593D01*
Y183949D01*
X275207Y165051D02*
Y183949D01*
X297851Y104807D02*
X316749D01*
X297851Y118193D02*
X316749D01*
Y104807D02*
Y118193D01*
X297851Y104807D02*
Y118193D01*
X212807Y183449D02*
X226193D01*
X212807Y164551D02*
X226193D01*
Y183449D01*
X212807Y164551D02*
Y183449D01*
X363251Y163443D02*
X382149D01*
X363251Y150057D02*
X382149D01*
X363251D02*
Y163443D01*
X382149Y150057D02*
Y163443D01*
X773925Y194635D02*
Y205265D01*
X795925Y194635D02*
Y205265D01*
X773925D02*
X795925D01*
X773925Y194635D02*
X795925D01*
X644925Y182865D02*
X666925D01*
X644925Y172235D02*
X666925D01*
X644925D02*
Y182865D01*
X666925Y172235D02*
Y182865D01*
X687925Y194635D02*
Y205265D01*
X709925Y194635D02*
Y205265D01*
X687925D02*
X709925D01*
X687925Y194635D02*
X709925D01*
X687925Y217135D02*
X709925D01*
X687925Y227765D02*
X709925D01*
Y217135D02*
Y227765D01*
X687925Y217135D02*
Y227765D01*
Y239635D02*
Y250265D01*
X709925Y239635D02*
Y250265D01*
X687925D02*
X709925D01*
X687925Y239635D02*
X709925D01*
X687925Y182865D02*
X709925D01*
X687925Y172235D02*
X709925D01*
X687925D02*
Y182865D01*
X709925Y172235D02*
Y182865D01*
X644925Y217135D02*
Y227765D01*
X666925Y217135D02*
Y227765D01*
X644925D02*
X666925D01*
X644925Y217135D02*
X666925D01*
X644925Y239635D02*
X666925D01*
X644925Y250265D02*
X666925D01*
Y239635D02*
Y250265D01*
X644925Y239635D02*
Y250265D01*
Y194635D02*
Y205265D01*
X666925Y194635D02*
Y205265D01*
X644925D02*
X666925D01*
X644925Y194635D02*
X666925D01*
X773925Y217135D02*
X795925D01*
X773925Y227765D02*
X795925D01*
Y217135D02*
Y227765D01*
X773925Y217135D02*
Y227765D01*
X730925Y239635D02*
Y250265D01*
X752925Y239635D02*
Y250265D01*
X730925D02*
X752925D01*
X730925Y239635D02*
X752925D01*
X773925Y182865D02*
X795925D01*
X773925Y172235D02*
X795925D01*
X773925D02*
Y182865D01*
X795925Y172235D02*
Y182865D01*
X730925Y217135D02*
Y227765D01*
X752925Y217135D02*
Y227765D01*
X730925D02*
X752925D01*
X730925Y217135D02*
X752925D01*
X773925Y239635D02*
X795925D01*
X773925Y250265D02*
X795925D01*
Y239635D02*
Y250265D01*
X773925Y239635D02*
Y250265D01*
X752925Y172235D02*
Y182865D01*
X730925Y172235D02*
Y182865D01*
Y172235D02*
X752925D01*
X730925Y182865D02*
X752925D01*
X730925Y194635D02*
X752925D01*
X730925Y205265D02*
X752925D01*
Y194635D02*
Y205265D01*
X730925Y194635D02*
Y205265D01*
X533024Y266236D02*
X573576D01*
X533024Y295764D02*
X573576D01*
X533024Y266236D02*
Y295764D01*
X573576Y266236D02*
Y295764D01*
X369807Y266870D02*
X383193D01*
X369807Y285768D02*
X383193D01*
X369807Y266870D02*
Y285768D01*
X383193Y266870D02*
Y285768D01*
X339307Y266870D02*
X352693D01*
X339307Y285768D02*
X352693D01*
X339307Y266870D02*
Y285768D01*
X352693Y266870D02*
Y285768D01*
X573949Y131207D02*
Y144593D01*
X555051Y131207D02*
Y144593D01*
Y131207D02*
X573949D01*
X555051Y144593D02*
X573949D01*
X445807Y124049D02*
X459193D01*
X445807Y105151D02*
X459193D01*
Y124049D01*
X445807Y105151D02*
Y124049D01*
M02*
