G04 Layer_Color=16711935*
%FSLAX25Y25*%
%MOIN*%
G70*
G01*
G75*
%ADD181R,0.04800X0.05800*%
%ADD182R,0.06800X0.05800*%
%ADD183R,0.05800X0.04800*%
%ADD185R,0.03556X0.04737*%
%ADD191R,0.05800X0.06800*%
%ADD197R,0.07887X0.07099*%
%ADD200R,0.07099X0.07887*%
%ADD210C,0.02800*%
%ADD218R,0.10249X0.10249*%
%ADD219C,0.10249*%
%ADD220C,0.06706*%
%ADD221R,0.06706X0.06706*%
%ADD222C,0.05524*%
%ADD223C,0.06800*%
%ADD224C,0.06300*%
%ADD225C,0.04737*%
%ADD226C,0.12611*%
G04:AMPARAMS|DCode=227|XSize=86.74mil|YSize=165.48mil|CornerRadius=23.68mil|HoleSize=0mil|Usage=FLASHONLY|Rotation=270.000|XOffset=0mil|YOffset=0mil|HoleType=Round|Shape=RoundedRectangle|*
%AMROUNDEDRECTD227*
21,1,0.08674,0.11811,0,0,270.0*
21,1,0.03937,0.16548,0,0,270.0*
1,1,0.04737,-0.05905,-0.01968*
1,1,0.04737,-0.05905,0.01968*
1,1,0.04737,0.05905,0.01968*
1,1,0.04737,0.05905,-0.01968*
%
%ADD227ROUNDEDRECTD227*%
G04:AMPARAMS|DCode=228|XSize=165.48mil|YSize=86.74mil|CornerRadius=23.68mil|HoleSize=0mil|Usage=FLASHONLY|Rotation=270.000|XOffset=0mil|YOffset=0mil|HoleType=Round|Shape=RoundedRectangle|*
%AMROUNDEDRECTD228*
21,1,0.16548,0.03937,0,0,270.0*
21,1,0.11811,0.08674,0,0,270.0*
1,1,0.04737,-0.01968,-0.05905*
1,1,0.04737,-0.01968,0.05905*
1,1,0.04737,0.01968,0.05905*
1,1,0.04737,0.01968,-0.05905*
%
%ADD228ROUNDEDRECTD228*%
%ADD229R,0.06706X0.06706*%
%ADD230C,0.08674*%
%ADD231C,0.07453*%
%ADD232C,0.20485*%
%ADD233C,0.06706*%
%ADD234C,0.03800*%
%ADD235C,0.03300*%
%ADD236C,0.04300*%
D181*
X407700Y325500D02*
D03*
X416200D02*
D03*
X588200Y464000D02*
D03*
X579700D02*
D03*
X569700Y424900D02*
D03*
X561200D02*
D03*
X562800Y210200D02*
D03*
X554300D02*
D03*
X576600Y209800D02*
D03*
X585100D02*
D03*
X575400Y187200D02*
D03*
X583900D02*
D03*
X782121Y202450D02*
D03*
X790621D02*
D03*
X739121D02*
D03*
X747621D02*
D03*
X696500D02*
D03*
X705000D02*
D03*
X653121D02*
D03*
X661621D02*
D03*
X782121Y224950D02*
D03*
X790621D02*
D03*
X739121D02*
D03*
X747621D02*
D03*
X696121D02*
D03*
X704621D02*
D03*
X653121D02*
D03*
X661621D02*
D03*
X782121Y247450D02*
D03*
X790621D02*
D03*
X739121D02*
D03*
X747621D02*
D03*
X696121D02*
D03*
X704621D02*
D03*
X653121D02*
D03*
X661621D02*
D03*
X277600Y267737D02*
D03*
X286100D02*
D03*
X277600Y297737D02*
D03*
X286100D02*
D03*
X277100Y326637D02*
D03*
X285600D02*
D03*
X277100Y357737D02*
D03*
X285600D02*
D03*
X277100Y387737D02*
D03*
X285600D02*
D03*
X277400Y417737D02*
D03*
X285900D02*
D03*
X277100Y447737D02*
D03*
X285600D02*
D03*
X277100Y478037D02*
D03*
X285600D02*
D03*
X646100Y106900D02*
D03*
X637600D02*
D03*
X583900Y180100D02*
D03*
X575400D02*
D03*
X654300Y139100D02*
D03*
X645800D02*
D03*
X637600Y115300D02*
D03*
X646100D02*
D03*
X537900Y203300D02*
D03*
X529400D02*
D03*
X537900Y191400D02*
D03*
X529400D02*
D03*
D182*
X615349Y366282D02*
D03*
X626349D02*
D03*
Y356439D02*
D03*
X615349D02*
D03*
D183*
X407100Y310600D02*
D03*
Y319100D02*
D03*
X417100Y310600D02*
D03*
Y319100D02*
D03*
X529280Y340007D02*
D03*
Y348507D02*
D03*
X537030D02*
D03*
Y340007D02*
D03*
X544780D02*
D03*
Y348507D02*
D03*
X437450Y291257D02*
D03*
Y299757D02*
D03*
X423550Y291257D02*
D03*
Y299757D02*
D03*
X430500D02*
D03*
Y291257D02*
D03*
X659271Y183550D02*
D03*
Y175050D02*
D03*
X652879Y183550D02*
D03*
Y175050D02*
D03*
X695879Y183550D02*
D03*
Y175050D02*
D03*
X702271Y183550D02*
D03*
Y175050D02*
D03*
X738879Y183550D02*
D03*
Y175050D02*
D03*
X745271Y183550D02*
D03*
Y175050D02*
D03*
X788271Y183550D02*
D03*
Y175050D02*
D03*
X781879Y183550D02*
D03*
Y175050D02*
D03*
X560400Y419100D02*
D03*
Y410600D02*
D03*
X570400Y419100D02*
D03*
Y410600D02*
D03*
X558200Y154400D02*
D03*
Y162900D02*
D03*
X540000Y178000D02*
D03*
Y169500D02*
D03*
X717900Y135000D02*
D03*
Y143500D02*
D03*
X709100Y135000D02*
D03*
Y143500D02*
D03*
X695260Y376760D02*
D03*
Y368260D02*
D03*
Y333260D02*
D03*
Y341760D02*
D03*
Y382500D02*
D03*
Y391000D02*
D03*
Y350760D02*
D03*
Y359260D02*
D03*
X545800Y151600D02*
D03*
Y143100D02*
D03*
X547700Y164600D02*
D03*
Y173100D02*
D03*
X558000Y230400D02*
D03*
Y238900D02*
D03*
D185*
X843488Y492000D02*
D03*
X849000D02*
D03*
X843488Y402000D02*
D03*
X849000D02*
D03*
X843488Y417000D02*
D03*
X849000D02*
D03*
X843488Y432000D02*
D03*
X849000D02*
D03*
X843488Y447000D02*
D03*
X849000D02*
D03*
X843488Y462000D02*
D03*
X849000D02*
D03*
X843488Y477000D02*
D03*
X849000D02*
D03*
X843488Y507000D02*
D03*
X849000D02*
D03*
D191*
X620264Y474957D02*
D03*
Y485957D02*
D03*
X619600Y444200D02*
D03*
Y433200D02*
D03*
X599400Y460900D02*
D03*
Y449900D02*
D03*
X606800Y460900D02*
D03*
Y449900D02*
D03*
X346700Y354937D02*
D03*
Y365937D02*
D03*
X367600Y385537D02*
D03*
Y374537D02*
D03*
X360200Y385537D02*
D03*
Y374537D02*
D03*
X347400Y402300D02*
D03*
Y391300D02*
D03*
D197*
X812000Y129474D02*
D03*
Y115474D02*
D03*
D200*
X805500Y402000D02*
D03*
X819500D02*
D03*
X805500Y417000D02*
D03*
X819500D02*
D03*
X805500Y432000D02*
D03*
X819500D02*
D03*
X805500Y447000D02*
D03*
X819500D02*
D03*
X805500Y462000D02*
D03*
X819500D02*
D03*
X805500Y477000D02*
D03*
X819500D02*
D03*
X805500Y492000D02*
D03*
X819500D02*
D03*
Y507000D02*
D03*
X805500D02*
D03*
D210*
X767126Y403642D02*
D03*
X776230D02*
D03*
X767126Y411417D02*
D03*
X776230D02*
D03*
X767126Y419587D02*
D03*
X776230D02*
D03*
X767126Y427559D02*
D03*
X776230D02*
D03*
X767126Y435236D02*
D03*
X776230D02*
D03*
X767126Y443012D02*
D03*
X776230D02*
D03*
X767126Y450886D02*
D03*
X776230D02*
D03*
X767126Y458957D02*
D03*
X776230D02*
D03*
X767126Y467028D02*
D03*
X776230D02*
D03*
X767126Y474803D02*
D03*
X776230D02*
D03*
X767126Y482480D02*
D03*
X776230D02*
D03*
X767126Y490256D02*
D03*
X776230D02*
D03*
X767126Y497933D02*
D03*
X776230D02*
D03*
X767126Y505709D02*
D03*
X776230D02*
D03*
Y513484D02*
D03*
X767126D02*
D03*
X591500Y367504D02*
D03*
X540500Y364000D02*
D03*
D218*
X120010Y117610D02*
D03*
D219*
Y137295D02*
D03*
D220*
X622015Y100000D02*
D03*
X629889D02*
D03*
X637763D02*
D03*
X622015Y123400D02*
D03*
X629889D02*
D03*
X637763D02*
D03*
X341500Y127800D02*
D03*
Y137800D02*
D03*
X622204Y146800D02*
D03*
X630078D02*
D03*
X637952D02*
D03*
X645826D02*
D03*
X614330D02*
D03*
D221*
X645637Y100000D02*
D03*
Y123400D02*
D03*
X653700Y146800D02*
D03*
D222*
X328900Y229800D02*
D03*
Y199800D02*
D03*
D223*
X645100Y263700D02*
D03*
Y296600D02*
D03*
D224*
X238200Y122800D02*
D03*
Y142800D02*
D03*
D225*
X760700Y145000D02*
D03*
Y135000D02*
D03*
Y125000D02*
D03*
X700700Y115000D02*
D03*
Y125000D02*
D03*
Y135000D02*
D03*
Y145000D02*
D03*
D226*
X848425Y94488D02*
D03*
X104331D02*
D03*
X104331Y530315D02*
D03*
X848425D02*
D03*
D227*
X115110Y162173D02*
D03*
D228*
X102118Y180283D02*
D03*
X126921D02*
D03*
D229*
X341500Y117800D02*
D03*
D230*
X786500Y144974D02*
D03*
Y129974D02*
D03*
Y114974D02*
D03*
X836500D02*
D03*
Y129974D02*
D03*
Y144974D02*
D03*
Y327000D02*
D03*
Y507000D02*
D03*
Y492000D02*
D03*
Y477000D02*
D03*
Y462000D02*
D03*
Y447000D02*
D03*
Y432000D02*
D03*
Y417000D02*
D03*
Y402000D02*
D03*
Y387000D02*
D03*
Y372000D02*
D03*
Y357000D02*
D03*
Y342000D02*
D03*
X786500Y327000D02*
D03*
Y342000D02*
D03*
Y357000D02*
D03*
Y372000D02*
D03*
Y387000D02*
D03*
Y402000D02*
D03*
Y417000D02*
D03*
Y432000D02*
D03*
Y447000D02*
D03*
Y462000D02*
D03*
Y477000D02*
D03*
Y492000D02*
D03*
Y507000D02*
D03*
D231*
X134500Y479937D02*
D03*
X123319Y474484D02*
D03*
X134500Y469031D02*
D03*
X123319Y463579D02*
D03*
X134500Y458126D02*
D03*
X123319Y452673D02*
D03*
X134500Y447221D02*
D03*
X123319Y441768D02*
D03*
X134500Y436315D02*
D03*
Y392693D02*
D03*
Y403598D02*
D03*
Y414504D02*
D03*
Y425410D02*
D03*
Y381787D02*
D03*
Y370882D02*
D03*
Y359976D02*
D03*
Y349071D02*
D03*
Y338165D02*
D03*
Y327260D02*
D03*
Y316354D02*
D03*
Y305449D02*
D03*
Y294543D02*
D03*
Y283638D02*
D03*
X123319Y289091D02*
D03*
Y299996D02*
D03*
Y310902D02*
D03*
Y321807D02*
D03*
Y332713D02*
D03*
Y343618D02*
D03*
Y354524D02*
D03*
Y365429D02*
D03*
Y376335D02*
D03*
Y387240D02*
D03*
Y398146D02*
D03*
Y409051D02*
D03*
Y419957D02*
D03*
Y430862D02*
D03*
D232*
X128909Y507417D02*
D03*
Y256157D02*
D03*
D233*
X824000Y180500D02*
D03*
X814000D02*
D03*
X824000Y190500D02*
D03*
X814000D02*
D03*
X824000Y200500D02*
D03*
X814000D02*
D03*
X824000Y210500D02*
D03*
X814000D02*
D03*
X824000Y220500D02*
D03*
X814000D02*
D03*
X824000Y230500D02*
D03*
X814000D02*
D03*
X824000Y240500D02*
D03*
X814000D02*
D03*
X824000Y250500D02*
D03*
X814000D02*
D03*
X824000Y260500D02*
D03*
X814000D02*
D03*
X824000Y270500D02*
D03*
X814000D02*
D03*
D234*
X397000Y230200D02*
D03*
X390600Y230100D02*
D03*
X412700Y191700D02*
D03*
X417100Y310600D02*
D03*
X407100D02*
D03*
X407700Y325500D02*
D03*
X406900Y319700D02*
D03*
X416200Y325500D02*
D03*
X416900Y319700D02*
D03*
X570400Y419100D02*
D03*
X569700Y424900D02*
D03*
X560400Y419100D02*
D03*
X561200Y424900D02*
D03*
X570400Y410600D02*
D03*
X560400D02*
D03*
X397800Y316800D02*
D03*
X538800Y318500D02*
D03*
X778471Y202500D02*
D03*
X767700Y180000D02*
D03*
X775000Y180100D02*
D03*
X767700Y197400D02*
D03*
X775000Y197500D02*
D03*
X149500Y294000D02*
D03*
X147500Y319500D02*
D03*
X144000Y344500D02*
D03*
X145000Y367000D02*
D03*
X144000Y389000D02*
D03*
X146000Y414000D02*
D03*
Y438500D02*
D03*
X143000Y468000D02*
D03*
X383000Y355000D02*
D03*
X407000D02*
D03*
X365300Y451537D02*
D03*
X365000Y459500D02*
D03*
X334500Y420000D02*
D03*
Y411500D02*
D03*
Y403500D02*
D03*
X332000Y342000D02*
D03*
Y349000D02*
D03*
Y356000D02*
D03*
X654300Y139100D02*
D03*
X475000Y117000D02*
D03*
X404800Y244400D02*
D03*
X396100Y272146D02*
D03*
X564800Y138700D02*
D03*
X550000Y126000D02*
D03*
Y134000D02*
D03*
X543000D02*
D03*
X536000Y142000D02*
D03*
X515100Y318700D02*
D03*
X531500Y315000D02*
D03*
Y321500D02*
D03*
X528500Y318400D02*
D03*
X529280Y327220D02*
D03*
Y331102D02*
D03*
X516500Y364000D02*
D03*
Y374000D02*
D03*
X518000Y423259D02*
D03*
X513241Y418500D02*
D03*
X527500Y403000D02*
D03*
Y411000D02*
D03*
X526500Y418500D02*
D03*
X518000D02*
D03*
X432000Y234200D02*
D03*
X352937Y311900D02*
D03*
X396000Y268642D02*
D03*
X339612Y330905D02*
D03*
X521740Y390000D02*
D03*
X406400Y158268D02*
D03*
Y161635D02*
D03*
X415500Y148600D02*
D03*
X391500Y268642D02*
D03*
X387000D02*
D03*
X366000Y268642D02*
D03*
X361500D02*
D03*
X357000D02*
D03*
X300500Y265237D02*
D03*
Y272537D02*
D03*
X300000Y277437D02*
D03*
X448100Y114700D02*
D03*
X453100Y114800D02*
D03*
X781879Y183550D02*
D03*
X738879Y182750D02*
D03*
X695879Y183550D02*
D03*
X652879D02*
D03*
X646300Y180050D02*
D03*
X642350Y183487D02*
D03*
X681400Y180050D02*
D03*
X688700Y180150D02*
D03*
X724700Y180000D02*
D03*
X732000Y180100D02*
D03*
X735471Y202500D02*
D03*
X732000Y197500D02*
D03*
X724700Y197400D02*
D03*
X692471Y202500D02*
D03*
X689000Y197500D02*
D03*
X681700Y197400D02*
D03*
X649471Y202500D02*
D03*
X646000Y197500D02*
D03*
X638700Y197400D02*
D03*
X649471Y225000D02*
D03*
X646000Y220000D02*
D03*
X638700Y219900D02*
D03*
X692471Y225000D02*
D03*
X689000Y220000D02*
D03*
X681700Y219900D02*
D03*
X735471Y225000D02*
D03*
X732000Y220000D02*
D03*
X724700Y219900D02*
D03*
X778471Y225000D02*
D03*
X775000Y220000D02*
D03*
X767700Y219900D02*
D03*
X778471Y247500D02*
D03*
X775000Y242500D02*
D03*
X767700Y242400D02*
D03*
X735471Y247500D02*
D03*
X732000Y242500D02*
D03*
X724700Y242400D02*
D03*
X692471Y247500D02*
D03*
X689000Y242500D02*
D03*
X681700Y242400D02*
D03*
X638700D02*
D03*
X646000Y242500D02*
D03*
X649471Y247500D02*
D03*
X755500Y197450D02*
D03*
X669500Y180050D02*
D03*
X712500D02*
D03*
X755500D02*
D03*
X798500Y197450D02*
D03*
Y180050D02*
D03*
X669500Y197450D02*
D03*
Y219950D02*
D03*
X712500Y197450D02*
D03*
Y219950D02*
D03*
X755500D02*
D03*
X798500D02*
D03*
Y242450D02*
D03*
X755500D02*
D03*
X712500D02*
D03*
X669500D02*
D03*
X659271Y180500D02*
D03*
X702271D02*
D03*
X745271D02*
D03*
X788271D02*
D03*
Y175050D02*
D03*
X781879D02*
D03*
X745271D02*
D03*
X738879D02*
D03*
X702271D02*
D03*
X695879D02*
D03*
X652879D02*
D03*
X659271D02*
D03*
X704621Y202450D02*
D03*
X661621D02*
D03*
Y224950D02*
D03*
Y247450D02*
D03*
X704621Y224950D02*
D03*
Y247450D02*
D03*
X747621D02*
D03*
Y224950D02*
D03*
Y202450D02*
D03*
X790621D02*
D03*
Y247450D02*
D03*
Y224950D02*
D03*
X564000Y310800D02*
D03*
X574108Y317700D02*
D03*
X578600Y304708D02*
D03*
X570800Y313936D02*
D03*
X568492Y319300D02*
D03*
X577200Y238000D02*
D03*
X585062Y309200D02*
D03*
Y317700D02*
D03*
X585562Y253781D02*
D03*
X585600Y239619D02*
D03*
X581300Y227900D02*
D03*
X585100Y224800D02*
D03*
X603200Y236900D02*
D03*
X596200Y237100D02*
D03*
X617700Y323100D02*
D03*
X579600Y329300D02*
D03*
X620562Y296400D02*
D03*
X622562Y299600D02*
D03*
X620562Y265600D02*
D03*
X622562Y262400D02*
D03*
X474900Y196500D02*
D03*
X472900Y199700D02*
D03*
X600600Y515200D02*
D03*
Y500800D02*
D03*
X610900Y423500D02*
D03*
X611000Y419700D02*
D03*
X581500Y371000D02*
D03*
X619600Y468752D02*
D03*
X614752Y473600D02*
D03*
X551823Y433487D02*
D03*
X555547D02*
D03*
X551497Y442445D02*
D03*
X555221D02*
D03*
X599766Y378717D02*
D03*
X594966Y354832D02*
D03*
X599766D02*
D03*
X569586Y370866D02*
D03*
X573310D02*
D03*
X569593Y379000D02*
D03*
X573317D02*
D03*
X573306Y388583D02*
D03*
X569582D02*
D03*
X569047Y398425D02*
D03*
X572771D02*
D03*
X583500Y384583D02*
D03*
X587500Y388583D02*
D03*
X642583Y388351D02*
D03*
X646583D02*
D03*
X642583Y396851D02*
D03*
X646583D02*
D03*
X593100Y410006D02*
D03*
Y406282D02*
D03*
X602000Y410006D02*
D03*
Y406282D02*
D03*
X610900Y410006D02*
D03*
Y406282D02*
D03*
X619800Y410006D02*
D03*
Y406282D02*
D03*
X592200Y464000D02*
D03*
X575400D02*
D03*
X617295Y443937D02*
D03*
X611648Y460900D02*
D03*
X599579Y447200D02*
D03*
X611648Y449900D02*
D03*
X594552D02*
D03*
X606800Y465748D02*
D03*
X594552Y460900D02*
D03*
X599400Y465748D02*
D03*
X587200Y435143D02*
D03*
Y439943D02*
D03*
X605484Y443937D02*
D03*
X594500D02*
D03*
X610421D02*
D03*
X619600Y448985D02*
D03*
X623948Y433137D02*
D03*
X548100Y505200D02*
D03*
Y515200D02*
D03*
Y525200D02*
D03*
X583100D02*
D03*
Y515200D02*
D03*
Y505200D02*
D03*
X610000Y518000D02*
D03*
Y522000D02*
D03*
X641000Y515400D02*
D03*
X645034D02*
D03*
X626000Y497000D02*
D03*
X621000D02*
D03*
X616000D02*
D03*
X542800Y318500D02*
D03*
X558500Y321000D02*
D03*
X561000Y329500D02*
D03*
X764358Y350000D02*
D03*
X768358D02*
D03*
X764358Y332500D02*
D03*
X768358D02*
D03*
X764358Y367500D02*
D03*
X768358D02*
D03*
X764358Y385500D02*
D03*
X768358D02*
D03*
X632787Y366282D02*
D03*
X608787Y366224D02*
D03*
X632268Y356439D02*
D03*
X612287Y356724D02*
D03*
X667500Y381000D02*
D03*
X671500D02*
D03*
X667500Y363500D02*
D03*
X671500D02*
D03*
X667500Y346000D02*
D03*
X671500D02*
D03*
Y328500D02*
D03*
X667500D02*
D03*
X730500Y325000D02*
D03*
X722500D02*
D03*
X715000D02*
D03*
X706500D02*
D03*
X695260Y341760D02*
D03*
Y330000D02*
D03*
X730500Y342500D02*
D03*
X722500D02*
D03*
X715000D02*
D03*
X706500D02*
D03*
X695260Y359260D02*
D03*
Y347500D02*
D03*
X730500Y360000D02*
D03*
X722500D02*
D03*
X715000D02*
D03*
X706500D02*
D03*
X695260Y376760D02*
D03*
Y365000D02*
D03*
Y382500D02*
D03*
Y394260D02*
D03*
X706500Y377500D02*
D03*
X715000D02*
D03*
X722500D02*
D03*
X730500D02*
D03*
X160200Y444600D02*
D03*
X162000Y417400D02*
D03*
X163800Y392100D02*
D03*
X158900Y366200D02*
D03*
X164300Y341400D02*
D03*
X160700Y315800D02*
D03*
X161200Y289700D02*
D03*
X162400Y474400D02*
D03*
X338229Y326798D02*
D03*
X441500Y374100D02*
D03*
Y356737D02*
D03*
X435000D02*
D03*
X360500Y337000D02*
D03*
X357500Y340000D02*
D03*
X343052Y402300D02*
D03*
X347400Y386452D02*
D03*
X368800Y236200D02*
D03*
X372748Y236307D02*
D03*
X364874D02*
D03*
X387100Y272146D02*
D03*
X391600D02*
D03*
X357100Y272146D02*
D03*
X361600D02*
D03*
X366100D02*
D03*
X356579Y391500D02*
D03*
X349705D02*
D03*
X360516Y362000D02*
D03*
X372500Y391500D02*
D03*
X361516D02*
D03*
X379800Y395494D02*
D03*
Y400294D02*
D03*
X399200Y449400D02*
D03*
X394576Y453924D02*
D03*
X356100Y413537D02*
D03*
Y417300D02*
D03*
X395000Y367800D02*
D03*
X391939Y369422D02*
D03*
X347200Y430755D02*
D03*
Y427031D02*
D03*
X356100D02*
D03*
X365100Y430755D02*
D03*
Y427031D02*
D03*
X373900Y430755D02*
D03*
Y427031D02*
D03*
X335176Y438099D02*
D03*
Y441824D02*
D03*
Y459935D02*
D03*
Y456211D02*
D03*
X386200Y432519D02*
D03*
Y436243D02*
D03*
X394576Y435499D02*
D03*
Y439224D02*
D03*
X388200Y420529D02*
D03*
Y416805D02*
D03*
X395200Y420855D02*
D03*
Y417131D02*
D03*
X207480Y497809D02*
D03*
X211024Y495841D02*
D03*
X211000Y499374D02*
D03*
Y481900D02*
D03*
X211024Y485433D02*
D03*
X207480Y483465D02*
D03*
X341888Y354980D02*
D03*
X428200Y356737D02*
D03*
X421200D02*
D03*
X414200D02*
D03*
X367600Y369689D02*
D03*
X372448Y374537D02*
D03*
X360200Y369689D02*
D03*
X355352Y374537D02*
D03*
X372448Y385537D02*
D03*
X355352D02*
D03*
X431300Y414237D02*
D03*
X421300D02*
D03*
X411300D02*
D03*
X438002Y250394D02*
D03*
Y247244D02*
D03*
X431102D02*
D03*
Y250394D02*
D03*
X400224Y311518D02*
D03*
X347399Y311881D02*
D03*
Y315605D02*
D03*
X339612Y313192D02*
D03*
Y316916D02*
D03*
X394400Y359543D02*
D03*
Y355819D02*
D03*
X380539Y328053D02*
D03*
X376602Y324904D02*
D03*
Y328841D02*
D03*
X384437Y310995D02*
D03*
X384390Y315325D02*
D03*
X376602Y316636D02*
D03*
X376650Y312305D02*
D03*
X355868Y321700D02*
D03*
X397800Y320300D02*
D03*
X472900Y230500D02*
D03*
X474900Y233700D02*
D03*
X437200Y238610D02*
D03*
X438976Y241732D02*
D03*
X383600Y245400D02*
D03*
X387000Y242300D02*
D03*
X354400Y245600D02*
D03*
X351000Y242400D02*
D03*
X612287Y366124D02*
D03*
X629387Y366224D02*
D03*
X347000Y362937D02*
D03*
X367421Y388237D02*
D03*
X411300Y379237D02*
D03*
X421300D02*
D03*
X431300D02*
D03*
X354600Y342912D02*
D03*
X351600Y345712D02*
D03*
X348700Y348412D02*
D03*
X624000Y486000D02*
D03*
X568100Y152400D02*
D03*
X585200Y212400D02*
D03*
X540000Y171500D02*
D03*
X540100Y176200D02*
D03*
X581900Y180200D02*
D03*
X581800Y187400D02*
D03*
X560800Y210300D02*
D03*
X556300D02*
D03*
X563500Y201800D02*
D03*
X357200Y185400D02*
D03*
X420700Y257600D02*
D03*
X417600Y254800D02*
D03*
X414700Y251800D02*
D03*
X176302Y280335D02*
D03*
X187900Y280637D02*
D03*
X198000Y282894D02*
D03*
X176302Y307549D02*
D03*
X187900Y307851D02*
D03*
X198000Y310108D02*
D03*
X176302Y334763D02*
D03*
X187900Y335066D02*
D03*
X198000Y337322D02*
D03*
X176302Y361978D02*
D03*
X187900Y362280D02*
D03*
X198000Y364536D02*
D03*
X176302Y389192D02*
D03*
X187900Y389494D02*
D03*
X198000Y391751D02*
D03*
X176302Y416406D02*
D03*
X187900Y416708D02*
D03*
X198000Y418965D02*
D03*
X176302Y443620D02*
D03*
X187900Y443923D02*
D03*
X198000Y446179D02*
D03*
Y473394D02*
D03*
X187900Y471137D02*
D03*
X176302Y470835D02*
D03*
X685500Y118500D02*
D03*
X685400Y150600D02*
D03*
X673000Y118400D02*
D03*
Y129000D02*
D03*
Y139800D02*
D03*
Y150500D02*
D03*
X545500Y183500D02*
D03*
X541500Y183000D02*
D03*
X547300Y203000D02*
D03*
X543600Y211000D02*
D03*
X571400Y226200D02*
D03*
X581700Y235800D02*
D03*
X458900Y173400D02*
D03*
Y165700D02*
D03*
X472900Y173400D02*
D03*
Y165700D02*
D03*
X569300Y107600D02*
D03*
X551147Y113577D02*
D03*
X547514Y107800D02*
D03*
X529146Y113577D02*
D03*
X525514Y107800D02*
D03*
X506746Y113477D02*
D03*
X414900Y176800D02*
D03*
X526800Y163800D02*
D03*
X523400Y165600D02*
D03*
X549000Y230100D02*
D03*
X581200Y166600D02*
D03*
X374100Y124501D02*
D03*
Y128801D02*
D03*
X479700Y122400D02*
D03*
X474800Y124900D02*
D03*
X608900Y190400D02*
D03*
Y186400D02*
D03*
Y182400D02*
D03*
Y178400D02*
D03*
X603000Y179000D02*
D03*
Y175000D02*
D03*
X624500Y168000D02*
D03*
Y164000D02*
D03*
X588358Y152000D02*
D03*
X497000Y146500D02*
D03*
Y142500D02*
D03*
X192000Y469437D02*
D03*
X211313Y471837D02*
D03*
Y467237D02*
D03*
Y475737D02*
D03*
X211413Y463337D02*
D03*
Y436123D02*
D03*
X211313Y448523D02*
D03*
Y440023D02*
D03*
Y444623D02*
D03*
X192000Y442223D02*
D03*
X211413Y408908D02*
D03*
X211313Y421308D02*
D03*
Y412808D02*
D03*
Y417408D02*
D03*
X192000Y415008D02*
D03*
X211413Y381694D02*
D03*
X211313Y394094D02*
D03*
Y385594D02*
D03*
Y390194D02*
D03*
X192000Y387794D02*
D03*
X211413Y354480D02*
D03*
X211313Y366880D02*
D03*
Y358380D02*
D03*
Y362980D02*
D03*
X192000Y360580D02*
D03*
X211413Y327266D02*
D03*
X211313Y339666D02*
D03*
Y331166D02*
D03*
Y335766D02*
D03*
X192000Y333366D02*
D03*
X211413Y300051D02*
D03*
X211313Y312451D02*
D03*
Y303951D02*
D03*
Y308551D02*
D03*
X192000Y306151D02*
D03*
X211413Y272837D02*
D03*
X211313Y285237D02*
D03*
Y276737D02*
D03*
Y281337D02*
D03*
X192000Y278937D02*
D03*
X279600Y267637D02*
D03*
X284100D02*
D03*
X271000Y277437D02*
D03*
Y267437D02*
D03*
Y272437D02*
D03*
X294000Y269037D02*
D03*
X307500Y262937D02*
D03*
X294000Y299037D02*
D03*
X300500Y295237D02*
D03*
Y302537D02*
D03*
X300000Y307437D02*
D03*
X298500Y291437D02*
D03*
X303600Y291137D02*
D03*
X307500Y292937D02*
D03*
X271000Y297437D02*
D03*
Y302437D02*
D03*
Y307437D02*
D03*
X283600Y327637D02*
D03*
X279100D02*
D03*
X270500Y337437D02*
D03*
Y332437D02*
D03*
Y327437D02*
D03*
X307500Y322937D02*
D03*
X303600Y321137D02*
D03*
X298500Y321437D02*
D03*
X300000Y337437D02*
D03*
X300500Y332537D02*
D03*
Y325237D02*
D03*
X294000Y329037D02*
D03*
X284100Y297637D02*
D03*
X279600D02*
D03*
X283600Y357637D02*
D03*
X279100D02*
D03*
X283600Y387637D02*
D03*
X279100D02*
D03*
X283600Y417637D02*
D03*
X279100D02*
D03*
X283600Y447637D02*
D03*
X279100D02*
D03*
X283600Y477896D02*
D03*
X279100D02*
D03*
X298000Y351437D02*
D03*
X299500Y367437D02*
D03*
X300000Y362537D02*
D03*
X303100Y351137D02*
D03*
X300000Y355237D02*
D03*
X307000Y352937D02*
D03*
X293500Y359037D02*
D03*
X298000Y381437D02*
D03*
X299500Y397437D02*
D03*
X300000Y392537D02*
D03*
X303100Y381137D02*
D03*
X300000Y385237D02*
D03*
X307000Y382937D02*
D03*
X293500Y389037D02*
D03*
X298000Y411437D02*
D03*
X299500Y427437D02*
D03*
X300000Y422537D02*
D03*
X303100Y411137D02*
D03*
X300000Y415237D02*
D03*
X307000Y412937D02*
D03*
X293500Y419037D02*
D03*
X298000Y441437D02*
D03*
X299500Y457437D02*
D03*
X300000Y452537D02*
D03*
X303100Y441137D02*
D03*
X300000Y445237D02*
D03*
X307000Y442937D02*
D03*
X293500Y449037D02*
D03*
X298000Y471437D02*
D03*
X299500Y487437D02*
D03*
X300000Y482537D02*
D03*
X303100Y471137D02*
D03*
X300000Y475237D02*
D03*
X307000Y472937D02*
D03*
X293500Y479037D02*
D03*
X270500Y357437D02*
D03*
Y362437D02*
D03*
Y367437D02*
D03*
Y387437D02*
D03*
Y392437D02*
D03*
Y397437D02*
D03*
Y417437D02*
D03*
Y422437D02*
D03*
Y427437D02*
D03*
Y447437D02*
D03*
Y452437D02*
D03*
Y457437D02*
D03*
Y477437D02*
D03*
Y482437D02*
D03*
Y487437D02*
D03*
X349400Y366037D02*
D03*
X215748Y134941D02*
D03*
X220128D02*
D03*
X224508D02*
D03*
Y130262D02*
D03*
X220128D02*
D03*
X215748D02*
D03*
X140059Y157185D02*
D03*
X144095D02*
D03*
X148130D02*
D03*
X159870Y188240D02*
D03*
X163905D02*
D03*
X167941D02*
D03*
X148130Y161319D02*
D03*
X144095D02*
D03*
X140059D02*
D03*
X168012Y185039D02*
D03*
X163976D02*
D03*
X159941D02*
D03*
X131201Y125591D02*
D03*
Y121555D02*
D03*
Y117520D02*
D03*
X134843Y125492D02*
D03*
Y121457D02*
D03*
Y117421D02*
D03*
X178051Y128051D02*
D03*
X182087D02*
D03*
X186122D02*
D03*
X177953Y114567D02*
D03*
X181988D02*
D03*
X186024D02*
D03*
X181595Y184744D02*
D03*
X185630D02*
D03*
X189665D02*
D03*
X233858Y108600D02*
D03*
Y101100D02*
D03*
X206988Y96311D02*
D03*
X195411Y100800D02*
D03*
X199592Y96319D02*
D03*
X191225Y160642D02*
D03*
X195261D02*
D03*
X199296D02*
D03*
Y156508D02*
D03*
X195261D02*
D03*
X191225D02*
D03*
X307575Y183398D02*
D03*
X311610D02*
D03*
X315646D02*
D03*
Y179264D02*
D03*
X311610D02*
D03*
X307575D02*
D03*
X269886Y179890D02*
D03*
X265850D02*
D03*
X261815D02*
D03*
Y184023D02*
D03*
X265850D02*
D03*
X269886D02*
D03*
X257779D02*
D03*
Y179890D02*
D03*
X356496Y111221D02*
D03*
X391535D02*
D03*
X324803Y94882D02*
D03*
X329396D02*
D03*
X333990D02*
D03*
X338583D02*
D03*
X332567Y150767D02*
D03*
Y155360D02*
D03*
Y159954D02*
D03*
Y164547D02*
D03*
X411800Y90319D02*
D03*
X418800D02*
D03*
X422981Y94500D02*
D03*
X407619D02*
D03*
X393720Y157500D02*
D03*
Y148600D02*
D03*
X427871Y157500D02*
D03*
X428182Y148600D02*
D03*
X372500Y170671D02*
D03*
X364920D02*
D03*
X345579Y183352D02*
D03*
X349760Y187533D02*
D03*
X387660Y188650D02*
D03*
X391339Y179921D02*
D03*
X395019Y175600D02*
D03*
X399200Y171419D02*
D03*
X430700Y171219D02*
D03*
X437900D02*
D03*
X488976Y185827D02*
D03*
X504331D02*
D03*
X520079D02*
D03*
X297942Y115441D02*
D03*
Y111406D02*
D03*
Y107370D02*
D03*
X293808D02*
D03*
Y111406D02*
D03*
Y115441D02*
D03*
X382058Y152810D02*
D03*
Y156845D02*
D03*
Y160880D02*
D03*
X386192D02*
D03*
Y156845D02*
D03*
Y152810D02*
D03*
X415500Y161635D02*
D03*
Y158268D02*
D03*
X411660Y105585D02*
D03*
X415695D02*
D03*
X419730D02*
D03*
Y109719D02*
D03*
X415695D02*
D03*
X411660D02*
D03*
X433858Y114900D02*
D03*
X437479D02*
D03*
X449500Y135600D02*
D03*
X430700Y182500D02*
D03*
X438100Y182600D02*
D03*
X431100Y198400D02*
D03*
X564700Y127200D02*
D03*
X407700Y171500D02*
D03*
Y174800D02*
D03*
X501900Y139400D02*
D03*
Y122615D02*
D03*
X500900Y115313D02*
D03*
X523300Y115413D02*
D03*
X545300D02*
D03*
X567086Y115213D02*
D03*
X561733Y112325D02*
D03*
X539866Y112010D02*
D03*
X517300Y112225D02*
D03*
Y103725D02*
D03*
X539866Y103925D02*
D03*
X561733D02*
D03*
X583385Y103936D02*
D03*
Y112125D02*
D03*
X578700Y254892D02*
D03*
X575292Y262496D02*
D03*
X570800Y259004D02*
D03*
X527808Y231301D02*
D03*
X532300Y226809D02*
D03*
X540800D02*
D03*
X544692Y233300D02*
D03*
X717900Y147992D02*
D03*
X722392Y143900D02*
D03*
Y135000D02*
D03*
X717900Y130819D02*
D03*
X583900Y191381D02*
D03*
X585100Y205619D02*
D03*
X572419Y209800D02*
D03*
X576600Y205619D02*
D03*
X566181Y210400D02*
D03*
X554611Y206019D02*
D03*
X519200Y139281D02*
D03*
Y122419D02*
D03*
X595900Y158200D02*
D03*
X571219Y187200D02*
D03*
Y180100D02*
D03*
X431900Y230300D02*
D03*
X405800Y263082D02*
D03*
Y266806D02*
D03*
X407200Y248800D02*
D03*
X407300Y241800D02*
D03*
X525100Y191400D02*
D03*
X524700Y203300D02*
D03*
X540500Y205100D02*
D03*
X540500Y200900D02*
D03*
X540900Y194400D02*
D03*
X541600Y190000D02*
D03*
X545800Y152500D02*
D03*
X547752Y164801D02*
D03*
X551200Y173100D02*
D03*
X547700Y176300D02*
D03*
X540000Y166400D02*
D03*
X558200D02*
D03*
Y150900D02*
D03*
X545800Y143100D02*
D03*
X364000Y194500D02*
D03*
X373500D02*
D03*
X365000Y182000D02*
D03*
X373000D02*
D03*
X589500Y148000D02*
D03*
X583600Y374200D02*
D03*
D235*
X633220Y263800D02*
D03*
X633020Y294800D02*
D03*
X625500Y478400D02*
D03*
X631500Y484400D02*
D03*
X638500Y491400D02*
D03*
X645500Y498400D02*
D03*
X652500Y505400D02*
D03*
X659500Y512400D02*
D03*
X667500Y521400D02*
D03*
X530900Y381900D02*
D03*
Y395400D02*
D03*
X551000Y379000D02*
D03*
Y388000D02*
D03*
Y398000D02*
D03*
X658000Y352000D02*
D03*
Y382000D02*
D03*
X655000Y367000D02*
D03*
X630000Y379000D02*
D03*
X608000Y382000D02*
D03*
Y396000D02*
D03*
X628000Y414000D02*
D03*
Y425000D02*
D03*
X670000Y397000D02*
D03*
X661000Y405000D02*
D03*
X654000Y412000D02*
D03*
X647000Y419000D02*
D03*
X640000Y426000D02*
D03*
X633000Y433000D02*
D03*
X627000Y439000D02*
D03*
X552000Y449000D02*
D03*
Y456000D02*
D03*
X580000Y437500D02*
D03*
X572500D02*
D03*
Y445000D02*
D03*
Y452500D02*
D03*
X575000Y475000D02*
D03*
X550000Y470000D02*
D03*
X570000D02*
D03*
X580000Y480000D02*
D03*
X570000D02*
D03*
X560000D02*
D03*
X550000D02*
D03*
X454000Y158000D02*
D03*
X577500Y132500D02*
D03*
Y137500D02*
D03*
Y143000D02*
D03*
X98228Y104823D02*
D03*
Y116634D02*
D03*
Y128445D02*
D03*
Y140256D02*
D03*
Y152067D02*
D03*
Y163878D02*
D03*
Y175689D02*
D03*
Y187500D02*
D03*
X831004Y263287D02*
D03*
X842815D02*
D03*
X832382Y88386D02*
D03*
X820571D02*
D03*
X785138D02*
D03*
X796949D02*
D03*
X808760D02*
D03*
X854626Y108849D02*
D03*
Y180128D02*
D03*
Y168248D02*
D03*
Y156368D02*
D03*
Y144488D02*
D03*
Y132608D02*
D03*
Y120729D02*
D03*
Y192008D02*
D03*
Y203888D02*
D03*
Y215768D02*
D03*
Y227648D02*
D03*
Y239528D02*
D03*
Y251408D02*
D03*
X853839Y262598D02*
D03*
X519652Y263583D02*
D03*
X510466D02*
D03*
X528839D02*
D03*
X799134Y263976D02*
D03*
X787298D02*
D03*
X775463D02*
D03*
X763628D02*
D03*
X751793D02*
D03*
X739958D02*
D03*
X728122D02*
D03*
X716287D02*
D03*
X704452D02*
D03*
X692617D02*
D03*
X680781D02*
D03*
X668946D02*
D03*
X657111D02*
D03*
X500000Y205807D02*
D03*
X501279Y263583D02*
D03*
X500197Y251093D02*
D03*
Y239213D02*
D03*
Y227333D02*
D03*
Y215453D02*
D03*
X482972Y199606D02*
D03*
X494783D02*
D03*
X397835Y199311D02*
D03*
X389173D02*
D03*
X334449D02*
D03*
X98228D02*
D03*
X110039D02*
D03*
X121850D02*
D03*
X133661D02*
D03*
X145472D02*
D03*
X157283D02*
D03*
X169095D02*
D03*
X180905D02*
D03*
X192717D02*
D03*
X204528D02*
D03*
X216339D02*
D03*
X228150D02*
D03*
X239961D02*
D03*
X251772D02*
D03*
X263583D02*
D03*
X275394D02*
D03*
X287205D02*
D03*
X299016D02*
D03*
X310827D02*
D03*
X322638D02*
D03*
X690650Y88386D02*
D03*
X678839D02*
D03*
X667028D02*
D03*
X655217D02*
D03*
X643405D02*
D03*
X631595D02*
D03*
X619783D02*
D03*
X607972D02*
D03*
X596161D02*
D03*
X584350D02*
D03*
X572539D02*
D03*
X560728D02*
D03*
X548917D02*
D03*
X537106D02*
D03*
X525295D02*
D03*
X501673D02*
D03*
X513484D02*
D03*
X489862D02*
D03*
X478051D02*
D03*
X466240D02*
D03*
X454429D02*
D03*
X442618D02*
D03*
X749705D02*
D03*
X737894D02*
D03*
X726083D02*
D03*
X714272D02*
D03*
X702461D02*
D03*
X761516D02*
D03*
X773327D02*
D03*
X359941D02*
D03*
X348130D02*
D03*
X336319D02*
D03*
X324508D02*
D03*
X312697D02*
D03*
X300886D02*
D03*
X289075D02*
D03*
X277264D02*
D03*
X265453D02*
D03*
X253642D02*
D03*
X241831D02*
D03*
X230020D02*
D03*
X218209D02*
D03*
X206398D02*
D03*
X194587D02*
D03*
X170965D02*
D03*
X182776D02*
D03*
X159153D02*
D03*
X147343D02*
D03*
X135531D02*
D03*
X123721D02*
D03*
X111909D02*
D03*
X430807D02*
D03*
X407185D02*
D03*
X395374D02*
D03*
X383563D02*
D03*
X371752D02*
D03*
X855118Y304134D02*
D03*
X854921Y296949D02*
D03*
X527756D02*
D03*
X518865Y296752D02*
D03*
X509974D02*
D03*
X635827Y310236D02*
D03*
X630217Y319390D02*
D03*
Y330413D02*
D03*
X628839Y338484D02*
D03*
X559252Y341634D02*
D03*
X569685Y340453D02*
D03*
X581496D02*
D03*
X593307D02*
D03*
X616929D02*
D03*
X605118D02*
D03*
X520866Y340256D02*
D03*
X511319Y340354D02*
D03*
X503150Y340059D02*
D03*
X501083Y332382D02*
D03*
Y320571D02*
D03*
Y296949D02*
D03*
Y308760D02*
D03*
X657559Y294980D02*
D03*
X669439D02*
D03*
X681319D02*
D03*
X693199D02*
D03*
X705079D02*
D03*
X716959D02*
D03*
X728839D02*
D03*
X752598D02*
D03*
X764478D02*
D03*
X740719D02*
D03*
X776358D02*
D03*
X788238D02*
D03*
X800118D02*
D03*
X811998D02*
D03*
X823878D02*
D03*
X835758D02*
D03*
X847638D02*
D03*
X650108Y309842D02*
D03*
X661988D02*
D03*
X673868D02*
D03*
X685748D02*
D03*
X697628D02*
D03*
X709508D02*
D03*
X721388D02*
D03*
X733268D02*
D03*
X757028D02*
D03*
X768908D02*
D03*
X745148D02*
D03*
X780788D02*
D03*
X792667D02*
D03*
X804547D02*
D03*
X816427D02*
D03*
X828307D02*
D03*
X840187D02*
D03*
X852067D02*
D03*
X638189Y328642D02*
D03*
Y337795D02*
D03*
X614764Y347716D02*
D03*
X626644D02*
D03*
X636713Y346260D02*
D03*
X555364Y347716D02*
D03*
X602884D02*
D03*
X591004D02*
D03*
X579124D02*
D03*
X567244D02*
D03*
X520866D02*
D03*
X511270D02*
D03*
X639764Y319390D02*
D03*
X852067Y318012D02*
D03*
X840187D02*
D03*
X828307D02*
D03*
X816427D02*
D03*
X804547D02*
D03*
X792667D02*
D03*
X780788D02*
D03*
X745148D02*
D03*
X768908D02*
D03*
X757028D02*
D03*
X733268D02*
D03*
X721388D02*
D03*
X709508D02*
D03*
X697628D02*
D03*
X685748D02*
D03*
X673868D02*
D03*
X661988D02*
D03*
X650108D02*
D03*
X852067Y520276D02*
D03*
Y508396D02*
D03*
Y496516D02*
D03*
Y484636D02*
D03*
Y472756D02*
D03*
Y460876D02*
D03*
Y448996D02*
D03*
Y413356D02*
D03*
Y437116D02*
D03*
Y425236D02*
D03*
Y401476D02*
D03*
Y389597D02*
D03*
Y377717D02*
D03*
Y365837D02*
D03*
Y353957D02*
D03*
Y342077D02*
D03*
Y330197D02*
D03*
X501673Y524734D02*
D03*
Y512854D02*
D03*
Y500974D02*
D03*
Y489094D02*
D03*
Y477214D02*
D03*
Y465335D02*
D03*
Y429695D02*
D03*
Y453455D02*
D03*
Y441575D02*
D03*
Y417815D02*
D03*
Y405935D02*
D03*
Y394055D02*
D03*
Y382175D02*
D03*
Y370295D02*
D03*
Y358415D02*
D03*
Y347716D02*
D03*
X832382Y536614D02*
D03*
X761516D02*
D03*
X773327D02*
D03*
X785138D02*
D03*
X796949D02*
D03*
X808760D02*
D03*
X820571D02*
D03*
X501673D02*
D03*
X513484D02*
D03*
X525295D02*
D03*
X537106D02*
D03*
X548917D02*
D03*
X572539D02*
D03*
X560728D02*
D03*
X584350D02*
D03*
X596161D02*
D03*
X607972D02*
D03*
X619783D02*
D03*
X631595D02*
D03*
X643405D02*
D03*
X655217D02*
D03*
X667028D02*
D03*
X678839D02*
D03*
X690650D02*
D03*
X702461D02*
D03*
X714272D02*
D03*
X726083D02*
D03*
X737894D02*
D03*
X749705D02*
D03*
X177165Y249410D02*
D03*
X96949Y230807D02*
D03*
X354331Y229331D02*
D03*
X334646D02*
D03*
X322835D02*
D03*
X311024D02*
D03*
X299213D02*
D03*
X287402D02*
D03*
X275590D02*
D03*
X263779D02*
D03*
X251969D02*
D03*
X240158D02*
D03*
X228346D02*
D03*
X216535D02*
D03*
X204724D02*
D03*
X192913D02*
D03*
X181102D02*
D03*
X169291D02*
D03*
X157480D02*
D03*
X145669D02*
D03*
X133858D02*
D03*
X122047D02*
D03*
X110236D02*
D03*
X179134Y242126D02*
D03*
X169291D02*
D03*
X157480D02*
D03*
X145669D02*
D03*
X133858D02*
D03*
X122047D02*
D03*
X110236D02*
D03*
X98425D02*
D03*
X485433Y232283D02*
D03*
Y244173D02*
D03*
Y256063D02*
D03*
Y267953D02*
D03*
Y279842D02*
D03*
Y291732D02*
D03*
X475197Y291732D02*
D03*
X464567D02*
D03*
X452756D02*
D03*
X440945D02*
D03*
X419050D02*
D03*
X409449D02*
D03*
X397638D02*
D03*
X381890D02*
D03*
X370079D02*
D03*
X354331D02*
D03*
X342520D02*
D03*
X335630Y287402D02*
D03*
Y275590D02*
D03*
Y263779D02*
D03*
X335600Y256200D02*
D03*
X335630Y243110D02*
D03*
X324803Y242126D02*
D03*
X312992D02*
D03*
X301181D02*
D03*
X289370D02*
D03*
X277559D02*
D03*
X265748D02*
D03*
X253937D02*
D03*
X242126D02*
D03*
X230315D02*
D03*
X218504D02*
D03*
X206693D02*
D03*
X194882D02*
D03*
X464567Y299016D02*
D03*
X452756D02*
D03*
X440945D02*
D03*
X419050D02*
D03*
X409449D02*
D03*
X397638D02*
D03*
X381890D02*
D03*
X370079D02*
D03*
X342520D02*
D03*
X354331D02*
D03*
X331496Y297441D02*
D03*
X329921Y287254D02*
D03*
Y275492D02*
D03*
Y263730D02*
D03*
X328248Y250492D02*
D03*
X318898Y249410D02*
D03*
X307087D02*
D03*
X295276D02*
D03*
X283465D02*
D03*
X271654D02*
D03*
X259842D02*
D03*
X248031D02*
D03*
X236221D02*
D03*
X224410D02*
D03*
X212598D02*
D03*
X204724D02*
D03*
X165354D02*
D03*
X153543D02*
D03*
X141732D02*
D03*
X110236D02*
D03*
X98425D02*
D03*
Y259842D02*
D03*
Y271654D02*
D03*
Y283465D02*
D03*
Y295276D02*
D03*
Y307087D02*
D03*
Y318898D02*
D03*
Y330709D02*
D03*
Y342520D02*
D03*
Y354331D02*
D03*
Y366142D02*
D03*
Y377953D02*
D03*
Y389764D02*
D03*
Y401575D02*
D03*
Y413386D02*
D03*
Y425197D02*
D03*
Y437008D02*
D03*
Y448819D02*
D03*
Y460630D02*
D03*
Y472441D02*
D03*
Y484252D02*
D03*
Y496063D02*
D03*
Y507874D02*
D03*
Y519685D02*
D03*
X475197Y299016D02*
D03*
X484252D02*
D03*
Y310896D02*
D03*
Y322776D02*
D03*
Y334655D02*
D03*
Y346535D02*
D03*
Y358415D02*
D03*
Y370295D02*
D03*
Y382175D02*
D03*
Y394055D02*
D03*
Y405935D02*
D03*
Y417815D02*
D03*
Y441575D02*
D03*
Y453455D02*
D03*
Y429695D02*
D03*
Y465335D02*
D03*
Y477214D02*
D03*
Y489094D02*
D03*
Y500974D02*
D03*
Y512854D02*
D03*
Y524734D02*
D03*
Y536614D02*
D03*
X472441Y536614D02*
D03*
X460630D02*
D03*
X448819D02*
D03*
X437008D02*
D03*
X425197D02*
D03*
X413386D02*
D03*
X401575D02*
D03*
X389764D02*
D03*
X377953D02*
D03*
X366142D02*
D03*
X354331D02*
D03*
X342520D02*
D03*
X330709D02*
D03*
X318898D02*
D03*
X307087D02*
D03*
X283465D02*
D03*
X295276D02*
D03*
X271654D02*
D03*
X259842D02*
D03*
X248031D02*
D03*
X236221D02*
D03*
X224410D02*
D03*
X208661D02*
D03*
X196850D02*
D03*
X185039D02*
D03*
X161417D02*
D03*
X173228D02*
D03*
X149606D02*
D03*
X137795D02*
D03*
X125984D02*
D03*
X114173D02*
D03*
X527600Y180000D02*
D03*
X581217Y124117D02*
D03*
X575200Y150500D02*
D03*
X572100Y152700D02*
D03*
X587700Y132200D02*
D03*
X557985Y238900D02*
D03*
X558000Y226000D02*
D03*
X346457Y229331D02*
D03*
X346260Y199311D02*
D03*
D236*
X405700Y236800D02*
D03*
M02*
