G04 Layer_Color=16711935*
%FSLAX25Y25*%
%MOIN*%
G70*
G01*
G75*
%ADD160C,0.00394*%
%ADD162C,0.00500*%
D160*
X354527Y80709D02*
X393504D01*
D162*
X358553Y82006D02*
Y79007D01*
X358696Y82006D02*
Y79007D01*
X358124Y82006D02*
X359838D01*
X360267Y81863D01*
X360409Y81721D01*
X360552Y81435D01*
Y81006D01*
X360409Y80721D01*
X360267Y80578D01*
X359838Y80435D01*
X358696D01*
X359838Y82006D02*
X360124Y81863D01*
X360267Y81721D01*
X360409Y81435D01*
Y81006D01*
X360267Y80721D01*
X360124Y80578D01*
X359838Y80435D01*
X358124Y79007D02*
X359124D01*
X362952Y81578D02*
X363095Y81149D01*
Y82006D01*
X362952Y81578D01*
X362666Y81863D01*
X362238Y82006D01*
X361952D01*
X361524Y81863D01*
X361238Y81578D01*
X361095Y81292D01*
X360952Y80864D01*
Y80150D01*
X361095Y79721D01*
X361238Y79435D01*
X361524Y79150D01*
X361952Y79007D01*
X362238D01*
X362666Y79150D01*
X362952Y79435D01*
X363095Y79721D01*
X361952Y82006D02*
X361666Y81863D01*
X361381Y81578D01*
X361238Y81292D01*
X361095Y80864D01*
Y80150D01*
X361238Y79721D01*
X361381Y79435D01*
X361666Y79150D01*
X361952Y79007D01*
X363952Y82006D02*
Y79007D01*
X364094Y82006D02*
Y79007D01*
X363523Y82006D02*
X365237D01*
X365666Y81863D01*
X365808Y81721D01*
X365951Y81435D01*
Y81149D01*
X365808Y80864D01*
X365666Y80721D01*
X365237Y80578D01*
Y82006D02*
X365523Y81863D01*
X365666Y81721D01*
X365808Y81435D01*
Y81149D01*
X365666Y80864D01*
X365523Y80721D01*
X365237Y80578D01*
X364094D02*
X365237D01*
X365666Y80435D01*
X365808Y80292D01*
X365951Y80007D01*
Y79578D01*
X365808Y79293D01*
X365666Y79150D01*
X365237Y79007D01*
X363523D01*
X365237Y80578D02*
X365523Y80435D01*
X365666Y80292D01*
X365808Y80007D01*
Y79578D01*
X365666Y79293D01*
X365523Y79150D01*
X365237Y79007D01*
X369479Y82006D02*
Y79007D01*
X369622Y82006D02*
Y79007D01*
X370479Y81149D02*
Y80007D01*
X369051Y82006D02*
X371336D01*
Y81149D01*
X371193Y82006D01*
X369622Y80578D02*
X370479D01*
X369051Y79007D02*
X371336D01*
Y79864D01*
X371193Y79007D01*
X373464Y82006D02*
Y79007D01*
X373607Y82006D02*
Y79007D01*
X373464Y80578D02*
X373178Y80864D01*
X372892Y81006D01*
X372607D01*
X372178Y80864D01*
X371893Y80578D01*
X371750Y80150D01*
Y79864D01*
X371893Y79435D01*
X372178Y79150D01*
X372607Y79007D01*
X372892D01*
X373178Y79150D01*
X373464Y79435D01*
X372607Y81006D02*
X372321Y80864D01*
X372036Y80578D01*
X371893Y80150D01*
Y79864D01*
X372036Y79435D01*
X372321Y79150D01*
X372607Y79007D01*
X373035Y82006D02*
X373607D01*
X373464Y79007D02*
X374035D01*
X375306Y81006D02*
X375021Y80864D01*
X374878Y80721D01*
X374735Y80435D01*
Y80150D01*
X374878Y79864D01*
X375021Y79721D01*
X375306Y79578D01*
X375592D01*
X375878Y79721D01*
X376020Y79864D01*
X376163Y80150D01*
Y80435D01*
X376020Y80721D01*
X375878Y80864D01*
X375592Y81006D01*
X375306D01*
X375021Y80864D02*
X374878Y80578D01*
Y80007D01*
X375021Y79721D01*
X375878D02*
X376020Y80007D01*
Y80578D01*
X375878Y80864D01*
X376020Y80721D02*
X376163Y80864D01*
X376449Y81006D01*
Y80864D01*
X376163D01*
X374878Y79864D02*
X374735Y79721D01*
X374592Y79435D01*
Y79293D01*
X374735Y79007D01*
X375164Y78864D01*
X375878D01*
X376306Y78721D01*
X376449Y78579D01*
X374592Y79293D02*
X374735Y79150D01*
X375164Y79007D01*
X375878D01*
X376306Y78864D01*
X376449Y78579D01*
Y78436D01*
X376306Y78150D01*
X375878Y78007D01*
X375021D01*
X374592Y78150D01*
X374449Y78436D01*
Y78579D01*
X374592Y78864D01*
X375021Y79007D01*
X377034Y80150D02*
X378748D01*
Y80435D01*
X378606Y80721D01*
X378463Y80864D01*
X378177Y81006D01*
X377749D01*
X377320Y80864D01*
X377034Y80578D01*
X376892Y80150D01*
Y79864D01*
X377034Y79435D01*
X377320Y79150D01*
X377749Y79007D01*
X378034D01*
X378463Y79150D01*
X378748Y79435D01*
X378606Y80150D02*
Y80578D01*
X378463Y80864D01*
X377749Y81006D02*
X377463Y80864D01*
X377177Y80578D01*
X377034Y80150D01*
Y79864D01*
X377177Y79435D01*
X377463Y79150D01*
X377749Y79007D01*
M02*
