G04 Layer_Color=8388736*
%FSLAX25Y25*%
%MOIN*%
G70*
G01*
G75*
%ADD171R,0.13792X0.06312*%
%ADD172R,0.06312X0.13792*%
%ADD173O,0.07887X0.03556*%
%ADD174R,0.12611X0.08674*%
%ADD175R,0.09461X0.05131*%
%ADD176R,0.05131X0.09461*%
%ADD177R,0.24422X0.07099*%
%ADD178R,0.15761X0.06312*%
%ADD179R,0.04000X0.02800*%
%ADD180R,0.02800X0.04000*%
%ADD181R,0.04800X0.05800*%
%ADD182R,0.06800X0.05800*%
%ADD183R,0.05800X0.04800*%
%ADD184O,0.02768X0.06706*%
%ADD185R,0.03556X0.04737*%
%ADD186R,0.08674X0.08674*%
%ADD187R,0.02768X0.04737*%
%ADD188R,0.04737X0.03556*%
%ADD189O,0.03200X0.08200*%
%ADD190O,0.03162X0.08674*%
%ADD191R,0.05800X0.06800*%
%ADD192O,0.07493X0.02178*%
%ADD193R,0.08674X0.08674*%
%ADD194O,0.05918X0.02375*%
%ADD195O,0.08280X0.01981*%
%ADD196O,0.01981X0.08280*%
%ADD197R,0.07887X0.07099*%
%ADD198R,0.12611X0.08674*%
%ADD199R,0.14579X0.08674*%
%ADD200R,0.07099X0.07887*%
%ADD201O,0.08800X0.03200*%
%ADD202O,0.03200X0.08800*%
%ADD203R,0.13005X0.10249*%
%ADD204R,0.01981X0.07600*%
%ADD205O,0.01981X0.07600*%
%ADD206O,0.04737X0.10642*%
%ADD207R,0.16548X0.08674*%
%ADD208R,0.06706X0.01981*%
%ADD209O,0.06706X0.01981*%
%ADD210C,0.02800*%
%ADD211C,0.00800*%
%ADD212R,0.01981X0.07099*%
%ADD213R,0.07099X0.01981*%
%ADD214R,0.08674X0.10642*%
%ADD215R,0.02768X0.15800*%
%ADD216O,0.02375X0.05918*%
%ADD217R,0.06706X0.07493*%
%ADD218R,0.10249X0.10249*%
%ADD219C,0.10249*%
%ADD220C,0.06706*%
%ADD221R,0.06706X0.06706*%
%ADD222C,0.05524*%
%ADD223C,0.06800*%
%ADD224C,0.06300*%
%ADD225C,0.04737*%
%ADD226C,0.12611*%
G04:AMPARAMS|DCode=227|XSize=86.74mil|YSize=165.48mil|CornerRadius=23.68mil|HoleSize=0mil|Usage=FLASHONLY|Rotation=270.000|XOffset=0mil|YOffset=0mil|HoleType=Round|Shape=RoundedRectangle|*
%AMROUNDEDRECTD227*
21,1,0.08674,0.11811,0,0,270.0*
21,1,0.03937,0.16548,0,0,270.0*
1,1,0.04737,-0.05905,-0.01968*
1,1,0.04737,-0.05905,0.01968*
1,1,0.04737,0.05905,0.01968*
1,1,0.04737,0.05905,-0.01968*
%
%ADD227ROUNDEDRECTD227*%
G04:AMPARAMS|DCode=228|XSize=165.48mil|YSize=86.74mil|CornerRadius=23.68mil|HoleSize=0mil|Usage=FLASHONLY|Rotation=270.000|XOffset=0mil|YOffset=0mil|HoleType=Round|Shape=RoundedRectangle|*
%AMROUNDEDRECTD228*
21,1,0.16548,0.03937,0,0,270.0*
21,1,0.11811,0.08674,0,0,270.0*
1,1,0.04737,-0.01968,-0.05905*
1,1,0.04737,-0.01968,0.05905*
1,1,0.04737,0.01968,0.05905*
1,1,0.04737,0.01968,-0.05905*
%
%ADD228ROUNDEDRECTD228*%
%ADD229R,0.06706X0.06706*%
%ADD230C,0.08674*%
%ADD231C,0.07453*%
%ADD232C,0.20485*%
%ADD233C,0.06706*%
%ADD234C,0.03800*%
%ADD235C,0.03300*%
%ADD236C,0.04300*%
D171*
X200600Y498117D02*
D03*
Y483157D02*
D03*
X154600D02*
D03*
Y498117D02*
D03*
X170600D02*
D03*
Y483157D02*
D03*
X391500Y283799D02*
D03*
Y268839D02*
D03*
X361500Y283799D02*
D03*
Y268839D02*
D03*
X205000Y166520D02*
D03*
Y181480D02*
D03*
X281900Y181980D02*
D03*
Y167020D02*
D03*
X219500Y181480D02*
D03*
Y166520D02*
D03*
X376500Y268839D02*
D03*
Y283799D02*
D03*
X346000Y268839D02*
D03*
Y283799D02*
D03*
X452500Y122080D02*
D03*
Y107120D02*
D03*
D172*
X314780Y111500D02*
D03*
X299820D02*
D03*
X365220Y156750D02*
D03*
X380180D02*
D03*
X571980Y137900D02*
D03*
X557020D02*
D03*
D173*
X771350Y202450D02*
D03*
Y197450D02*
D03*
X798500Y202450D02*
D03*
Y197450D02*
D03*
X642350Y180050D02*
D03*
Y175050D02*
D03*
X669500Y180050D02*
D03*
Y175050D02*
D03*
X685350Y202450D02*
D03*
Y197450D02*
D03*
X712500Y202450D02*
D03*
Y197450D02*
D03*
Y219950D02*
D03*
Y224950D02*
D03*
X685350Y219950D02*
D03*
Y224950D02*
D03*
Y247450D02*
D03*
Y242450D02*
D03*
X712500Y247450D02*
D03*
Y242450D02*
D03*
X685350Y180050D02*
D03*
Y175050D02*
D03*
X712500Y180050D02*
D03*
Y175050D02*
D03*
X642350Y224950D02*
D03*
Y219950D02*
D03*
X669500Y224950D02*
D03*
Y219950D02*
D03*
Y242450D02*
D03*
Y247450D02*
D03*
X642350Y242450D02*
D03*
Y247450D02*
D03*
Y202450D02*
D03*
Y197450D02*
D03*
X669500Y202450D02*
D03*
Y197450D02*
D03*
X798500Y219950D02*
D03*
Y224950D02*
D03*
X771350Y219950D02*
D03*
Y224950D02*
D03*
X728350Y247450D02*
D03*
Y242450D02*
D03*
X755500Y247450D02*
D03*
Y242450D02*
D03*
X771350Y180050D02*
D03*
Y175050D02*
D03*
X798500Y180050D02*
D03*
Y175050D02*
D03*
X728350Y224950D02*
D03*
Y219950D02*
D03*
X755500Y224950D02*
D03*
Y219950D02*
D03*
X798500Y242450D02*
D03*
Y247450D02*
D03*
X771350Y242450D02*
D03*
Y247450D02*
D03*
X755500Y175050D02*
D03*
Y180050D02*
D03*
X728350Y175050D02*
D03*
Y180050D02*
D03*
X755500Y197450D02*
D03*
Y202450D02*
D03*
X728350Y197450D02*
D03*
Y202450D02*
D03*
D174*
X276400Y116000D02*
D03*
Y143559D02*
D03*
D175*
X583100Y525200D02*
D03*
Y515200D02*
D03*
Y505200D02*
D03*
X548100Y525200D02*
D03*
Y515200D02*
D03*
Y505200D02*
D03*
D176*
X411300Y414237D02*
D03*
X421300D02*
D03*
X431300D02*
D03*
X411300Y379237D02*
D03*
X421300D02*
D03*
X431300D02*
D03*
D177*
X140084Y121200D02*
D03*
X181916D02*
D03*
D178*
X236620Y175500D02*
D03*
X264380D02*
D03*
D179*
X612923Y200115D02*
D03*
X620223D02*
D03*
X612923Y203215D02*
D03*
X620223D02*
D03*
X612923Y206415D02*
D03*
X620223Y206315D02*
D03*
X612923Y209515D02*
D03*
X620223D02*
D03*
Y223115D02*
D03*
X612923D02*
D03*
X620223Y219915D02*
D03*
X612923Y220015D02*
D03*
X620223Y216815D02*
D03*
X612923D02*
D03*
X620223Y213715D02*
D03*
X612923D02*
D03*
X157923Y272352D02*
D03*
X165223D02*
D03*
X157923Y275452D02*
D03*
X165223D02*
D03*
X157923Y278652D02*
D03*
X165223Y278552D02*
D03*
X157923Y281752D02*
D03*
X165223D02*
D03*
Y307352D02*
D03*
X157923D02*
D03*
X165223Y304152D02*
D03*
X157923Y304252D02*
D03*
X165223Y301052D02*
D03*
X157923D02*
D03*
X165223Y297952D02*
D03*
X157923D02*
D03*
Y323552D02*
D03*
X165223D02*
D03*
X157923Y326652D02*
D03*
X165223D02*
D03*
X157923Y329852D02*
D03*
X165223Y329752D02*
D03*
X157923Y332952D02*
D03*
X165223D02*
D03*
Y358552D02*
D03*
X157923D02*
D03*
X165223Y355352D02*
D03*
X157923Y355452D02*
D03*
X165223Y352252D02*
D03*
X157923D02*
D03*
X165223Y349152D02*
D03*
X157923D02*
D03*
Y374752D02*
D03*
X165223D02*
D03*
X157923Y377852D02*
D03*
X165223D02*
D03*
X157923Y381052D02*
D03*
X165223Y380952D02*
D03*
X157923Y384152D02*
D03*
X165223D02*
D03*
Y409752D02*
D03*
X157923D02*
D03*
X165223Y406552D02*
D03*
X157923Y406652D02*
D03*
X165223Y403452D02*
D03*
X157923D02*
D03*
X165223Y400352D02*
D03*
X157923D02*
D03*
Y425952D02*
D03*
X165223D02*
D03*
X157923Y429052D02*
D03*
X165223D02*
D03*
X157923Y432252D02*
D03*
X165223Y432152D02*
D03*
X157923Y435352D02*
D03*
X165223D02*
D03*
Y460952D02*
D03*
X157923D02*
D03*
X165223Y457752D02*
D03*
X157923Y457852D02*
D03*
X165223Y454652D02*
D03*
X157923D02*
D03*
X165223Y451552D02*
D03*
X157923D02*
D03*
D180*
X557985Y243223D02*
D03*
Y250523D02*
D03*
X554885Y243223D02*
D03*
Y250523D02*
D03*
X551685Y243223D02*
D03*
X551785Y250523D02*
D03*
X548585Y243223D02*
D03*
Y250523D02*
D03*
X415785Y182923D02*
D03*
Y175623D02*
D03*
X418985Y182923D02*
D03*
X418885Y175623D02*
D03*
X422085Y182923D02*
D03*
Y175623D02*
D03*
X425185Y182923D02*
D03*
Y175623D02*
D03*
X557985Y311023D02*
D03*
Y318323D02*
D03*
X554885Y311023D02*
D03*
Y318323D02*
D03*
X551685Y311023D02*
D03*
X551785Y318323D02*
D03*
X548585Y311023D02*
D03*
Y318323D02*
D03*
X415785Y248123D02*
D03*
Y240823D02*
D03*
X418985Y248123D02*
D03*
X418885Y240823D02*
D03*
X422085Y248123D02*
D03*
Y240823D02*
D03*
X425185Y248123D02*
D03*
Y240823D02*
D03*
D181*
X575008Y370866D02*
D03*
X583508D02*
D03*
X583500Y379000D02*
D03*
X575000D02*
D03*
Y388583D02*
D03*
X583500D02*
D03*
X706500Y353500D02*
D03*
X715000D02*
D03*
X706500Y371000D02*
D03*
X715000D02*
D03*
X706500Y346000D02*
D03*
X715000D02*
D03*
X706500Y381500D02*
D03*
X715000D02*
D03*
X706500Y363500D02*
D03*
X715000D02*
D03*
X706500Y389000D02*
D03*
X715000D02*
D03*
Y328500D02*
D03*
X706500D02*
D03*
X715000Y336000D02*
D03*
X706500D02*
D03*
X752000Y509500D02*
D03*
X760500D02*
D03*
X752000Y407500D02*
D03*
X760500D02*
D03*
X752000Y399500D02*
D03*
X760500D02*
D03*
X752000Y423500D02*
D03*
X760500D02*
D03*
X752000Y415500D02*
D03*
X760500D02*
D03*
X752000Y439500D02*
D03*
X760500D02*
D03*
X752000Y431500D02*
D03*
X760500D02*
D03*
X752000Y455000D02*
D03*
X760500D02*
D03*
X752000Y446500D02*
D03*
X760500D02*
D03*
X752000Y471000D02*
D03*
X760500D02*
D03*
X752000Y463000D02*
D03*
X760500D02*
D03*
X752000Y486500D02*
D03*
X760500D02*
D03*
X752000Y478500D02*
D03*
X760500D02*
D03*
X752000Y502000D02*
D03*
X760500D02*
D03*
X752000Y494000D02*
D03*
X760500D02*
D03*
X700000Y407500D02*
D03*
X691500D02*
D03*
X700000Y400000D02*
D03*
X691500D02*
D03*
X700000Y423500D02*
D03*
X691500D02*
D03*
X700000Y416000D02*
D03*
X691500D02*
D03*
X700000Y439500D02*
D03*
X691500D02*
D03*
X700000Y432000D02*
D03*
X691500D02*
D03*
X700000Y455500D02*
D03*
X691500D02*
D03*
X700000Y448000D02*
D03*
X691500D02*
D03*
X700000Y471000D02*
D03*
X691500D02*
D03*
X700000Y463500D02*
D03*
X691500D02*
D03*
X700000Y502000D02*
D03*
X691500D02*
D03*
X700000Y510000D02*
D03*
X691500D02*
D03*
X700000Y517500D02*
D03*
X691500D02*
D03*
Y494500D02*
D03*
X700000D02*
D03*
X691500Y479000D02*
D03*
X700000D02*
D03*
X691500Y486500D02*
D03*
X700000D02*
D03*
X684000Y328500D02*
D03*
X675500D02*
D03*
X684000Y336000D02*
D03*
X675500D02*
D03*
X684000Y346000D02*
D03*
X675500D02*
D03*
X684000Y353500D02*
D03*
X675500D02*
D03*
X684000Y363500D02*
D03*
X675500D02*
D03*
X684000Y371000D02*
D03*
X675500D02*
D03*
X684000Y381000D02*
D03*
X675500D02*
D03*
X684000Y388500D02*
D03*
X675500D02*
D03*
X752000Y517500D02*
D03*
X760500D02*
D03*
X640743Y355724D02*
D03*
X649243D02*
D03*
X640743Y363224D02*
D03*
X649243D02*
D03*
X640743Y370724D02*
D03*
X649243D02*
D03*
X640743Y378224D02*
D03*
X649243D02*
D03*
X557600Y433581D02*
D03*
X566100D02*
D03*
X557600Y442540D02*
D03*
X566100D02*
D03*
X557500Y455000D02*
D03*
X566000D02*
D03*
X557500Y462650D02*
D03*
X566000D02*
D03*
X291500Y479037D02*
D03*
X300000D02*
D03*
X291500Y471437D02*
D03*
X300000D02*
D03*
X263000Y472937D02*
D03*
X254500D02*
D03*
X263000Y493437D02*
D03*
X254500D02*
D03*
X234500Y472937D02*
D03*
X226000D02*
D03*
X234500Y493437D02*
D03*
X226000D02*
D03*
X540800Y231301D02*
D03*
X532300D02*
D03*
X540800Y240400D02*
D03*
X532300D02*
D03*
X600600Y525200D02*
D03*
X592100D02*
D03*
X600600Y515200D02*
D03*
X592100D02*
D03*
X600600Y505200D02*
D03*
X592100D02*
D03*
X407700Y182800D02*
D03*
X399200D02*
D03*
X221177Y108600D02*
D03*
X229677D02*
D03*
X221177Y101100D02*
D03*
X229677D02*
D03*
X319400Y164100D02*
D03*
X310900D02*
D03*
X319400Y171100D02*
D03*
X310900D02*
D03*
X405800Y268500D02*
D03*
X414300D02*
D03*
X400224Y311518D02*
D03*
X391724D02*
D03*
X361437Y311900D02*
D03*
X352937D02*
D03*
X406400Y148600D02*
D03*
X397901D02*
D03*
X406400Y157500D02*
D03*
X397901D02*
D03*
X415500Y148600D02*
D03*
X424001D02*
D03*
X415500Y157500D02*
D03*
X424001D02*
D03*
X570200Y250400D02*
D03*
X578700D02*
D03*
X573600Y127200D02*
D03*
X565100D02*
D03*
X556200D02*
D03*
X564700D02*
D03*
X449500Y129800D02*
D03*
X458000D02*
D03*
X570200Y242800D02*
D03*
X578700D02*
D03*
X336700Y149200D02*
D03*
X345200D02*
D03*
X336700Y157350D02*
D03*
X345200D02*
D03*
X336700Y165500D02*
D03*
X345200D02*
D03*
X399200Y175600D02*
D03*
X407700D02*
D03*
X683500Y129167D02*
D03*
X675000D02*
D03*
X683500Y139833D02*
D03*
X675000D02*
D03*
X683500Y118500D02*
D03*
X675000D02*
D03*
X683500Y150500D02*
D03*
X675000D02*
D03*
X234500Y442937D02*
D03*
X226000D02*
D03*
X234500Y412937D02*
D03*
X226000D02*
D03*
X234500Y382937D02*
D03*
X226000D02*
D03*
X234500Y352937D02*
D03*
X226000D02*
D03*
X234500Y322937D02*
D03*
X226000D02*
D03*
X234500Y292937D02*
D03*
X226000D02*
D03*
X234500Y463437D02*
D03*
X226000D02*
D03*
X234500Y433437D02*
D03*
X226000D02*
D03*
X234500Y403437D02*
D03*
X226000D02*
D03*
X234500Y373437D02*
D03*
X226000D02*
D03*
X234500Y343437D02*
D03*
X226000D02*
D03*
X234500Y313437D02*
D03*
X226000D02*
D03*
X234500Y262937D02*
D03*
X226000D02*
D03*
X234500Y283437D02*
D03*
X226000D02*
D03*
X263000Y442937D02*
D03*
X254500D02*
D03*
X263000Y412937D02*
D03*
X254500D02*
D03*
X263000Y382937D02*
D03*
X254500D02*
D03*
X263000Y352937D02*
D03*
X254500D02*
D03*
X263000Y322937D02*
D03*
X254500D02*
D03*
X263000Y463437D02*
D03*
X254500D02*
D03*
X263000Y433437D02*
D03*
X254500D02*
D03*
X263000Y403437D02*
D03*
X254500D02*
D03*
X263000Y373437D02*
D03*
X254500D02*
D03*
X263000Y343437D02*
D03*
X254500D02*
D03*
X263500Y283437D02*
D03*
X255000D02*
D03*
X263500Y262937D02*
D03*
X255000D02*
D03*
X263500Y313437D02*
D03*
X255000D02*
D03*
X263500Y292937D02*
D03*
X255000D02*
D03*
X291500Y291437D02*
D03*
X300000D02*
D03*
X291500Y321437D02*
D03*
X300000D02*
D03*
X291500Y351437D02*
D03*
X300000D02*
D03*
X291500Y381437D02*
D03*
X300000D02*
D03*
X291500Y411437D02*
D03*
X300000D02*
D03*
X291500Y441437D02*
D03*
X300000D02*
D03*
X291500Y449037D02*
D03*
X300000D02*
D03*
X291500Y419037D02*
D03*
X300000D02*
D03*
X291500Y389037D02*
D03*
X300000D02*
D03*
X291500Y359037D02*
D03*
X300000D02*
D03*
X291500Y329137D02*
D03*
X300000D02*
D03*
X292000Y269037D02*
D03*
X300500D02*
D03*
X292000Y299037D02*
D03*
X300500D02*
D03*
X292000Y261437D02*
D03*
X300500D02*
D03*
X181100Y498137D02*
D03*
X189600D02*
D03*
X181100Y483137D02*
D03*
X189600D02*
D03*
X526500Y418500D02*
D03*
X518000D02*
D03*
D182*
X585465Y398425D02*
D03*
X574465D02*
D03*
X542800Y318500D02*
D03*
X531800D02*
D03*
X527500Y364000D02*
D03*
X516500D02*
D03*
X541700Y250500D02*
D03*
X530700D02*
D03*
X527500Y374000D02*
D03*
X516500D02*
D03*
X527500Y411000D02*
D03*
X516500D02*
D03*
Y403000D02*
D03*
X527500D02*
D03*
D183*
X620562Y242400D02*
D03*
Y250900D02*
D03*
X613562Y242400D02*
D03*
Y250900D02*
D03*
X606562Y242400D02*
D03*
Y250900D02*
D03*
X599562Y242600D02*
D03*
Y251100D02*
D03*
X592520Y242600D02*
D03*
Y251100D02*
D03*
X585600Y242500D02*
D03*
Y251000D02*
D03*
X519900Y178600D02*
D03*
Y187100D02*
D03*
X512160Y178600D02*
D03*
Y187100D02*
D03*
X504420Y178600D02*
D03*
Y187100D02*
D03*
X496680Y178600D02*
D03*
Y187100D02*
D03*
X488940Y178600D02*
D03*
Y187100D02*
D03*
X481200Y178600D02*
D03*
Y187100D02*
D03*
X472900Y183900D02*
D03*
Y175400D02*
D03*
X458900Y183900D02*
D03*
Y175400D02*
D03*
X451900Y183900D02*
D03*
Y175400D02*
D03*
X444900Y183900D02*
D03*
Y175400D02*
D03*
X437900Y183900D02*
D03*
Y175400D02*
D03*
X519200Y135100D02*
D03*
Y126600D02*
D03*
X583385Y105786D02*
D03*
Y114286D02*
D03*
X561733Y105985D02*
D03*
Y114486D02*
D03*
X539866Y105985D02*
D03*
Y114486D02*
D03*
X517300Y105886D02*
D03*
Y114385D02*
D03*
X745000Y517500D02*
D03*
Y509000D02*
D03*
Y486000D02*
D03*
Y477500D02*
D03*
Y501500D02*
D03*
Y493000D02*
D03*
X722500Y336500D02*
D03*
Y328000D02*
D03*
Y354000D02*
D03*
Y345500D02*
D03*
Y371500D02*
D03*
Y363000D02*
D03*
Y389500D02*
D03*
Y381000D02*
D03*
X730500Y336500D02*
D03*
Y328000D02*
D03*
Y354000D02*
D03*
Y345500D02*
D03*
Y371500D02*
D03*
Y363000D02*
D03*
Y389500D02*
D03*
Y381000D02*
D03*
X676000Y517500D02*
D03*
Y509000D02*
D03*
Y462500D02*
D03*
Y471000D02*
D03*
X684000Y399000D02*
D03*
Y407500D02*
D03*
Y447000D02*
D03*
Y455500D02*
D03*
Y462500D02*
D03*
Y471000D02*
D03*
Y493500D02*
D03*
Y502000D02*
D03*
Y423500D02*
D03*
Y415000D02*
D03*
Y439500D02*
D03*
Y431000D02*
D03*
Y486500D02*
D03*
Y478000D02*
D03*
X745000Y399500D02*
D03*
Y408000D02*
D03*
Y415500D02*
D03*
Y424000D02*
D03*
Y431500D02*
D03*
Y440000D02*
D03*
Y446500D02*
D03*
Y455000D02*
D03*
Y462000D02*
D03*
Y470500D02*
D03*
X737000Y509000D02*
D03*
Y517500D02*
D03*
Y399500D02*
D03*
Y408000D02*
D03*
Y415500D02*
D03*
Y424000D02*
D03*
Y431500D02*
D03*
Y440000D02*
D03*
Y446500D02*
D03*
Y455000D02*
D03*
Y462000D02*
D03*
Y470500D02*
D03*
Y477500D02*
D03*
Y486000D02*
D03*
X676000Y423500D02*
D03*
Y415000D02*
D03*
Y439500D02*
D03*
Y431000D02*
D03*
Y455500D02*
D03*
Y447000D02*
D03*
Y399000D02*
D03*
Y407500D02*
D03*
Y478000D02*
D03*
Y486500D02*
D03*
Y493500D02*
D03*
Y502000D02*
D03*
X737000Y493000D02*
D03*
Y501500D02*
D03*
X617600Y309200D02*
D03*
Y317700D02*
D03*
X611100Y309200D02*
D03*
Y317700D02*
D03*
X604600Y309200D02*
D03*
Y317700D02*
D03*
X598100Y309200D02*
D03*
Y317700D02*
D03*
X591500Y309200D02*
D03*
Y317700D02*
D03*
X585062Y309200D02*
D03*
Y317700D02*
D03*
X578600Y309200D02*
D03*
Y317700D02*
D03*
X529280Y348507D02*
D03*
Y340007D02*
D03*
X638583Y388351D02*
D03*
Y396851D02*
D03*
X300000Y485437D02*
D03*
Y493937D02*
D03*
X270500Y470937D02*
D03*
Y479437D02*
D03*
X307500D02*
D03*
Y470937D02*
D03*
X292500Y493937D02*
D03*
Y485437D02*
D03*
X307500D02*
D03*
Y493937D02*
D03*
X270500Y485437D02*
D03*
Y493937D02*
D03*
X255000Y487437D02*
D03*
Y478937D02*
D03*
X263500Y487437D02*
D03*
Y478937D02*
D03*
X233000Y487437D02*
D03*
Y478937D02*
D03*
X226500Y487437D02*
D03*
Y478937D02*
D03*
X361500Y299757D02*
D03*
Y291257D02*
D03*
X465900Y183900D02*
D03*
Y175400D02*
D03*
X394576Y440917D02*
D03*
Y449417D02*
D03*
X349760Y183352D02*
D03*
Y174852D02*
D03*
X364920D02*
D03*
Y183352D02*
D03*
X387660D02*
D03*
Y174852D02*
D03*
X178000Y174000D02*
D03*
Y182500D02*
D03*
X193000D02*
D03*
Y174000D02*
D03*
X185500Y182500D02*
D03*
Y174000D02*
D03*
X294200Y178600D02*
D03*
Y170100D02*
D03*
X301300Y178600D02*
D03*
Y170100D02*
D03*
X684000Y517500D02*
D03*
Y509000D02*
D03*
X380080Y183352D02*
D03*
Y174852D02*
D03*
X406300Y275500D02*
D03*
Y284000D02*
D03*
X431000Y248800D02*
D03*
Y240300D02*
D03*
X357340Y183352D02*
D03*
Y174852D02*
D03*
X199592Y100500D02*
D03*
Y109000D02*
D03*
X205500Y143700D02*
D03*
Y135200D02*
D03*
X206988Y108992D02*
D03*
Y100492D02*
D03*
X215059Y108992D02*
D03*
Y100492D02*
D03*
X338500Y98700D02*
D03*
Y107200D02*
D03*
X325500Y98700D02*
D03*
Y107200D02*
D03*
X332000Y98700D02*
D03*
Y107200D02*
D03*
X372500Y183352D02*
D03*
Y174852D02*
D03*
X376650Y326899D02*
D03*
Y318399D02*
D03*
X407300Y241800D02*
D03*
Y250300D02*
D03*
X339612Y326798D02*
D03*
Y318298D02*
D03*
X400920Y369737D02*
D03*
Y361237D02*
D03*
X407439Y369737D02*
D03*
Y361237D02*
D03*
X411800Y103000D02*
D03*
Y94500D02*
D03*
X418800D02*
D03*
Y103000D02*
D03*
X501900Y126600D02*
D03*
Y135100D02*
D03*
X441100Y115300D02*
D03*
Y123800D02*
D03*
Y114500D02*
D03*
Y106000D02*
D03*
X564100Y250900D02*
D03*
Y242400D02*
D03*
X430700Y175400D02*
D03*
Y183900D02*
D03*
X564000Y319300D02*
D03*
Y310800D02*
D03*
X212100Y495137D02*
D03*
Y486637D02*
D03*
X211313Y473737D02*
D03*
Y465237D02*
D03*
Y446537D02*
D03*
Y438037D02*
D03*
X211213Y419437D02*
D03*
Y410937D02*
D03*
X211313Y392337D02*
D03*
Y383837D02*
D03*
X211213Y364437D02*
D03*
Y355937D02*
D03*
Y337437D02*
D03*
Y328937D02*
D03*
X211713Y310437D02*
D03*
Y301937D02*
D03*
Y282937D02*
D03*
Y274437D02*
D03*
X226500Y456937D02*
D03*
Y448437D02*
D03*
Y427437D02*
D03*
Y418937D02*
D03*
Y397437D02*
D03*
Y388937D02*
D03*
Y367437D02*
D03*
Y358937D02*
D03*
Y337437D02*
D03*
Y328937D02*
D03*
Y307437D02*
D03*
Y298937D02*
D03*
Y277437D02*
D03*
Y268937D02*
D03*
X233000Y337437D02*
D03*
Y328937D02*
D03*
Y367437D02*
D03*
Y358937D02*
D03*
Y397437D02*
D03*
Y388937D02*
D03*
Y427437D02*
D03*
Y418937D02*
D03*
Y457437D02*
D03*
Y448937D02*
D03*
Y277437D02*
D03*
Y268937D02*
D03*
Y307437D02*
D03*
Y298937D02*
D03*
X255000Y457437D02*
D03*
Y448937D02*
D03*
Y427437D02*
D03*
Y418937D02*
D03*
Y397437D02*
D03*
Y388937D02*
D03*
Y367437D02*
D03*
Y358937D02*
D03*
Y337437D02*
D03*
Y328937D02*
D03*
X255500Y277437D02*
D03*
Y268937D02*
D03*
Y307437D02*
D03*
Y298937D02*
D03*
X263500Y337437D02*
D03*
Y328937D02*
D03*
Y367437D02*
D03*
Y358937D02*
D03*
Y397437D02*
D03*
Y388937D02*
D03*
Y427437D02*
D03*
Y418937D02*
D03*
Y457437D02*
D03*
Y448937D02*
D03*
X270500Y440937D02*
D03*
Y449437D02*
D03*
Y410937D02*
D03*
Y419437D02*
D03*
Y380937D02*
D03*
Y389437D02*
D03*
Y350937D02*
D03*
Y359437D02*
D03*
Y320937D02*
D03*
Y329437D02*
D03*
Y455437D02*
D03*
Y463937D02*
D03*
Y425437D02*
D03*
Y433937D02*
D03*
Y395437D02*
D03*
Y403937D02*
D03*
Y365437D02*
D03*
Y373937D02*
D03*
Y335437D02*
D03*
Y343937D02*
D03*
X307500Y455437D02*
D03*
Y463937D02*
D03*
Y425437D02*
D03*
Y433937D02*
D03*
Y395437D02*
D03*
Y403937D02*
D03*
Y365437D02*
D03*
Y373937D02*
D03*
Y335437D02*
D03*
Y343937D02*
D03*
Y305437D02*
D03*
Y313937D02*
D03*
Y449437D02*
D03*
Y440937D02*
D03*
Y419437D02*
D03*
Y410937D02*
D03*
Y389437D02*
D03*
Y380937D02*
D03*
Y359437D02*
D03*
Y350937D02*
D03*
Y329437D02*
D03*
Y320937D02*
D03*
Y299437D02*
D03*
Y290937D02*
D03*
Y275437D02*
D03*
Y283937D02*
D03*
Y269437D02*
D03*
Y260937D02*
D03*
X300000Y455437D02*
D03*
Y463937D02*
D03*
Y425437D02*
D03*
Y433937D02*
D03*
Y395437D02*
D03*
Y403937D02*
D03*
Y365437D02*
D03*
Y373937D02*
D03*
Y335437D02*
D03*
Y343937D02*
D03*
Y305437D02*
D03*
Y313937D02*
D03*
Y275437D02*
D03*
Y283937D02*
D03*
X292500Y463937D02*
D03*
Y455437D02*
D03*
Y433937D02*
D03*
Y425437D02*
D03*
Y403937D02*
D03*
Y395437D02*
D03*
Y373937D02*
D03*
Y365437D02*
D03*
Y343937D02*
D03*
Y335437D02*
D03*
Y313937D02*
D03*
Y305437D02*
D03*
Y283937D02*
D03*
Y275437D02*
D03*
X271000D02*
D03*
Y283937D02*
D03*
Y260937D02*
D03*
Y269437D02*
D03*
Y305437D02*
D03*
Y313937D02*
D03*
Y290937D02*
D03*
Y299437D02*
D03*
X264000Y277437D02*
D03*
Y268937D02*
D03*
Y307437D02*
D03*
Y298937D02*
D03*
X388200Y415437D02*
D03*
Y406937D02*
D03*
X395200Y415437D02*
D03*
Y406937D02*
D03*
X414200Y369763D02*
D03*
Y361263D02*
D03*
X421200Y369763D02*
D03*
Y361263D02*
D03*
X428200Y369763D02*
D03*
Y361263D02*
D03*
X435000Y361174D02*
D03*
Y369674D02*
D03*
X441500Y361174D02*
D03*
Y369674D02*
D03*
X394400Y361237D02*
D03*
Y369737D02*
D03*
X391500Y299757D02*
D03*
Y291257D02*
D03*
X413800Y275500D02*
D03*
Y284000D02*
D03*
X437900Y248800D02*
D03*
Y240300D02*
D03*
X444900Y248800D02*
D03*
Y240300D02*
D03*
X451900Y248800D02*
D03*
Y240300D02*
D03*
X458900Y248800D02*
D03*
Y240300D02*
D03*
X472900Y248800D02*
D03*
Y240300D02*
D03*
X465900Y248800D02*
D03*
Y240300D02*
D03*
X179900Y240600D02*
D03*
Y249100D02*
D03*
X187900D02*
D03*
Y240600D02*
D03*
X195900D02*
D03*
Y249100D02*
D03*
X628667Y506900D02*
D03*
Y515400D02*
D03*
X638000Y506900D02*
D03*
Y515400D02*
D03*
X610000Y506900D02*
D03*
Y515400D02*
D03*
X619000Y515500D02*
D03*
Y507000D02*
D03*
D184*
X525400Y125832D02*
D03*
X532881D02*
D03*
X525400Y135281D02*
D03*
X532881D02*
D03*
X529141Y125832D02*
D03*
X576726Y115213D02*
D03*
X569246D02*
D03*
X576726Y105764D02*
D03*
X569246D02*
D03*
X572986Y115213D02*
D03*
X554941Y115413D02*
D03*
X547460D02*
D03*
X554941Y105964D02*
D03*
X547460D02*
D03*
X551200Y115413D02*
D03*
X532940D02*
D03*
X525460D02*
D03*
X532940Y105964D02*
D03*
X525460D02*
D03*
X529200Y115413D02*
D03*
X510540Y115313D02*
D03*
X503060D02*
D03*
X510540Y105864D02*
D03*
X503060D02*
D03*
X506800Y115313D02*
D03*
X394068Y318698D02*
D03*
X401548D02*
D03*
X394068Y328147D02*
D03*
X401548D02*
D03*
X397808Y318698D02*
D03*
X355868Y318298D02*
D03*
X363348D02*
D03*
X355868Y327747D02*
D03*
X363348D02*
D03*
X359608Y318298D02*
D03*
X518000Y385500D02*
D03*
X525480D02*
D03*
X518000Y394949D02*
D03*
X525480D02*
D03*
X521740Y385500D02*
D03*
D185*
X613817Y167500D02*
D03*
X619329D02*
D03*
X613817Y173000D02*
D03*
X619329D02*
D03*
X158488Y466437D02*
D03*
X164000D02*
D03*
X613817Y195000D02*
D03*
X619329D02*
D03*
X613817Y189600D02*
D03*
X619329D02*
D03*
D186*
X742642Y332500D02*
D03*
X760358D02*
D03*
X742642Y350000D02*
D03*
X760358D02*
D03*
X742642Y385500D02*
D03*
X760358D02*
D03*
X742642Y367500D02*
D03*
X760358D02*
D03*
X710142Y403500D02*
D03*
X727858D02*
D03*
X710142Y419500D02*
D03*
X727858D02*
D03*
X710142Y435500D02*
D03*
X727858D02*
D03*
X710142Y451000D02*
D03*
X727858D02*
D03*
X710142Y467000D02*
D03*
X727858D02*
D03*
X710142Y498000D02*
D03*
X727858D02*
D03*
X382658Y140650D02*
D03*
X364942D02*
D03*
X710142Y513500D02*
D03*
X727858D02*
D03*
X710142Y482500D02*
D03*
X727858D02*
D03*
D187*
X691520Y330551D02*
D03*
X699000D02*
D03*
X695260Y340000D02*
D03*
X699000D02*
D03*
X691520D02*
D03*
Y347551D02*
D03*
X699000D02*
D03*
X695260Y357000D02*
D03*
X699000D02*
D03*
X691520D02*
D03*
Y364551D02*
D03*
X699000D02*
D03*
X695260Y374000D02*
D03*
X699000D02*
D03*
X691520D02*
D03*
Y391000D02*
D03*
X699000D02*
D03*
X695260D02*
D03*
X699000Y381551D02*
D03*
X691520D02*
D03*
D188*
X570800Y306688D02*
D03*
Y312200D02*
D03*
X540800D02*
D03*
Y306688D02*
D03*
X535800Y312200D02*
D03*
Y306688D02*
D03*
D189*
X584862Y269300D02*
D03*
X589862D02*
D03*
X594862D02*
D03*
X599862D02*
D03*
X604862D02*
D03*
X609862D02*
D03*
X614862D02*
D03*
X619862D02*
D03*
Y291300D02*
D03*
X614862D02*
D03*
X609862D02*
D03*
X604862D02*
D03*
X599862D02*
D03*
X594862D02*
D03*
X589862D02*
D03*
X584862D02*
D03*
X437200Y204100D02*
D03*
X442200D02*
D03*
X447200D02*
D03*
X452200D02*
D03*
X457200D02*
D03*
X462200D02*
D03*
X467200D02*
D03*
X472200D02*
D03*
Y226100D02*
D03*
X467200D02*
D03*
X462200D02*
D03*
X457200D02*
D03*
X452200D02*
D03*
X447200D02*
D03*
X442200D02*
D03*
X437200D02*
D03*
D190*
X535800Y262496D02*
D03*
X540800D02*
D03*
X545800D02*
D03*
X550800D02*
D03*
X555800D02*
D03*
X560800D02*
D03*
X565800D02*
D03*
X570800D02*
D03*
X535800Y299504D02*
D03*
X540800D02*
D03*
X545800D02*
D03*
X550800D02*
D03*
X555800D02*
D03*
X560800D02*
D03*
X565800D02*
D03*
X570800D02*
D03*
D191*
X629528Y398021D02*
D03*
Y387020D02*
D03*
X619800Y411700D02*
D03*
Y422700D02*
D03*
X610900D02*
D03*
Y411700D02*
D03*
X602000D02*
D03*
Y422700D02*
D03*
X593100Y411700D02*
D03*
Y422700D02*
D03*
X343676Y454517D02*
D03*
Y443517D02*
D03*
X386200Y448937D02*
D03*
Y437937D02*
D03*
X384437Y328399D02*
D03*
Y317399D02*
D03*
X347399Y328298D02*
D03*
Y317298D02*
D03*
X335176Y443517D02*
D03*
Y454517D02*
D03*
X347200Y425337D02*
D03*
Y414337D02*
D03*
X356100D02*
D03*
Y425337D02*
D03*
X365100D02*
D03*
Y414337D02*
D03*
X373900Y425337D02*
D03*
Y414337D02*
D03*
D192*
X597366Y375181D02*
D03*
Y372622D02*
D03*
Y370063D02*
D03*
Y367504D02*
D03*
Y364945D02*
D03*
Y362386D02*
D03*
Y359827D02*
D03*
Y357268D02*
D03*
X619807Y375181D02*
D03*
Y372622D02*
D03*
Y370063D02*
D03*
Y367504D02*
D03*
Y364945D02*
D03*
Y362386D02*
D03*
Y359827D02*
D03*
Y357268D02*
D03*
X181780Y282894D02*
D03*
Y280335D02*
D03*
Y277776D02*
D03*
Y275217D02*
D03*
Y272657D02*
D03*
Y270098D02*
D03*
Y267539D02*
D03*
Y264980D02*
D03*
X204221Y282894D02*
D03*
Y280335D02*
D03*
Y277776D02*
D03*
Y275217D02*
D03*
Y272657D02*
D03*
Y270098D02*
D03*
Y267539D02*
D03*
Y264980D02*
D03*
X181780Y364536D02*
D03*
Y361978D02*
D03*
Y359418D02*
D03*
Y356859D02*
D03*
Y354300D02*
D03*
Y351741D02*
D03*
Y349182D02*
D03*
Y346623D02*
D03*
X204221Y364536D02*
D03*
Y361978D02*
D03*
Y359418D02*
D03*
Y356859D02*
D03*
Y354300D02*
D03*
Y351741D02*
D03*
Y349182D02*
D03*
Y346623D02*
D03*
X181780Y473394D02*
D03*
Y470835D02*
D03*
Y468276D02*
D03*
Y465717D02*
D03*
Y463157D02*
D03*
Y460598D02*
D03*
Y458039D02*
D03*
Y455480D02*
D03*
X204221Y473394D02*
D03*
Y470835D02*
D03*
Y468276D02*
D03*
Y465717D02*
D03*
Y463157D02*
D03*
Y460598D02*
D03*
Y458039D02*
D03*
Y455480D02*
D03*
X181780Y446179D02*
D03*
Y443620D02*
D03*
Y441061D02*
D03*
Y438502D02*
D03*
Y435943D02*
D03*
Y433384D02*
D03*
Y430825D02*
D03*
Y428266D02*
D03*
X204221Y446179D02*
D03*
Y443620D02*
D03*
Y441061D02*
D03*
Y438502D02*
D03*
Y435943D02*
D03*
Y433384D02*
D03*
Y430825D02*
D03*
Y428266D02*
D03*
X181780Y418965D02*
D03*
Y416406D02*
D03*
Y413847D02*
D03*
Y411288D02*
D03*
Y408729D02*
D03*
Y406170D02*
D03*
Y403611D02*
D03*
Y401052D02*
D03*
X204221Y418965D02*
D03*
Y416406D02*
D03*
Y413847D02*
D03*
Y411288D02*
D03*
Y408729D02*
D03*
Y406170D02*
D03*
Y403611D02*
D03*
Y401052D02*
D03*
X181780Y391751D02*
D03*
Y389192D02*
D03*
Y386633D02*
D03*
Y384074D02*
D03*
Y381515D02*
D03*
Y378956D02*
D03*
Y376396D02*
D03*
Y373837D02*
D03*
X204221Y391751D02*
D03*
Y389192D02*
D03*
Y386633D02*
D03*
Y384074D02*
D03*
Y381515D02*
D03*
Y378956D02*
D03*
Y376396D02*
D03*
Y373837D02*
D03*
X181780Y337322D02*
D03*
Y334763D02*
D03*
Y332204D02*
D03*
Y329645D02*
D03*
Y327086D02*
D03*
Y324527D02*
D03*
Y321968D02*
D03*
Y319409D02*
D03*
X204221Y337322D02*
D03*
Y334763D02*
D03*
Y332204D02*
D03*
Y329645D02*
D03*
Y327086D02*
D03*
Y324527D02*
D03*
Y321968D02*
D03*
Y319409D02*
D03*
X181780Y310108D02*
D03*
Y307549D02*
D03*
Y304990D02*
D03*
Y302431D02*
D03*
Y299872D02*
D03*
Y297313D02*
D03*
Y294754D02*
D03*
Y292195D02*
D03*
X204221Y310108D02*
D03*
Y307549D02*
D03*
Y304990D02*
D03*
Y302431D02*
D03*
Y299872D02*
D03*
Y297313D02*
D03*
Y294754D02*
D03*
Y292195D02*
D03*
D193*
X244500Y492295D02*
D03*
Y474579D02*
D03*
X252100Y121142D02*
D03*
Y138858D02*
D03*
X244500Y282295D02*
D03*
Y264579D02*
D03*
Y312295D02*
D03*
Y294579D02*
D03*
Y342295D02*
D03*
Y324579D02*
D03*
Y372295D02*
D03*
Y354579D02*
D03*
Y402295D02*
D03*
Y384579D02*
D03*
Y432295D02*
D03*
Y414579D02*
D03*
Y462295D02*
D03*
Y444579D02*
D03*
D194*
X598517Y395495D02*
D03*
Y392929D02*
D03*
Y390362D02*
D03*
Y387795D02*
D03*
X617717Y395495D02*
D03*
Y390362D02*
D03*
Y387795D02*
D03*
Y392929D02*
D03*
D195*
X626957Y473764D02*
D03*
Y471795D02*
D03*
Y469827D02*
D03*
Y467858D02*
D03*
Y465890D02*
D03*
Y463921D02*
D03*
Y461953D02*
D03*
Y459984D02*
D03*
Y458016D02*
D03*
Y456047D02*
D03*
Y454079D02*
D03*
Y452110D02*
D03*
Y450142D02*
D03*
Y448173D02*
D03*
Y446205D02*
D03*
Y444236D02*
D03*
X584043D02*
D03*
Y446205D02*
D03*
Y448173D02*
D03*
Y450142D02*
D03*
Y452110D02*
D03*
Y454079D02*
D03*
Y456047D02*
D03*
Y458016D02*
D03*
Y459984D02*
D03*
Y461953D02*
D03*
Y463921D02*
D03*
Y465890D02*
D03*
Y467858D02*
D03*
Y469827D02*
D03*
Y471795D02*
D03*
Y473764D02*
D03*
X340043Y361673D02*
D03*
Y363642D02*
D03*
Y365610D02*
D03*
Y367579D02*
D03*
Y369547D02*
D03*
Y371516D02*
D03*
Y373484D02*
D03*
Y375453D02*
D03*
Y377421D02*
D03*
Y379390D02*
D03*
Y381358D02*
D03*
Y383327D02*
D03*
Y385295D02*
D03*
Y387264D02*
D03*
Y389232D02*
D03*
Y391201D02*
D03*
X382957D02*
D03*
Y389232D02*
D03*
Y387264D02*
D03*
Y385295D02*
D03*
Y383327D02*
D03*
Y381358D02*
D03*
Y379390D02*
D03*
Y377421D02*
D03*
Y375453D02*
D03*
Y373484D02*
D03*
Y371516D02*
D03*
Y369547D02*
D03*
Y367579D02*
D03*
Y365610D02*
D03*
Y363642D02*
D03*
Y361673D02*
D03*
D196*
X620264Y437543D02*
D03*
X618295D02*
D03*
X616327D02*
D03*
X614358D02*
D03*
X612390D02*
D03*
X610421D02*
D03*
X608453D02*
D03*
X606484D02*
D03*
X604516D02*
D03*
X602547D02*
D03*
X600579D02*
D03*
X598610D02*
D03*
X596642D02*
D03*
X594673D02*
D03*
X592705D02*
D03*
X590736D02*
D03*
Y480457D02*
D03*
X592705D02*
D03*
X594673D02*
D03*
X596642D02*
D03*
X598610D02*
D03*
X600579D02*
D03*
X602547D02*
D03*
X604516D02*
D03*
X606484D02*
D03*
X608453D02*
D03*
X610421D02*
D03*
X612390D02*
D03*
X614358D02*
D03*
X616327D02*
D03*
X618295D02*
D03*
X620264D02*
D03*
X346736Y397894D02*
D03*
X348705D02*
D03*
X350673D02*
D03*
X352642D02*
D03*
X354610D02*
D03*
X356579D02*
D03*
X358547D02*
D03*
X360516D02*
D03*
X362484D02*
D03*
X364453D02*
D03*
X366421D02*
D03*
X368390D02*
D03*
X370358D02*
D03*
X372327D02*
D03*
X374295D02*
D03*
X376264D02*
D03*
Y354980D02*
D03*
X374295D02*
D03*
X372327D02*
D03*
X370358D02*
D03*
X368390D02*
D03*
X366421D02*
D03*
X364453D02*
D03*
X362484D02*
D03*
X360516D02*
D03*
X358547D02*
D03*
X356579D02*
D03*
X354610D02*
D03*
X352642D02*
D03*
X350673D02*
D03*
X348705D02*
D03*
X346736D02*
D03*
D197*
X363000Y259500D02*
D03*
Y245500D02*
D03*
X351000Y259500D02*
D03*
Y245500D02*
D03*
X375000D02*
D03*
Y259500D02*
D03*
X387000Y245500D02*
D03*
Y259500D02*
D03*
D198*
X144000Y183000D02*
D03*
Y163000D02*
D03*
D199*
X164000Y182858D02*
D03*
Y165142D02*
D03*
D200*
X178500Y165000D02*
D03*
X192500D02*
D03*
D201*
X354176Y448917D02*
D03*
Y458917D02*
D03*
Y453917D02*
D03*
Y443917D02*
D03*
X376176Y458917D02*
D03*
Y453917D02*
D03*
Y448917D02*
D03*
Y443917D02*
D03*
D202*
X213000Y121700D02*
D03*
X218000D02*
D03*
X223000D02*
D03*
X228000D02*
D03*
X213000Y143700D02*
D03*
X223000D02*
D03*
X228000D02*
D03*
X218000D02*
D03*
D203*
X220526Y132673D02*
D03*
D204*
X404000Y200000D02*
D03*
D205*
X406559D02*
D03*
X409118D02*
D03*
X411677D02*
D03*
X414236D02*
D03*
X416795D02*
D03*
X419354D02*
D03*
X421913D02*
D03*
X424473D02*
D03*
X427032D02*
D03*
X404000Y229709D02*
D03*
X406559D02*
D03*
X409118D02*
D03*
X411677D02*
D03*
X414236D02*
D03*
X416795D02*
D03*
X419354D02*
D03*
X421913D02*
D03*
X424473D02*
D03*
X427032D02*
D03*
D206*
X310900Y153490D02*
D03*
X301884D02*
D03*
X319916D02*
D03*
X415600Y136991D02*
D03*
X406585D02*
D03*
X424616D02*
D03*
D207*
X310900Y127900D02*
D03*
X415600Y111400D02*
D03*
D208*
X468200Y136200D02*
D03*
D209*
Y133641D02*
D03*
Y131082D02*
D03*
Y128523D02*
D03*
Y125964D02*
D03*
Y123405D02*
D03*
Y120846D02*
D03*
Y118287D02*
D03*
Y115727D02*
D03*
Y113169D02*
D03*
X493609Y136200D02*
D03*
Y133641D02*
D03*
Y131082D02*
D03*
Y128523D02*
D03*
Y125964D02*
D03*
Y123405D02*
D03*
Y120846D02*
D03*
Y118287D02*
D03*
Y115727D02*
D03*
Y113169D02*
D03*
D210*
X535500Y216500D02*
D03*
X767126Y403642D02*
D03*
X776230D02*
D03*
X767126Y411417D02*
D03*
X776230D02*
D03*
X767126Y419587D02*
D03*
X776230D02*
D03*
X767126Y427559D02*
D03*
X776230D02*
D03*
X767126Y435236D02*
D03*
X776230D02*
D03*
X767126Y443012D02*
D03*
X776230D02*
D03*
X767126Y450886D02*
D03*
X776230D02*
D03*
X767126Y458957D02*
D03*
X776230D02*
D03*
X767126Y467028D02*
D03*
X776230D02*
D03*
X767126Y474803D02*
D03*
X776230D02*
D03*
X767126Y482480D02*
D03*
X776230D02*
D03*
X767126Y490256D02*
D03*
X776230D02*
D03*
X767126Y497933D02*
D03*
X776230D02*
D03*
X767126Y505709D02*
D03*
X776230D02*
D03*
Y513484D02*
D03*
X767126D02*
D03*
X591500Y367504D02*
D03*
X540500Y364000D02*
D03*
D211*
X591100Y160600D02*
D03*
D212*
X571374Y158579D02*
D03*
X573343D02*
D03*
X541847Y158579D02*
D03*
X563500D02*
D03*
X559563Y158579D02*
D03*
X565469Y158579D02*
D03*
X557594Y158579D02*
D03*
X569406Y218421D02*
D03*
X539878D02*
D03*
X581217Y158579D02*
D03*
X587122Y158579D02*
D03*
X579248Y158579D02*
D03*
X565469Y218421D02*
D03*
X547752Y218421D02*
D03*
X551689D02*
D03*
X549720D02*
D03*
X577280Y158579D02*
D03*
X561531Y158579D02*
D03*
X559563Y218421D02*
D03*
X583185Y158579D02*
D03*
X581217Y218421D02*
D03*
X563500D02*
D03*
X561531D02*
D03*
X583185D02*
D03*
X553657Y218421D02*
D03*
X539878Y158579D02*
D03*
X569406D02*
D03*
X585153Y158579D02*
D03*
X567437Y158579D02*
D03*
X555626Y158579D02*
D03*
X543815D02*
D03*
X567437Y218421D02*
D03*
X575311Y158579D02*
D03*
X573343Y218421D02*
D03*
X549720Y158579D02*
D03*
X547752Y158579D02*
D03*
X551689Y158579D02*
D03*
X553657D02*
D03*
X541847Y218421D02*
D03*
X545784D02*
D03*
Y158579D02*
D03*
X543815Y218421D02*
D03*
X555626D02*
D03*
X575311D02*
D03*
X557594D02*
D03*
X571374Y218421D02*
D03*
X585153Y218421D02*
D03*
X587122D02*
D03*
X579248D02*
D03*
X577280D02*
D03*
D213*
X533579Y210154D02*
D03*
Y166847D02*
D03*
X533579Y172752D02*
D03*
Y180626D02*
D03*
Y170783D02*
D03*
Y168815D02*
D03*
Y164878D02*
D03*
X593421Y196374D02*
D03*
Y200311D02*
D03*
Y204248D02*
D03*
Y212122D02*
D03*
X593421Y208185D02*
D03*
Y210154D02*
D03*
X593421Y206217D02*
D03*
Y186531D02*
D03*
Y192437D02*
D03*
X533579Y196374D02*
D03*
X533579Y186531D02*
D03*
X593421Y176689D02*
D03*
X533579D02*
D03*
Y174721D02*
D03*
X593421Y168815D02*
D03*
X533579Y178657D02*
D03*
X593421Y184563D02*
D03*
X533579Y188500D02*
D03*
Y198343D02*
D03*
X593421Y202279D02*
D03*
X533579Y212122D02*
D03*
X593421Y164878D02*
D03*
Y172752D02*
D03*
X593421Y170783D02*
D03*
Y166847D02*
D03*
X593421Y180626D02*
D03*
Y178657D02*
D03*
Y174721D02*
D03*
X533579Y192437D02*
D03*
Y190469D02*
D03*
Y182595D02*
D03*
X533579Y208185D02*
D03*
Y206217D02*
D03*
X533579Y184563D02*
D03*
Y202279D02*
D03*
Y204248D02*
D03*
Y200311D02*
D03*
X533579Y194405D02*
D03*
X593421D02*
D03*
Y198343D02*
D03*
Y190469D02*
D03*
X593421Y182595D02*
D03*
X593421Y188500D02*
D03*
D214*
X391535Y89567D02*
D03*
X356496D02*
D03*
Y111221D02*
D03*
X391535D02*
D03*
D215*
X367717Y111614D02*
D03*
X370866D02*
D03*
X374016D02*
D03*
X377165D02*
D03*
X380315D02*
D03*
D216*
X282633Y322778D02*
D03*
X277500D02*
D03*
X280067D02*
D03*
X285200D02*
D03*
X277500Y341978D02*
D03*
X280067D02*
D03*
X282633D02*
D03*
X285200D02*
D03*
X282633Y352778D02*
D03*
X277500D02*
D03*
X280067D02*
D03*
X285200D02*
D03*
X277500Y371978D02*
D03*
X280067D02*
D03*
X282633D02*
D03*
X285200D02*
D03*
X282633Y382778D02*
D03*
X277500D02*
D03*
X280067D02*
D03*
X285200D02*
D03*
X277500Y401978D02*
D03*
X280067D02*
D03*
X282633D02*
D03*
X285200D02*
D03*
X282633Y412778D02*
D03*
X277500D02*
D03*
X280067D02*
D03*
X285200D02*
D03*
X277500Y431978D02*
D03*
X280067D02*
D03*
X282633D02*
D03*
X285200D02*
D03*
X282633Y442778D02*
D03*
X277500D02*
D03*
X280067D02*
D03*
X285200D02*
D03*
X277500Y461978D02*
D03*
X280067D02*
D03*
X282633D02*
D03*
X285200D02*
D03*
X282633Y472778D02*
D03*
X277500D02*
D03*
X280067D02*
D03*
X285200D02*
D03*
X277500Y491978D02*
D03*
X280067D02*
D03*
X282633D02*
D03*
X285200D02*
D03*
X283133Y262778D02*
D03*
X278000D02*
D03*
X280567D02*
D03*
X285700D02*
D03*
X278000Y281978D02*
D03*
X280567D02*
D03*
X283133D02*
D03*
X285700D02*
D03*
X283133Y292778D02*
D03*
X278000D02*
D03*
X280567D02*
D03*
X285700D02*
D03*
X278000Y311978D02*
D03*
X280567D02*
D03*
X283133D02*
D03*
X285700D02*
D03*
D217*
X357000Y236307D02*
D03*
X364874D02*
D03*
X372748D02*
D03*
X380622D02*
D03*
Y193000D02*
D03*
X372748D02*
D03*
X364874D02*
D03*
X357000D02*
D03*
D218*
X120010Y117610D02*
D03*
D219*
Y137295D02*
D03*
D220*
X622015Y100000D02*
D03*
X629889D02*
D03*
X637763D02*
D03*
X622015Y123400D02*
D03*
X629889D02*
D03*
X637763D02*
D03*
X341500Y127800D02*
D03*
Y137800D02*
D03*
X622204Y146800D02*
D03*
X630078D02*
D03*
X637952D02*
D03*
X645826D02*
D03*
X614330D02*
D03*
D221*
X645637Y100000D02*
D03*
Y123400D02*
D03*
X653700Y146800D02*
D03*
D222*
X328900Y229800D02*
D03*
Y199800D02*
D03*
D223*
X645100Y263700D02*
D03*
Y296600D02*
D03*
D224*
X238200Y122800D02*
D03*
Y142800D02*
D03*
D225*
X760700Y145000D02*
D03*
Y135000D02*
D03*
Y125000D02*
D03*
X700700Y115000D02*
D03*
Y125000D02*
D03*
Y135000D02*
D03*
Y145000D02*
D03*
D226*
X848425Y94488D02*
D03*
X104331D02*
D03*
X104331Y530315D02*
D03*
X848425D02*
D03*
D227*
X115110Y162173D02*
D03*
D228*
X102118Y180283D02*
D03*
X126921D02*
D03*
D229*
X341500Y117800D02*
D03*
D230*
X786500Y144974D02*
D03*
Y129974D02*
D03*
Y114974D02*
D03*
X836500D02*
D03*
Y129974D02*
D03*
Y144974D02*
D03*
Y327000D02*
D03*
Y507000D02*
D03*
Y492000D02*
D03*
Y477000D02*
D03*
Y462000D02*
D03*
Y447000D02*
D03*
Y432000D02*
D03*
Y417000D02*
D03*
Y402000D02*
D03*
Y387000D02*
D03*
Y372000D02*
D03*
Y357000D02*
D03*
Y342000D02*
D03*
X786500Y327000D02*
D03*
Y342000D02*
D03*
Y357000D02*
D03*
Y372000D02*
D03*
Y387000D02*
D03*
Y402000D02*
D03*
Y417000D02*
D03*
Y432000D02*
D03*
Y447000D02*
D03*
Y462000D02*
D03*
Y477000D02*
D03*
Y492000D02*
D03*
Y507000D02*
D03*
D231*
X134500Y479937D02*
D03*
X123319Y474484D02*
D03*
X134500Y469031D02*
D03*
X123319Y463579D02*
D03*
X134500Y458126D02*
D03*
X123319Y452673D02*
D03*
X134500Y447221D02*
D03*
X123319Y441768D02*
D03*
X134500Y436315D02*
D03*
Y392693D02*
D03*
Y403598D02*
D03*
Y414504D02*
D03*
Y425410D02*
D03*
Y381787D02*
D03*
Y370882D02*
D03*
Y359976D02*
D03*
Y349071D02*
D03*
Y338165D02*
D03*
Y327260D02*
D03*
Y316354D02*
D03*
Y305449D02*
D03*
Y294543D02*
D03*
Y283638D02*
D03*
X123319Y289091D02*
D03*
Y299996D02*
D03*
Y310902D02*
D03*
Y321807D02*
D03*
Y332713D02*
D03*
Y343618D02*
D03*
Y354524D02*
D03*
Y365429D02*
D03*
Y376335D02*
D03*
Y387240D02*
D03*
Y398146D02*
D03*
Y409051D02*
D03*
Y419957D02*
D03*
Y430862D02*
D03*
D232*
X128909Y507417D02*
D03*
Y256157D02*
D03*
D233*
X824000Y180500D02*
D03*
X814000D02*
D03*
X824000Y190500D02*
D03*
X814000D02*
D03*
X824000Y200500D02*
D03*
X814000D02*
D03*
X824000Y210500D02*
D03*
X814000D02*
D03*
X824000Y220500D02*
D03*
X814000D02*
D03*
X824000Y230500D02*
D03*
X814000D02*
D03*
X824000Y240500D02*
D03*
X814000D02*
D03*
X824000Y250500D02*
D03*
X814000D02*
D03*
X824000Y260500D02*
D03*
X814000D02*
D03*
X824000Y270500D02*
D03*
X814000D02*
D03*
D234*
X397000Y230200D02*
D03*
X390600Y230100D02*
D03*
X412700Y191700D02*
D03*
X417100Y310600D02*
D03*
X407100D02*
D03*
X407700Y325500D02*
D03*
X406900Y319700D02*
D03*
X416200Y325500D02*
D03*
X416900Y319700D02*
D03*
X570400Y419100D02*
D03*
X569700Y424900D02*
D03*
X560400Y419100D02*
D03*
X561200Y424900D02*
D03*
X570400Y410600D02*
D03*
X560400D02*
D03*
X397800Y316800D02*
D03*
X538800Y318500D02*
D03*
X778471Y202500D02*
D03*
X767700Y180000D02*
D03*
X775000Y180100D02*
D03*
X767700Y197400D02*
D03*
X775000Y197500D02*
D03*
X149500Y294000D02*
D03*
X147500Y319500D02*
D03*
X144000Y344500D02*
D03*
X145000Y367000D02*
D03*
X144000Y389000D02*
D03*
X146000Y414000D02*
D03*
Y438500D02*
D03*
X143000Y468000D02*
D03*
X383000Y355000D02*
D03*
X407000D02*
D03*
X365300Y451537D02*
D03*
X365000Y459500D02*
D03*
X334500Y420000D02*
D03*
Y411500D02*
D03*
Y403500D02*
D03*
X332000Y342000D02*
D03*
Y349000D02*
D03*
Y356000D02*
D03*
X654300Y139100D02*
D03*
X475000Y117000D02*
D03*
X404800Y244400D02*
D03*
X396100Y272146D02*
D03*
X564800Y138700D02*
D03*
X550000Y126000D02*
D03*
Y134000D02*
D03*
X543000D02*
D03*
X536000Y142000D02*
D03*
X515100Y318700D02*
D03*
X531500Y315000D02*
D03*
Y321500D02*
D03*
X528500Y318400D02*
D03*
X529280Y327220D02*
D03*
Y331102D02*
D03*
X516500Y364000D02*
D03*
Y374000D02*
D03*
X518000Y423259D02*
D03*
X513241Y418500D02*
D03*
X527500Y403000D02*
D03*
Y411000D02*
D03*
X526500Y418500D02*
D03*
X518000D02*
D03*
X432000Y234200D02*
D03*
X352937Y311900D02*
D03*
X396000Y268642D02*
D03*
X339612Y330905D02*
D03*
X521740Y390000D02*
D03*
X406400Y158268D02*
D03*
Y161635D02*
D03*
X415500Y148600D02*
D03*
X391500Y268642D02*
D03*
X387000D02*
D03*
X366000Y268642D02*
D03*
X361500D02*
D03*
X357000D02*
D03*
X300500Y265237D02*
D03*
Y272537D02*
D03*
X300000Y277437D02*
D03*
X448100Y114700D02*
D03*
X453100Y114800D02*
D03*
X781879Y183550D02*
D03*
X738879Y182750D02*
D03*
X695879Y183550D02*
D03*
X652879D02*
D03*
X646300Y180050D02*
D03*
X642350Y183487D02*
D03*
X681400Y180050D02*
D03*
X688700Y180150D02*
D03*
X724700Y180000D02*
D03*
X732000Y180100D02*
D03*
X735471Y202500D02*
D03*
X732000Y197500D02*
D03*
X724700Y197400D02*
D03*
X692471Y202500D02*
D03*
X689000Y197500D02*
D03*
X681700Y197400D02*
D03*
X649471Y202500D02*
D03*
X646000Y197500D02*
D03*
X638700Y197400D02*
D03*
X649471Y225000D02*
D03*
X646000Y220000D02*
D03*
X638700Y219900D02*
D03*
X692471Y225000D02*
D03*
X689000Y220000D02*
D03*
X681700Y219900D02*
D03*
X735471Y225000D02*
D03*
X732000Y220000D02*
D03*
X724700Y219900D02*
D03*
X778471Y225000D02*
D03*
X775000Y220000D02*
D03*
X767700Y219900D02*
D03*
X778471Y247500D02*
D03*
X775000Y242500D02*
D03*
X767700Y242400D02*
D03*
X735471Y247500D02*
D03*
X732000Y242500D02*
D03*
X724700Y242400D02*
D03*
X692471Y247500D02*
D03*
X689000Y242500D02*
D03*
X681700Y242400D02*
D03*
X638700D02*
D03*
X646000Y242500D02*
D03*
X649471Y247500D02*
D03*
X755500Y197450D02*
D03*
X669500Y180050D02*
D03*
X712500D02*
D03*
X755500D02*
D03*
X798500Y197450D02*
D03*
Y180050D02*
D03*
X669500Y197450D02*
D03*
Y219950D02*
D03*
X712500Y197450D02*
D03*
Y219950D02*
D03*
X755500D02*
D03*
X798500D02*
D03*
Y242450D02*
D03*
X755500D02*
D03*
X712500D02*
D03*
X669500D02*
D03*
X659271Y180500D02*
D03*
X702271D02*
D03*
X745271D02*
D03*
X788271D02*
D03*
Y175050D02*
D03*
X781879D02*
D03*
X745271D02*
D03*
X738879D02*
D03*
X702271D02*
D03*
X695879D02*
D03*
X652879D02*
D03*
X659271D02*
D03*
X704621Y202450D02*
D03*
X661621D02*
D03*
Y224950D02*
D03*
Y247450D02*
D03*
X704621Y224950D02*
D03*
Y247450D02*
D03*
X747621D02*
D03*
Y224950D02*
D03*
Y202450D02*
D03*
X790621D02*
D03*
Y247450D02*
D03*
Y224950D02*
D03*
X564000Y310800D02*
D03*
X574108Y317700D02*
D03*
X578600Y304708D02*
D03*
X570800Y313936D02*
D03*
X568492Y319300D02*
D03*
X577200Y238000D02*
D03*
X585062Y309200D02*
D03*
Y317700D02*
D03*
X585562Y253781D02*
D03*
X585600Y239619D02*
D03*
X581300Y227900D02*
D03*
X585100Y224800D02*
D03*
X603200Y236900D02*
D03*
X596200Y237100D02*
D03*
X617700Y323100D02*
D03*
X579600Y329300D02*
D03*
X620562Y296400D02*
D03*
X622562Y299600D02*
D03*
X620562Y265600D02*
D03*
X622562Y262400D02*
D03*
X474900Y196500D02*
D03*
X472900Y199700D02*
D03*
X600600Y515200D02*
D03*
Y500800D02*
D03*
X610900Y423500D02*
D03*
X611000Y419700D02*
D03*
X581500Y371000D02*
D03*
X619600Y468752D02*
D03*
X614752Y473600D02*
D03*
X551823Y433487D02*
D03*
X555547D02*
D03*
X551497Y442445D02*
D03*
X555221D02*
D03*
X599766Y378717D02*
D03*
X594966Y354832D02*
D03*
X599766D02*
D03*
X569586Y370866D02*
D03*
X573310D02*
D03*
X569593Y379000D02*
D03*
X573317D02*
D03*
X573306Y388583D02*
D03*
X569582D02*
D03*
X569047Y398425D02*
D03*
X572771D02*
D03*
X583500Y384583D02*
D03*
X587500Y388583D02*
D03*
X642583Y388351D02*
D03*
X646583D02*
D03*
X642583Y396851D02*
D03*
X646583D02*
D03*
X593100Y410006D02*
D03*
Y406282D02*
D03*
X602000Y410006D02*
D03*
Y406282D02*
D03*
X610900Y410006D02*
D03*
Y406282D02*
D03*
X619800Y410006D02*
D03*
Y406282D02*
D03*
X592200Y464000D02*
D03*
X575400D02*
D03*
X617295Y443937D02*
D03*
X611648Y460900D02*
D03*
X599579Y447200D02*
D03*
X611648Y449900D02*
D03*
X594552D02*
D03*
X606800Y465748D02*
D03*
X594552Y460900D02*
D03*
X599400Y465748D02*
D03*
X587200Y435143D02*
D03*
Y439943D02*
D03*
X605484Y443937D02*
D03*
X594500D02*
D03*
X610421D02*
D03*
X619600Y448985D02*
D03*
X623948Y433137D02*
D03*
X548100Y505200D02*
D03*
Y515200D02*
D03*
Y525200D02*
D03*
X583100D02*
D03*
Y515200D02*
D03*
Y505200D02*
D03*
X610000Y518000D02*
D03*
Y522000D02*
D03*
X641000Y515400D02*
D03*
X645034D02*
D03*
X626000Y497000D02*
D03*
X621000D02*
D03*
X616000D02*
D03*
X542800Y318500D02*
D03*
X558500Y321000D02*
D03*
X561000Y329500D02*
D03*
X764358Y350000D02*
D03*
X768358D02*
D03*
X764358Y332500D02*
D03*
X768358D02*
D03*
X764358Y367500D02*
D03*
X768358D02*
D03*
X764358Y385500D02*
D03*
X768358D02*
D03*
X632787Y366282D02*
D03*
X608787Y366224D02*
D03*
X632268Y356439D02*
D03*
X612287Y356724D02*
D03*
X667500Y381000D02*
D03*
X671500D02*
D03*
X667500Y363500D02*
D03*
X671500D02*
D03*
X667500Y346000D02*
D03*
X671500D02*
D03*
Y328500D02*
D03*
X667500D02*
D03*
X730500Y325000D02*
D03*
X722500D02*
D03*
X715000D02*
D03*
X706500D02*
D03*
X695260Y341760D02*
D03*
Y330000D02*
D03*
X730500Y342500D02*
D03*
X722500D02*
D03*
X715000D02*
D03*
X706500D02*
D03*
X695260Y359260D02*
D03*
Y347500D02*
D03*
X730500Y360000D02*
D03*
X722500D02*
D03*
X715000D02*
D03*
X706500D02*
D03*
X695260Y376760D02*
D03*
Y365000D02*
D03*
Y382500D02*
D03*
Y394260D02*
D03*
X706500Y377500D02*
D03*
X715000D02*
D03*
X722500D02*
D03*
X730500D02*
D03*
X160200Y444600D02*
D03*
X162000Y417400D02*
D03*
X163800Y392100D02*
D03*
X158900Y366200D02*
D03*
X164300Y341400D02*
D03*
X160700Y315800D02*
D03*
X161200Y289700D02*
D03*
X162400Y474400D02*
D03*
X338229Y326798D02*
D03*
X441500Y374100D02*
D03*
Y356737D02*
D03*
X435000D02*
D03*
X360500Y337000D02*
D03*
X357500Y340000D02*
D03*
X343052Y402300D02*
D03*
X347400Y386452D02*
D03*
X368800Y236200D02*
D03*
X372748Y236307D02*
D03*
X364874D02*
D03*
X387100Y272146D02*
D03*
X391600D02*
D03*
X357100Y272146D02*
D03*
X361600D02*
D03*
X366100D02*
D03*
X356579Y391500D02*
D03*
X349705D02*
D03*
X360516Y362000D02*
D03*
X372500Y391500D02*
D03*
X361516D02*
D03*
X379800Y395494D02*
D03*
Y400294D02*
D03*
X399200Y449400D02*
D03*
X394576Y453924D02*
D03*
X356100Y413537D02*
D03*
Y417300D02*
D03*
X395000Y367800D02*
D03*
X391939Y369422D02*
D03*
X347200Y430755D02*
D03*
Y427031D02*
D03*
X356100D02*
D03*
X365100Y430755D02*
D03*
Y427031D02*
D03*
X373900Y430755D02*
D03*
Y427031D02*
D03*
X335176Y438099D02*
D03*
Y441824D02*
D03*
Y459935D02*
D03*
Y456211D02*
D03*
X386200Y432519D02*
D03*
Y436243D02*
D03*
X394576Y435499D02*
D03*
Y439224D02*
D03*
X388200Y420529D02*
D03*
Y416805D02*
D03*
X395200Y420855D02*
D03*
Y417131D02*
D03*
X207480Y497809D02*
D03*
X211024Y495841D02*
D03*
X211000Y499374D02*
D03*
Y481900D02*
D03*
X211024Y485433D02*
D03*
X207480Y483465D02*
D03*
X341888Y354980D02*
D03*
X428200Y356737D02*
D03*
X421200D02*
D03*
X414200D02*
D03*
X367600Y369689D02*
D03*
X372448Y374537D02*
D03*
X360200Y369689D02*
D03*
X355352Y374537D02*
D03*
X372448Y385537D02*
D03*
X355352D02*
D03*
X431300Y414237D02*
D03*
X421300D02*
D03*
X411300D02*
D03*
X438002Y250394D02*
D03*
Y247244D02*
D03*
X431102D02*
D03*
Y250394D02*
D03*
X400224Y311518D02*
D03*
X347399Y311881D02*
D03*
Y315605D02*
D03*
X339612Y313192D02*
D03*
Y316916D02*
D03*
X394400Y359543D02*
D03*
Y355819D02*
D03*
X380539Y328053D02*
D03*
X376602Y324904D02*
D03*
Y328841D02*
D03*
X384437Y310995D02*
D03*
X384390Y315325D02*
D03*
X376602Y316636D02*
D03*
X376650Y312305D02*
D03*
X355868Y321700D02*
D03*
X397800Y320300D02*
D03*
X472900Y230500D02*
D03*
X474900Y233700D02*
D03*
X437200Y238610D02*
D03*
X438976Y241732D02*
D03*
X383600Y245400D02*
D03*
X387000Y242300D02*
D03*
X354400Y245600D02*
D03*
X351000Y242400D02*
D03*
X612287Y366124D02*
D03*
X629387Y366224D02*
D03*
X347000Y362937D02*
D03*
X367421Y388237D02*
D03*
X411300Y379237D02*
D03*
X421300D02*
D03*
X431300D02*
D03*
X354600Y342912D02*
D03*
X351600Y345712D02*
D03*
X348700Y348412D02*
D03*
X624000Y486000D02*
D03*
X568100Y152400D02*
D03*
X585200Y212400D02*
D03*
X540000Y171500D02*
D03*
X540100Y176200D02*
D03*
X581900Y180200D02*
D03*
X581800Y187400D02*
D03*
X560800Y210300D02*
D03*
X556300D02*
D03*
X563500Y201800D02*
D03*
X357200Y185400D02*
D03*
X420700Y257600D02*
D03*
X417600Y254800D02*
D03*
X414700Y251800D02*
D03*
X176302Y280335D02*
D03*
X187900Y280637D02*
D03*
X198000Y282894D02*
D03*
X176302Y307549D02*
D03*
X187900Y307851D02*
D03*
X198000Y310108D02*
D03*
X176302Y334763D02*
D03*
X187900Y335066D02*
D03*
X198000Y337322D02*
D03*
X176302Y361978D02*
D03*
X187900Y362280D02*
D03*
X198000Y364536D02*
D03*
X176302Y389192D02*
D03*
X187900Y389494D02*
D03*
X198000Y391751D02*
D03*
X176302Y416406D02*
D03*
X187900Y416708D02*
D03*
X198000Y418965D02*
D03*
X176302Y443620D02*
D03*
X187900Y443923D02*
D03*
X198000Y446179D02*
D03*
Y473394D02*
D03*
X187900Y471137D02*
D03*
X176302Y470835D02*
D03*
X685500Y118500D02*
D03*
X685400Y150600D02*
D03*
X673000Y118400D02*
D03*
Y129000D02*
D03*
Y139800D02*
D03*
Y150500D02*
D03*
X545500Y183500D02*
D03*
X541500Y183000D02*
D03*
X547300Y203000D02*
D03*
X543600Y211000D02*
D03*
X571400Y226200D02*
D03*
X581700Y235800D02*
D03*
X458900Y173400D02*
D03*
Y165700D02*
D03*
X472900Y173400D02*
D03*
Y165700D02*
D03*
X569300Y107600D02*
D03*
X551147Y113577D02*
D03*
X547514Y107800D02*
D03*
X529146Y113577D02*
D03*
X525514Y107800D02*
D03*
X506746Y113477D02*
D03*
X414900Y176800D02*
D03*
X526800Y163800D02*
D03*
X523400Y165600D02*
D03*
X549000Y230100D02*
D03*
X581200Y166600D02*
D03*
X374100Y124501D02*
D03*
Y128801D02*
D03*
X479700Y122400D02*
D03*
X474800Y124900D02*
D03*
X608900Y190400D02*
D03*
Y186400D02*
D03*
Y182400D02*
D03*
Y178400D02*
D03*
X603000Y179000D02*
D03*
Y175000D02*
D03*
X624500Y168000D02*
D03*
Y164000D02*
D03*
X588358Y152000D02*
D03*
X497000Y146500D02*
D03*
Y142500D02*
D03*
X192000Y469437D02*
D03*
X211313Y471837D02*
D03*
Y467237D02*
D03*
Y475737D02*
D03*
X211413Y463337D02*
D03*
Y436123D02*
D03*
X211313Y448523D02*
D03*
Y440023D02*
D03*
Y444623D02*
D03*
X192000Y442223D02*
D03*
X211413Y408908D02*
D03*
X211313Y421308D02*
D03*
Y412808D02*
D03*
Y417408D02*
D03*
X192000Y415008D02*
D03*
X211413Y381694D02*
D03*
X211313Y394094D02*
D03*
Y385594D02*
D03*
Y390194D02*
D03*
X192000Y387794D02*
D03*
X211413Y354480D02*
D03*
X211313Y366880D02*
D03*
Y358380D02*
D03*
Y362980D02*
D03*
X192000Y360580D02*
D03*
X211413Y327266D02*
D03*
X211313Y339666D02*
D03*
Y331166D02*
D03*
Y335766D02*
D03*
X192000Y333366D02*
D03*
X211413Y300051D02*
D03*
X211313Y312451D02*
D03*
Y303951D02*
D03*
Y308551D02*
D03*
X192000Y306151D02*
D03*
X211413Y272837D02*
D03*
X211313Y285237D02*
D03*
Y276737D02*
D03*
Y281337D02*
D03*
X192000Y278937D02*
D03*
X279600Y267637D02*
D03*
X284100D02*
D03*
X271000Y277437D02*
D03*
Y267437D02*
D03*
Y272437D02*
D03*
X294000Y269037D02*
D03*
X307500Y262937D02*
D03*
X294000Y299037D02*
D03*
X300500Y295237D02*
D03*
Y302537D02*
D03*
X300000Y307437D02*
D03*
X298500Y291437D02*
D03*
X303600Y291137D02*
D03*
X307500Y292937D02*
D03*
X271000Y297437D02*
D03*
Y302437D02*
D03*
Y307437D02*
D03*
X283600Y327637D02*
D03*
X279100D02*
D03*
X270500Y337437D02*
D03*
Y332437D02*
D03*
Y327437D02*
D03*
X307500Y322937D02*
D03*
X303600Y321137D02*
D03*
X298500Y321437D02*
D03*
X300000Y337437D02*
D03*
X300500Y332537D02*
D03*
Y325237D02*
D03*
X294000Y329037D02*
D03*
X284100Y297637D02*
D03*
X279600D02*
D03*
X283600Y357637D02*
D03*
X279100D02*
D03*
X283600Y387637D02*
D03*
X279100D02*
D03*
X283600Y417637D02*
D03*
X279100D02*
D03*
X283600Y447637D02*
D03*
X279100D02*
D03*
X283600Y477896D02*
D03*
X279100D02*
D03*
X298000Y351437D02*
D03*
X299500Y367437D02*
D03*
X300000Y362537D02*
D03*
X303100Y351137D02*
D03*
X300000Y355237D02*
D03*
X307000Y352937D02*
D03*
X293500Y359037D02*
D03*
X298000Y381437D02*
D03*
X299500Y397437D02*
D03*
X300000Y392537D02*
D03*
X303100Y381137D02*
D03*
X300000Y385237D02*
D03*
X307000Y382937D02*
D03*
X293500Y389037D02*
D03*
X298000Y411437D02*
D03*
X299500Y427437D02*
D03*
X300000Y422537D02*
D03*
X303100Y411137D02*
D03*
X300000Y415237D02*
D03*
X307000Y412937D02*
D03*
X293500Y419037D02*
D03*
X298000Y441437D02*
D03*
X299500Y457437D02*
D03*
X300000Y452537D02*
D03*
X303100Y441137D02*
D03*
X300000Y445237D02*
D03*
X307000Y442937D02*
D03*
X293500Y449037D02*
D03*
X298000Y471437D02*
D03*
X299500Y487437D02*
D03*
X300000Y482537D02*
D03*
X303100Y471137D02*
D03*
X300000Y475237D02*
D03*
X307000Y472937D02*
D03*
X293500Y479037D02*
D03*
X270500Y357437D02*
D03*
Y362437D02*
D03*
Y367437D02*
D03*
Y387437D02*
D03*
Y392437D02*
D03*
Y397437D02*
D03*
Y417437D02*
D03*
Y422437D02*
D03*
Y427437D02*
D03*
Y447437D02*
D03*
Y452437D02*
D03*
Y457437D02*
D03*
Y477437D02*
D03*
Y482437D02*
D03*
Y487437D02*
D03*
X349400Y366037D02*
D03*
X215748Y134941D02*
D03*
X220128D02*
D03*
X224508D02*
D03*
Y130262D02*
D03*
X220128D02*
D03*
X215748D02*
D03*
X140059Y157185D02*
D03*
X144095D02*
D03*
X148130D02*
D03*
X159870Y188240D02*
D03*
X163905D02*
D03*
X167941D02*
D03*
X148130Y161319D02*
D03*
X144095D02*
D03*
X140059D02*
D03*
X168012Y185039D02*
D03*
X163976D02*
D03*
X159941D02*
D03*
X131201Y125591D02*
D03*
Y121555D02*
D03*
Y117520D02*
D03*
X134843Y125492D02*
D03*
Y121457D02*
D03*
Y117421D02*
D03*
X178051Y128051D02*
D03*
X182087D02*
D03*
X186122D02*
D03*
X177953Y114567D02*
D03*
X181988D02*
D03*
X186024D02*
D03*
X181595Y184744D02*
D03*
X185630D02*
D03*
X189665D02*
D03*
X233858Y108600D02*
D03*
Y101100D02*
D03*
X206988Y96311D02*
D03*
X195411Y100800D02*
D03*
X199592Y96319D02*
D03*
X191225Y160642D02*
D03*
X195261D02*
D03*
X199296D02*
D03*
Y156508D02*
D03*
X195261D02*
D03*
X191225D02*
D03*
X307575Y183398D02*
D03*
X311610D02*
D03*
X315646D02*
D03*
Y179264D02*
D03*
X311610D02*
D03*
X307575D02*
D03*
X269886Y179890D02*
D03*
X265850D02*
D03*
X261815D02*
D03*
Y184023D02*
D03*
X265850D02*
D03*
X269886D02*
D03*
X257779D02*
D03*
Y179890D02*
D03*
X356496Y111221D02*
D03*
X391535D02*
D03*
X324803Y94882D02*
D03*
X329396D02*
D03*
X333990D02*
D03*
X338583D02*
D03*
X332567Y150767D02*
D03*
Y155360D02*
D03*
Y159954D02*
D03*
Y164547D02*
D03*
X411800Y90319D02*
D03*
X418800D02*
D03*
X422981Y94500D02*
D03*
X407619D02*
D03*
X393720Y157500D02*
D03*
Y148600D02*
D03*
X427871Y157500D02*
D03*
X428182Y148600D02*
D03*
X372500Y170671D02*
D03*
X364920D02*
D03*
X345579Y183352D02*
D03*
X349760Y187533D02*
D03*
X387660Y188650D02*
D03*
X391339Y179921D02*
D03*
X395019Y175600D02*
D03*
X399200Y171419D02*
D03*
X430700Y171219D02*
D03*
X437900D02*
D03*
X488976Y185827D02*
D03*
X504331D02*
D03*
X520079D02*
D03*
X297942Y115441D02*
D03*
Y111406D02*
D03*
Y107370D02*
D03*
X293808D02*
D03*
Y111406D02*
D03*
Y115441D02*
D03*
X382058Y152810D02*
D03*
Y156845D02*
D03*
Y160880D02*
D03*
X386192D02*
D03*
Y156845D02*
D03*
Y152810D02*
D03*
X415500Y161635D02*
D03*
Y158268D02*
D03*
X411660Y105585D02*
D03*
X415695D02*
D03*
X419730D02*
D03*
Y109719D02*
D03*
X415695D02*
D03*
X411660D02*
D03*
X433858Y114900D02*
D03*
X437479D02*
D03*
X449500Y135600D02*
D03*
X430700Y182500D02*
D03*
X438100Y182600D02*
D03*
X431100Y198400D02*
D03*
X564700Y127200D02*
D03*
X407700Y171500D02*
D03*
Y174800D02*
D03*
X501900Y139400D02*
D03*
Y122615D02*
D03*
X500900Y115313D02*
D03*
X523300Y115413D02*
D03*
X545300D02*
D03*
X567086Y115213D02*
D03*
X561733Y112325D02*
D03*
X539866Y112010D02*
D03*
X517300Y112225D02*
D03*
Y103725D02*
D03*
X539866Y103925D02*
D03*
X561733D02*
D03*
X583385Y103936D02*
D03*
Y112125D02*
D03*
X578700Y254892D02*
D03*
X575292Y262496D02*
D03*
X570800Y259004D02*
D03*
X527808Y231301D02*
D03*
X532300Y226809D02*
D03*
X540800D02*
D03*
X544692Y233300D02*
D03*
X717900Y147992D02*
D03*
X722392Y143900D02*
D03*
Y135000D02*
D03*
X717900Y130819D02*
D03*
X583900Y191381D02*
D03*
X585100Y205619D02*
D03*
X572419Y209800D02*
D03*
X576600Y205619D02*
D03*
X566181Y210400D02*
D03*
X554611Y206019D02*
D03*
X519200Y139281D02*
D03*
Y122419D02*
D03*
X595900Y158200D02*
D03*
X571219Y187200D02*
D03*
Y180100D02*
D03*
X431900Y230300D02*
D03*
X405800Y263082D02*
D03*
Y266806D02*
D03*
X407200Y248800D02*
D03*
X407300Y241800D02*
D03*
X525100Y191400D02*
D03*
X524700Y203300D02*
D03*
X540500Y205100D02*
D03*
X540500Y200900D02*
D03*
X540900Y194400D02*
D03*
X541600Y190000D02*
D03*
X545800Y152500D02*
D03*
X547752Y164801D02*
D03*
X551200Y173100D02*
D03*
X547700Y176300D02*
D03*
X540000Y166400D02*
D03*
X558200D02*
D03*
Y150900D02*
D03*
X545800Y143100D02*
D03*
X364000Y194500D02*
D03*
X373500D02*
D03*
X365000Y182000D02*
D03*
X373000D02*
D03*
X589500Y148000D02*
D03*
X583600Y374200D02*
D03*
D235*
X633220Y263800D02*
D03*
X633020Y294800D02*
D03*
X625500Y478400D02*
D03*
X631500Y484400D02*
D03*
X638500Y491400D02*
D03*
X645500Y498400D02*
D03*
X652500Y505400D02*
D03*
X659500Y512400D02*
D03*
X667500Y521400D02*
D03*
X530900Y381900D02*
D03*
Y395400D02*
D03*
X551000Y379000D02*
D03*
Y388000D02*
D03*
Y398000D02*
D03*
X658000Y352000D02*
D03*
Y382000D02*
D03*
X655000Y367000D02*
D03*
X630000Y379000D02*
D03*
X608000Y382000D02*
D03*
Y396000D02*
D03*
X628000Y414000D02*
D03*
Y425000D02*
D03*
X670000Y397000D02*
D03*
X661000Y405000D02*
D03*
X654000Y412000D02*
D03*
X647000Y419000D02*
D03*
X640000Y426000D02*
D03*
X633000Y433000D02*
D03*
X627000Y439000D02*
D03*
X552000Y449000D02*
D03*
Y456000D02*
D03*
X580000Y437500D02*
D03*
X572500D02*
D03*
Y445000D02*
D03*
Y452500D02*
D03*
X575000Y475000D02*
D03*
X550000Y470000D02*
D03*
X570000D02*
D03*
X580000Y480000D02*
D03*
X570000D02*
D03*
X560000D02*
D03*
X550000D02*
D03*
X454000Y158000D02*
D03*
X577500Y132500D02*
D03*
Y137500D02*
D03*
Y143000D02*
D03*
X98228Y104823D02*
D03*
Y116634D02*
D03*
Y128445D02*
D03*
Y140256D02*
D03*
Y152067D02*
D03*
Y163878D02*
D03*
Y175689D02*
D03*
Y187500D02*
D03*
X831004Y263287D02*
D03*
X842815D02*
D03*
X832382Y88386D02*
D03*
X820571D02*
D03*
X785138D02*
D03*
X796949D02*
D03*
X808760D02*
D03*
X854626Y108849D02*
D03*
Y180128D02*
D03*
Y168248D02*
D03*
Y156368D02*
D03*
Y144488D02*
D03*
Y132608D02*
D03*
Y120729D02*
D03*
Y192008D02*
D03*
Y203888D02*
D03*
Y215768D02*
D03*
Y227648D02*
D03*
Y239528D02*
D03*
Y251408D02*
D03*
X853839Y262598D02*
D03*
X519652Y263583D02*
D03*
X510466D02*
D03*
X528839D02*
D03*
X799134Y263976D02*
D03*
X787298D02*
D03*
X775463D02*
D03*
X763628D02*
D03*
X751793D02*
D03*
X739958D02*
D03*
X728122D02*
D03*
X716287D02*
D03*
X704452D02*
D03*
X692617D02*
D03*
X680781D02*
D03*
X668946D02*
D03*
X657111D02*
D03*
X500000Y205807D02*
D03*
X501279Y263583D02*
D03*
X500197Y251093D02*
D03*
Y239213D02*
D03*
Y227333D02*
D03*
Y215453D02*
D03*
X482972Y199606D02*
D03*
X494783D02*
D03*
X397835Y199311D02*
D03*
X389173D02*
D03*
X334449D02*
D03*
X98228D02*
D03*
X110039D02*
D03*
X121850D02*
D03*
X133661D02*
D03*
X145472D02*
D03*
X157283D02*
D03*
X169095D02*
D03*
X180905D02*
D03*
X192717D02*
D03*
X204528D02*
D03*
X216339D02*
D03*
X228150D02*
D03*
X239961D02*
D03*
X251772D02*
D03*
X263583D02*
D03*
X275394D02*
D03*
X287205D02*
D03*
X299016D02*
D03*
X310827D02*
D03*
X322638D02*
D03*
X690650Y88386D02*
D03*
X678839D02*
D03*
X667028D02*
D03*
X655217D02*
D03*
X643405D02*
D03*
X631595D02*
D03*
X619783D02*
D03*
X607972D02*
D03*
X596161D02*
D03*
X584350D02*
D03*
X572539D02*
D03*
X560728D02*
D03*
X548917D02*
D03*
X537106D02*
D03*
X525295D02*
D03*
X501673D02*
D03*
X513484D02*
D03*
X489862D02*
D03*
X478051D02*
D03*
X466240D02*
D03*
X454429D02*
D03*
X442618D02*
D03*
X749705D02*
D03*
X737894D02*
D03*
X726083D02*
D03*
X714272D02*
D03*
X702461D02*
D03*
X761516D02*
D03*
X773327D02*
D03*
X359941D02*
D03*
X348130D02*
D03*
X336319D02*
D03*
X324508D02*
D03*
X312697D02*
D03*
X300886D02*
D03*
X289075D02*
D03*
X277264D02*
D03*
X265453D02*
D03*
X253642D02*
D03*
X241831D02*
D03*
X230020D02*
D03*
X218209D02*
D03*
X206398D02*
D03*
X194587D02*
D03*
X170965D02*
D03*
X182776D02*
D03*
X159153D02*
D03*
X147343D02*
D03*
X135531D02*
D03*
X123721D02*
D03*
X111909D02*
D03*
X430807D02*
D03*
X407185D02*
D03*
X395374D02*
D03*
X383563D02*
D03*
X371752D02*
D03*
X855118Y304134D02*
D03*
X854921Y296949D02*
D03*
X527756D02*
D03*
X518865Y296752D02*
D03*
X509974D02*
D03*
X635827Y310236D02*
D03*
X630217Y319390D02*
D03*
Y330413D02*
D03*
X628839Y338484D02*
D03*
X559252Y341634D02*
D03*
X569685Y340453D02*
D03*
X581496D02*
D03*
X593307D02*
D03*
X616929D02*
D03*
X605118D02*
D03*
X520866Y340256D02*
D03*
X511319Y340354D02*
D03*
X503150Y340059D02*
D03*
X501083Y332382D02*
D03*
Y320571D02*
D03*
Y296949D02*
D03*
Y308760D02*
D03*
X657559Y294980D02*
D03*
X669439D02*
D03*
X681319D02*
D03*
X693199D02*
D03*
X705079D02*
D03*
X716959D02*
D03*
X728839D02*
D03*
X752598D02*
D03*
X764478D02*
D03*
X740719D02*
D03*
X776358D02*
D03*
X788238D02*
D03*
X800118D02*
D03*
X811998D02*
D03*
X823878D02*
D03*
X835758D02*
D03*
X847638D02*
D03*
X650108Y309842D02*
D03*
X661988D02*
D03*
X673868D02*
D03*
X685748D02*
D03*
X697628D02*
D03*
X709508D02*
D03*
X721388D02*
D03*
X733268D02*
D03*
X757028D02*
D03*
X768908D02*
D03*
X745148D02*
D03*
X780788D02*
D03*
X792667D02*
D03*
X804547D02*
D03*
X816427D02*
D03*
X828307D02*
D03*
X840187D02*
D03*
X852067D02*
D03*
X638189Y328642D02*
D03*
Y337795D02*
D03*
X614764Y347716D02*
D03*
X626644D02*
D03*
X636713Y346260D02*
D03*
X555364Y347716D02*
D03*
X602884D02*
D03*
X591004D02*
D03*
X579124D02*
D03*
X567244D02*
D03*
X520866D02*
D03*
X511270D02*
D03*
X639764Y319390D02*
D03*
X852067Y318012D02*
D03*
X840187D02*
D03*
X828307D02*
D03*
X816427D02*
D03*
X804547D02*
D03*
X792667D02*
D03*
X780788D02*
D03*
X745148D02*
D03*
X768908D02*
D03*
X757028D02*
D03*
X733268D02*
D03*
X721388D02*
D03*
X709508D02*
D03*
X697628D02*
D03*
X685748D02*
D03*
X673868D02*
D03*
X661988D02*
D03*
X650108D02*
D03*
X852067Y520276D02*
D03*
Y508396D02*
D03*
Y496516D02*
D03*
Y484636D02*
D03*
Y472756D02*
D03*
Y460876D02*
D03*
Y448996D02*
D03*
Y413356D02*
D03*
Y437116D02*
D03*
Y425236D02*
D03*
Y401476D02*
D03*
Y389597D02*
D03*
Y377717D02*
D03*
Y365837D02*
D03*
Y353957D02*
D03*
Y342077D02*
D03*
Y330197D02*
D03*
X501673Y524734D02*
D03*
Y512854D02*
D03*
Y500974D02*
D03*
Y489094D02*
D03*
Y477214D02*
D03*
Y465335D02*
D03*
Y429695D02*
D03*
Y453455D02*
D03*
Y441575D02*
D03*
Y417815D02*
D03*
Y405935D02*
D03*
Y394055D02*
D03*
Y382175D02*
D03*
Y370295D02*
D03*
Y358415D02*
D03*
Y347716D02*
D03*
X832382Y536614D02*
D03*
X761516D02*
D03*
X773327D02*
D03*
X785138D02*
D03*
X796949D02*
D03*
X808760D02*
D03*
X820571D02*
D03*
X501673D02*
D03*
X513484D02*
D03*
X525295D02*
D03*
X537106D02*
D03*
X548917D02*
D03*
X572539D02*
D03*
X560728D02*
D03*
X584350D02*
D03*
X596161D02*
D03*
X607972D02*
D03*
X619783D02*
D03*
X631595D02*
D03*
X643405D02*
D03*
X655217D02*
D03*
X667028D02*
D03*
X678839D02*
D03*
X690650D02*
D03*
X702461D02*
D03*
X714272D02*
D03*
X726083D02*
D03*
X737894D02*
D03*
X749705D02*
D03*
X177165Y249410D02*
D03*
X96949Y230807D02*
D03*
X354331Y229331D02*
D03*
X334646D02*
D03*
X322835D02*
D03*
X311024D02*
D03*
X299213D02*
D03*
X287402D02*
D03*
X275590D02*
D03*
X263779D02*
D03*
X251969D02*
D03*
X240158D02*
D03*
X228346D02*
D03*
X216535D02*
D03*
X204724D02*
D03*
X192913D02*
D03*
X181102D02*
D03*
X169291D02*
D03*
X157480D02*
D03*
X145669D02*
D03*
X133858D02*
D03*
X122047D02*
D03*
X110236D02*
D03*
X179134Y242126D02*
D03*
X169291D02*
D03*
X157480D02*
D03*
X145669D02*
D03*
X133858D02*
D03*
X122047D02*
D03*
X110236D02*
D03*
X98425D02*
D03*
X485433Y232283D02*
D03*
Y244173D02*
D03*
Y256063D02*
D03*
Y267953D02*
D03*
Y279842D02*
D03*
Y291732D02*
D03*
X475197Y291732D02*
D03*
X464567D02*
D03*
X452756D02*
D03*
X440945D02*
D03*
X419050D02*
D03*
X409449D02*
D03*
X397638D02*
D03*
X381890D02*
D03*
X370079D02*
D03*
X354331D02*
D03*
X342520D02*
D03*
X335630Y287402D02*
D03*
Y275590D02*
D03*
Y263779D02*
D03*
X335600Y256200D02*
D03*
X335630Y243110D02*
D03*
X324803Y242126D02*
D03*
X312992D02*
D03*
X301181D02*
D03*
X289370D02*
D03*
X277559D02*
D03*
X265748D02*
D03*
X253937D02*
D03*
X242126D02*
D03*
X230315D02*
D03*
X218504D02*
D03*
X206693D02*
D03*
X194882D02*
D03*
X464567Y299016D02*
D03*
X452756D02*
D03*
X440945D02*
D03*
X419050D02*
D03*
X409449D02*
D03*
X397638D02*
D03*
X381890D02*
D03*
X370079D02*
D03*
X342520D02*
D03*
X354331D02*
D03*
X331496Y297441D02*
D03*
X329921Y287254D02*
D03*
Y275492D02*
D03*
Y263730D02*
D03*
X328248Y250492D02*
D03*
X318898Y249410D02*
D03*
X307087D02*
D03*
X295276D02*
D03*
X283465D02*
D03*
X271654D02*
D03*
X259842D02*
D03*
X248031D02*
D03*
X236221D02*
D03*
X224410D02*
D03*
X212598D02*
D03*
X204724D02*
D03*
X165354D02*
D03*
X153543D02*
D03*
X141732D02*
D03*
X110236D02*
D03*
X98425D02*
D03*
Y259842D02*
D03*
Y271654D02*
D03*
Y283465D02*
D03*
Y295276D02*
D03*
Y307087D02*
D03*
Y318898D02*
D03*
Y330709D02*
D03*
Y342520D02*
D03*
Y354331D02*
D03*
Y366142D02*
D03*
Y377953D02*
D03*
Y389764D02*
D03*
Y401575D02*
D03*
Y413386D02*
D03*
Y425197D02*
D03*
Y437008D02*
D03*
Y448819D02*
D03*
Y460630D02*
D03*
Y472441D02*
D03*
Y484252D02*
D03*
Y496063D02*
D03*
Y507874D02*
D03*
Y519685D02*
D03*
X475197Y299016D02*
D03*
X484252D02*
D03*
Y310896D02*
D03*
Y322776D02*
D03*
Y334655D02*
D03*
Y346535D02*
D03*
Y358415D02*
D03*
Y370295D02*
D03*
Y382175D02*
D03*
Y394055D02*
D03*
Y405935D02*
D03*
Y417815D02*
D03*
Y441575D02*
D03*
Y453455D02*
D03*
Y429695D02*
D03*
Y465335D02*
D03*
Y477214D02*
D03*
Y489094D02*
D03*
Y500974D02*
D03*
Y512854D02*
D03*
Y524734D02*
D03*
Y536614D02*
D03*
X472441Y536614D02*
D03*
X460630D02*
D03*
X448819D02*
D03*
X437008D02*
D03*
X425197D02*
D03*
X413386D02*
D03*
X401575D02*
D03*
X389764D02*
D03*
X377953D02*
D03*
X366142D02*
D03*
X354331D02*
D03*
X342520D02*
D03*
X330709D02*
D03*
X318898D02*
D03*
X307087D02*
D03*
X283465D02*
D03*
X295276D02*
D03*
X271654D02*
D03*
X259842D02*
D03*
X248031D02*
D03*
X236221D02*
D03*
X224410D02*
D03*
X208661D02*
D03*
X196850D02*
D03*
X185039D02*
D03*
X161417D02*
D03*
X173228D02*
D03*
X149606D02*
D03*
X137795D02*
D03*
X125984D02*
D03*
X114173D02*
D03*
X527600Y180000D02*
D03*
X581217Y124117D02*
D03*
X575200Y150500D02*
D03*
X572100Y152700D02*
D03*
X587700Y132200D02*
D03*
X557985Y238900D02*
D03*
X558000Y226000D02*
D03*
X346457Y229331D02*
D03*
X346260Y199311D02*
D03*
D236*
X405700Y236800D02*
D03*
M02*
